<svg width="600" height="600" viewBox="0 0 600 600" fill="none" xmlns="http://www.w3.org/2000/svg">
<path d="M216.303 160.122C216.556 161.315 217.929 161.876 219.369 161.374C220.81 160.873 221.772 159.5 221.518 158.307L216.303 160.122ZM248.432 59.0682L249.946 56.8974L245.603 55.1362L244.088 57.3071L248.432 59.0682ZM221.518 158.307C212.045 113.724 238.058 73.9334 248.432 59.0682L244.088 57.3071C233.533 72.4324 206.447 113.744 216.303 160.122L221.518 158.307Z" fill="#020202"/>
<path d="M216.303 160.122C216.556 161.315 217.929 161.876 219.369 161.374C220.81 160.873 221.772 159.5 221.518 158.307L216.303 160.122ZM248.432 59.0682L249.946 56.8974L245.603 55.1362L244.088 57.3071L248.432 59.0682ZM221.518 158.307C212.045 113.724 238.058 73.9334 248.432 59.0682L244.088 57.3071C233.533 72.4324 206.447 113.744 216.303 160.122L221.518 158.307Z" fill="black" fill-opacity="0.2"/>
<path d="M196.199 181.642C197.479 181.995 198.765 181.148 199.072 179.749C199.379 178.35 198.59 176.93 197.311 176.576L196.199 181.642ZM108.451 106.969L107.04 104.845L103.2 107.888L104.611 110.011L108.451 106.969ZM197.311 176.576C147.276 162.757 118.775 122.511 108.451 106.969L104.611 110.011C115.079 125.77 144.44 167.347 196.199 181.642L197.311 176.576Z" fill="#020202"/>
<path d="M196.199 181.642C197.479 181.995 198.765 181.148 199.072 179.749C199.379 178.35 198.59 176.93 197.311 176.576L196.199 181.642ZM108.451 106.969L107.04 104.845L103.2 107.888L104.611 110.011L108.451 106.969ZM197.311 176.576C147.276 162.757 118.775 122.511 108.451 106.969L104.611 110.011C115.079 125.77 144.44 167.347 196.199 181.642L197.311 176.576Z" fill="black" fill-opacity="0.2"/>
<path d="M267.884 65.4228C270.789 79.0973 262.06 92.5382 248.385 95.4439C234.711 98.3496 221.27 89.6198 218.364 75.9453C215.458 62.2708 224.188 48.8299 237.863 45.9242C251.537 43.0184 264.978 51.7483 267.884 65.4228Z" fill="#F5ED2E"/>
<path d="M267.884 65.4228C270.789 79.0973 262.06 92.5382 248.385 95.4439C234.711 98.3496 221.27 89.6198 218.364 75.9453C215.458 62.2708 224.188 48.8299 237.863 45.9242C251.537 43.0184 264.978 51.7483 267.884 65.4228Z" stroke="#020202" stroke-width="5"/>
<path d="M267.884 65.4228C270.789 79.0973 262.06 92.5382 248.385 95.4439C234.711 98.3496 221.27 89.6198 218.364 75.9453C215.458 62.2708 224.188 48.8299 237.863 45.9242C251.537 43.0184 264.978 51.7483 267.884 65.4228Z" stroke="black" stroke-opacity="0.2" stroke-width="5"/>
<path d="M121.758 89.8227C135.233 93.5444 143.14 107.485 139.418 120.961C135.696 134.436 121.755 142.343 108.28 138.621C94.8049 134.899 86.898 120.958 90.6197 107.483C94.3414 94.0079 108.282 86.101 121.758 89.8227Z" fill="#F4EF32"/>
<path d="M121.758 89.8227C135.233 93.5444 143.14 107.485 139.418 120.961C135.696 134.436 121.755 142.343 108.28 138.621C94.8049 134.899 86.898 120.958 90.6197 107.483C94.3414 94.0079 108.282 86.101 121.758 89.8227Z" stroke="#020202" stroke-width="5"/>
<path d="M121.758 89.8227C135.233 93.5444 143.14 107.485 139.418 120.961C135.696 134.436 121.755 142.343 108.28 138.621C94.8049 134.899 86.898 120.958 90.6197 107.483C94.3414 94.0079 108.282 86.101 121.758 89.8227Z" stroke="black" stroke-opacity="0.2" stroke-width="5"/>
<path d="M271.027 387.936C271.027 431.553 216.176 466.911 148.513 466.911C80.8511 466.911 26 431.553 26 387.936C26 344.319 80.8511 308.96 148.513 308.96C216.176 308.96 271.027 344.319 271.027 387.936Z" fill="#F3F1F1" stroke="black" stroke-width="5"/>
<ellipse cx="226.429" cy="483.016" rx="89.1006" ry="58.9585" transform="rotate(133.842 226.429 483.016)" fill="#F3F1F1" stroke="black" stroke-width="5"/>
<ellipse cx="434.157" cy="255.063" rx="116.317" ry="81.1956" transform="rotate(135.424 434.157 255.063)" fill="#F3F1F1" stroke="black" stroke-width="5"/>
<ellipse cx="494.745" cy="369.103" rx="78.785" ry="52.822" transform="rotate(-179.843 494.745 369.103)" fill="#F3F1F1" stroke="black" stroke-width="5"/>
<path d="M446.801 558.921C446.678 562.525 442.898 564.818 439.645 563.261L351.253 520.947C347.669 519.231 347.422 514.222 350.819 512.162L442.554 456.534C445.952 454.474 450.279 457.009 450.144 460.98L446.801 558.921Z" fill="black" stroke="black" stroke-width="5"/>
<path d="M443.261 339.114C479.332 402.51 463.163 501.672 402.409 524.18C341.654 546.687 246.071 482.225 223.249 420.621C200.427 359.017 231.177 290.831 291.932 268.323C352.686 245.816 411.818 283.852 443.261 339.114Z" fill="#F5ED30" stroke="black" stroke-width="5"/>
<path d="M219.895 358.675C217.97 343.829 224.26 332.772 234.873 316.656L328.023 262.487C350.479 265.221 365.726 266.446 375.315 275.144C331.044 322.835 287.421 352.345 219.895 358.675Z" fill="#010101"/>
<path d="M250.776 459.42C242.17 452.332 230.526 435.12 224.451 421.451C317.571 400.797 363.096 379.776 427.965 319.188C435.053 331.844 447.709 347.538 450.24 358.675C412.271 408.288 318.303 453.089 250.776 459.42Z" fill="#010101"/>
<path d="M343.421 521.183C331.271 518.145 306.464 511.058 295.327 497.895C378.842 479.371 402.187 463.134 460.365 408.794C460.365 422.97 460.365 449.295 454.797 457.395C420.744 501.891 403.983 515.505 343.421 521.183Z" fill="#010101"/>
<circle cx="244.627" cy="230.94" r="101.251" transform="rotate(-9.35611 244.627 230.94)" fill="#F5ED30" stroke="black" stroke-width="5"/>
<ellipse cx="207.309" cy="241.589" rx="11.1376" ry="24.5795" transform="rotate(-31.5259 207.309 241.589)" fill="#000100"/>
<ellipse cx="274.135" cy="204.126" rx="11.1376" ry="24.5795" transform="rotate(-31.5259 274.135 204.126)" fill="#000100"/>
<ellipse cx="220.058" cy="290.828" rx="21.5457" ry="8.60631" transform="rotate(-30.3002 220.058 290.828)" fill="#F79DC3" fill-opacity="0.8"/>
<ellipse cx="311.184" cy="237.165" rx="21.5457" ry="8.60631" transform="rotate(-30.3002 311.184 237.165)" fill="#F79DC3" fill-opacity="0.8"/>
<path d="M297.352 263.5L249.764 291.344C249.764 291.344 276.263 307.01 288.745 297.925C299.95 289.77 297.352 263.5 297.352 263.5Z" fill="#000200" stroke="black"/>
</svg>
