<svg width="600" height="600" viewBox="0 0 600 600" fill="none" xmlns="http://www.w3.org/2000/svg">
<g clip-path="url(#clip0_9_1187)">
<path d="M389.876 502.431C432.167 479.327 452.731 459.953 484.544 415.467C441.153 383.616 416.896 375.68 373.681 368.53L389.876 502.431Z" fill="#E7E7E7"/>
<path d="M399.462 470.096C422.045 457.686 433.045 447.312 450.095 423.529C427.05 406.651 414.144 402.476 391.137 398.763L399.462 470.096Z" fill="#F8F8F8"/>
<path fill-rule="evenodd" clip-rule="evenodd" d="M492.915 413.738L488.397 410.426C466.52 394.387 449.221 384.2 431.772 377.147C414.325 370.094 396.983 366.28 375.227 362.729L367.239 361.425L385.06 511.671L392.527 507.579C413.989 495.816 430.192 484.873 445.12 471.089C460.012 457.337 473.434 440.942 489.501 418.505L492.915 413.738ZM476.634 416.73C462.333 436.374 450.353 450.653 437.398 462.615C425.165 473.911 411.908 483.284 394.739 493.143L380.807 375.693C398.453 378.819 412.731 382.333 426.951 388.081C442.083 394.198 457.369 402.936 476.634 416.73Z" fill="#CFCFCF"/>
<path d="M502.188 151.448C483.666 158.633 412.208 196.349 412.208 196.349C412.208 196.349 410.953 115.762 403.955 96.9351C401.608 90.6226 403.527 81.8851 410.367 78.6514C416.896 75.5654 421.952 78.1386 428.005 84.2057C437.313 93.5361 443.755 114.053 443.755 114.053C443.755 114.053 452.602 91.0102 462.495 79.0867C468.766 71.5277 473.65 69.9509 480.217 73.1407C487.023 76.447 487.329 82.5847 486.057 91.6153C483.857 107.233 467.211 127.335 467.211 127.335C467.211 127.335 487.689 127.471 500.736 125.654C506.216 124.891 513.621 131.097 514.303 138.31C515.018 145.86 507.696 149.312 502.188 151.448Z" fill="#EFEFEF" stroke="black" stroke-width="5"/>
<path d="M480.512 300.205C470.321 283.151 421.149 219.036 421.149 219.036C421.149 219.036 490.323 208.553 507.708 198.494C513.537 195.122 522.473 195.547 526.808 201.748C530.946 207.666 539.318 208.804 534.353 215.789C526.717 226.531 505.423 231.918 505.423 231.918C505.423 231.918 531.773 241.18 545.187 248.931C553.691 253.845 556.065 258.396 554.023 265.404C551.905 272.669 545.906 274 536.79 274.262C521.025 274.714 498.415 261.677 498.415 261.677C498.415 261.677 503.727 281.546 507.708 294.103C509.38 299.377 504.505 307.718 497.508 309.601C490.185 311.573 483.543 305.276 480.512 300.205Z" fill="#EFEFEF" stroke="black" stroke-width="5"/>
<path d="M530.363 242.561C507.897 233.02 411.763 205.117 411.763 205.117C411.763 205.117 486.999 132.232 498.905 109.433C502.897 101.789 512.792 95.6551 521.638 98.6622C530.081 101.532 531.92 108.177 531.294 118.793C530.332 135.118 516.354 158.944 516.354 158.944C516.354 158.944 545.652 146.028 565.307 143.919C577.766 142.582 583.39 145.382 585.922 153.876C588.548 162.68 582.995 168.412 573.37 175.364C556.723 187.386 523.615 190.968 523.615 190.968C523.615 190.968 542.734 206.9 555.487 216.511C560.844 220.548 561.23 232.451 554.978 239.466C548.434 246.808 537.043 245.398 530.363 242.561Z" fill="#D7D5D5" stroke="black" stroke-width="5"/>
<path d="M97.8115 152.968C116.334 160.153 187.791 197.868 187.791 197.868C187.791 197.868 189.046 117.282 196.045 98.4549C198.392 92.1424 196.473 83.4049 189.632 80.1712C183.104 77.0852 178.048 79.6584 171.995 85.7255C162.687 95.0559 156.245 115.573 156.245 115.573C156.245 115.573 147.397 92.53 137.505 80.6064C131.234 73.0475 126.349 71.4707 119.783 74.6604C112.977 77.9667 112.671 84.1045 113.943 93.1351C116.143 108.753 132.789 128.854 132.789 128.854C132.789 128.854 112.31 126.951 99.2633 125.134C93.7834 124.371 86.3791 130.577 85.6963 137.79C84.9816 145.341 92.3041 150.832 97.8115 152.968Z" fill="#EFEFEF" stroke="black" stroke-width="5"/>
<path d="M120.735 301.324C130.926 284.27 180.098 220.155 180.098 220.155C180.098 220.155 100.864 205.394 83.479 195.336C77.6498 191.963 80.5265 199.088 76.1907 205.289C72.0528 211.207 61.9289 209.923 66.8942 216.908C74.5303 227.65 93.5392 229.382 93.5392 229.382C93.5392 229.382 69.4745 242.299 56.06 250.05C47.5559 254.964 45.1817 259.515 47.2244 266.523C49.3416 273.788 55.341 275.119 64.457 275.381C80.2223 275.833 102.832 262.796 102.832 262.796C102.832 262.796 97.5197 282.665 93.5392 295.222C91.8674 300.496 96.7424 308.837 103.739 310.72C111.062 312.692 117.704 306.395 120.735 301.324Z" fill="#EFEFEF" stroke="black" stroke-width="5"/>
<path d="M69.6367 244.082C92.1023 234.54 188.236 206.637 188.236 206.637C188.236 206.637 113.001 133.753 101.095 110.954C97.1026 103.309 87.2079 97.1756 78.3615 100.183C69.9189 103.053 68.0798 109.697 68.7055 120.313C69.6678 136.639 83.6456 160.465 83.6456 160.465C83.6456 160.465 54.3471 147.549 34.693 145.44C22.2333 144.103 16.6098 146.902 14.0772 155.396C11.452 164.201 17.0043 169.933 26.6299 176.884C43.2764 188.906 76.3845 192.489 76.3845 192.489C76.3845 192.489 57.2654 208.42 44.5123 218.032C39.1559 222.069 38.7698 233.971 45.0217 240.986C51.5657 248.329 62.9569 246.919 69.6367 244.082Z" fill="#D7D5D5" stroke="black" stroke-width="5"/>
<path d="M216.442 528.23C248.361 524.43 300.799 516.07 300.799 516.07C300.799 516.07 272.928 499.228 252.921 495.551C236.574 492.546 222.477 487.789 206.423 492.09C193.504 495.551 182.233 503.04 183.763 516.07C185.351 529.594 202.921 529.839 216.442 528.23Z" fill="white" stroke="black" stroke-width="5"/>
<path d="M374.378 528.23C342.459 524.43 290.02 516.07 290.02 516.07C290.02 516.07 317.891 499.228 337.899 495.551C354.245 492.546 368.342 487.789 384.396 492.09C397.316 495.551 408.587 503.04 407.057 516.07C405.468 529.594 387.899 529.839 374.378 528.23Z" fill="white" stroke="black" stroke-width="5"/>
<path d="M213.453 342.547C211.301 348.549 174.919 451.405 204.332 495.524C236.251 543.403 361.65 549.482 387.488 495.524C413.326 441.566 378.371 347.127 376.088 342.547C376.088 342.547 215.265 337.491 213.453 342.547Z" fill="white"/>
<path d="M355.569 441.566C355.569 492.772 328.348 528.369 294.77 528.369C261.193 528.369 233.972 492.772 233.972 441.566C233.972 390.36 266.803 360.285 294.77 348.849C321.522 361.102 355.569 390.36 355.569 441.566Z" fill="#D7D5D5"/>
<path d="M445.055 254.777C445.055 335.364 378.366 373.333 296.1 373.333C213.834 373.333 147.145 335.364 147.145 254.777C147.145 174.19 213.834 108.861 296.1 108.861C378.366 108.861 445.055 174.19 445.055 254.777Z" fill="white"/>
<path d="M276.53 322.857C276.53 322.857 282.793 328.319 287.473 327.873C291.365 327.502 296.137 322.857 296.137 322.857C296.137 322.857 300.898 327.634 304.801 327.873C309.173 328.141 314.832 322.857 314.832 322.857" stroke="black" stroke-width="5" stroke-linecap="round"/>
<ellipse cx="222.225" cy="296.047" rx="20.1719" ry="9.06134" fill="#EDECEC"/>
<ellipse cx="374.156" cy="296.386" rx="20.1719" ry="9.06134" transform="rotate(-2.27638 374.156 296.386)" fill="#EDECEC"/>
<ellipse cx="27.7732" cy="32.8383" rx="27.7732" ry="32.8383" transform="matrix(-0.953838 0.300322 0.215795 0.976439 377.631 207.365)" fill="black" stroke="#504B4F"/>
<ellipse cx="7.90173" cy="6.77223" rx="7.90173" ry="6.77223" transform="matrix(-0.82516 0.564899 0.575712 0.817653 351.255 226.271)" fill="white" stroke="#504B4F"/>
<ellipse cx="27.7732" cy="32.8383" rx="27.7732" ry="32.8383" transform="matrix(-0.953838 0.300322 0.215795 0.976439 251.084 205.834)" fill="black" stroke="#504B4F"/>
<ellipse cx="7.90173" cy="6.77223" rx="7.90173" ry="6.77223" transform="matrix(-0.82516 0.564899 0.575712 0.817653 224.709 224.74)" fill="white" stroke="#504B4F"/>
<path d="M233.972 436.245C233.945 426.589 234.511 419.156 236.252 412.686C236.252 412.686 269.694 442.325 266.654 447.645C264.049 452.205 233.972 436.245 233.972 436.245Z" fill="white"/>
<path d="M355.569 437.766C355.596 428.11 354.27 422.196 352.529 415.726C352.529 415.726 320.857 444.605 323.897 449.925C326.502 454.485 355.569 437.766 355.569 437.766Z" fill="white"/>
<path d="M226.676 400.527C226.676 400.527 282.342 443.99 267.714 450.686C257.474 455.374 216.036 430.926 216.036 430.926" stroke="black" stroke-width="5"/>
<path d="M365.617 400.527C365.617 400.527 309.951 443.99 324.578 450.686C334.819 455.374 376.257 430.926 376.257 430.926" stroke="black" stroke-width="5"/>
<!-- <path d="M376.5 364.5L385.5 402.5" stroke="#7B79E2" stroke-width="3" stroke-linecap="round"/>
<path d="M385.5 402.5L390.5 460" stroke="#7B79E2" stroke-width="3" stroke-linecap="round"/>
<path d="M390.5 460L382.5 490.5" stroke="#7B79E2" stroke-width="3" stroke-linecap="round"/>
<path d="M382.5 490.5L350.5 517.5" stroke="#7B79E2" stroke-width="3" stroke-linecap="round"/>
<path d="M350.5 517.5L295 538" stroke="#7B79E2" stroke-width="3" stroke-linecap="round"/>
<path d="M295 538L250.5 518" stroke="#7B79E2" stroke-width="3" stroke-linecap="round"/>
<path d="M250.5 518L209.5 489" stroke="#7B79E2" stroke-width="3" stroke-linecap="round"/>
<path d="M209.5 489L192.5 459.5" stroke="#7B79E2" stroke-width="3" stroke-linecap="round"/>
<path d="M192.5 459.5L195 402.5" stroke="#7B79E2" stroke-width="3" stroke-linecap="round"/>
<path d="M195 402.5L208 358" stroke="#7B79E2" stroke-width="3" stroke-linecap="round"/>
<path d="M208 358L161 320" stroke="#7B79E2" stroke-width="3" stroke-linecap="round"/>
<path d="M161 320L153.5 263" stroke="#7B79E2" stroke-width="3" stroke-linecap="round"/>
<path d="M153.5 263L164.5 205.5" stroke="#7B79E2" stroke-width="3" stroke-linecap="round"/>
<path d="M164.5 205.5L195.5 157" stroke="#7B79E2" stroke-width="3" stroke-linecap="round"/>
<path d="M195.5 157L246 117" stroke="#7B79E2" stroke-width="3" stroke-linecap="round"/>
<path d="M246 117L337 118" stroke="#7B79E2" stroke-width="3" stroke-linecap="round"/>
<path d="M337 118L383 146.5" stroke="#7B79E2" stroke-width="3" stroke-linecap="round"/>
<path d="M383 146.5L431 205" stroke="#7B79E2" stroke-width="3" stroke-linecap="round"/>
<path d="M431 205L439 255.5" stroke="#7B79E2" stroke-width="3" stroke-linecap="round"/>
<path d="M439 255.5L430 319" stroke="#7B79E2" stroke-width="3" stroke-linecap="round"/>
<path d="M430 319L386.5 353" stroke="#7B79E2" stroke-width="3" stroke-linecap="round"/> -->
<path d="M371.01 364.428C371.01 367.579 373.565 370.134 376.717 370.134C379.868 370.134 382.423 367.579 382.423 364.428C382.423 361.276 379.868 358.722 376.717 358.722C373.565 358.722 371.01 361.276 371.01 364.428Z" fill="black"/>
<path d="M360.098 366.381H358.713L362.719 355.472H364.083L368.088 366.381H366.704L363.444 357.198H363.358L360.098 366.381ZM360.61 362.12H366.192V363.292H360.61V362.12Z" fill="black"/>
<path d="M379.887 402.469C379.887 405.62 382.441 408.175 385.593 408.175C388.744 408.175 391.299 405.62 391.299 402.469C391.299 399.317 388.744 396.763 385.593 396.763C382.441 396.763 379.887 399.317 379.887 402.469Z" fill="black"/>
<path d="M369.321 408V397.091H373.135C373.895 397.091 374.522 397.222 375.015 397.485C375.509 397.744 375.876 398.094 376.118 398.534C376.359 398.971 376.48 399.456 376.48 399.989C376.48 400.457 376.397 400.844 376.23 401.15C376.066 401.455 375.85 401.697 375.58 401.874C375.314 402.052 375.024 402.183 374.712 402.268V402.375C375.045 402.396 375.381 402.513 375.718 402.727C376.056 402.94 376.338 403.245 376.565 403.643C376.793 404.04 376.906 404.527 376.906 405.102C376.906 405.649 376.782 406.141 376.533 406.578C376.285 407.015 375.892 407.361 375.356 407.616C374.82 407.872 374.122 408 373.263 408H369.321ZM370.642 406.828H373.263C374.126 406.828 374.738 406.661 375.1 406.327C375.466 405.99 375.649 405.582 375.649 405.102C375.649 404.733 375.555 404.392 375.367 404.08C375.179 403.763 374.911 403.511 374.562 403.323C374.214 403.131 373.803 403.036 373.327 403.036H370.642V406.828ZM370.642 401.885H373.092C373.49 401.885 373.849 401.807 374.168 401.651C374.491 401.494 374.747 401.274 374.935 400.99C375.127 400.706 375.223 400.372 375.223 399.989C375.223 399.509 375.056 399.103 374.722 398.769C374.388 398.431 373.859 398.263 373.135 398.263H370.642V401.885Z" fill="black"/>
<path d="M384.959 459.531C384.959 462.682 387.514 465.237 390.665 465.237C393.816 465.237 396.371 462.682 396.371 459.531C396.371 456.379 393.816 453.825 390.665 453.825C387.514 453.825 384.959 456.379 384.959 459.531Z" fill="black"/>
<path d="M383.099 457.5H381.778C381.7 457.12 381.564 456.786 381.368 456.499C381.176 456.211 380.942 455.969 380.665 455.774C380.392 455.575 380.088 455.426 379.754 455.327C379.42 455.227 379.072 455.178 378.71 455.178C378.05 455.178 377.451 455.344 376.915 455.678C376.382 456.012 375.958 456.504 375.642 457.154C375.33 457.804 375.173 458.601 375.173 459.545C375.173 460.49 375.33 461.287 375.642 461.937C375.958 462.587 376.382 463.079 376.915 463.413C377.451 463.746 378.05 463.913 378.71 463.913C379.072 463.913 379.42 463.864 379.754 463.764C380.088 463.665 380.392 463.517 380.665 463.322C380.942 463.123 381.176 462.88 381.368 462.592C381.564 462.301 381.7 461.967 381.778 461.591H383.099C383 462.148 382.819 462.647 382.556 463.088C382.293 463.528 381.967 463.903 381.576 464.212C381.185 464.517 380.747 464.75 380.26 464.909C379.777 465.069 379.261 465.149 378.71 465.149C377.78 465.149 376.952 464.922 376.228 464.467C375.504 464.013 374.934 463.366 374.518 462.528C374.103 461.69 373.895 460.696 373.895 459.545C373.895 458.395 374.103 457.401 374.518 456.562C374.934 455.724 375.504 455.078 376.228 454.624C376.952 454.169 377.78 453.942 378.71 453.942C379.261 453.942 379.777 454.022 380.26 454.181C380.747 454.341 381.185 454.576 381.576 454.885C381.967 455.19 382.293 455.563 382.556 456.003C382.819 456.44 383 456.939 383.099 457.5Z" fill="black"/>
<path d="M376.887 490.232C376.887 493.384 379.441 495.938 382.593 495.938C385.744 495.938 388.299 493.384 388.299 490.232C388.299 487.081 385.744 484.526 382.593 484.526C379.441 484.526 376.887 487.081 376.887 490.232Z" fill="black"/>
<path d="M368.688 496H365.321V485.091H368.837C369.895 485.091 370.8 485.309 371.553 485.746C372.306 486.179 372.883 486.803 373.284 487.616C373.686 488.425 373.886 489.395 373.886 490.524C373.886 491.661 373.684 492.639 373.279 493.459C372.874 494.276 372.285 494.904 371.511 495.345C370.737 495.782 369.795 496 368.688 496ZM366.642 494.828H368.602C369.504 494.828 370.252 494.654 370.845 494.306C371.438 493.958 371.88 493.463 372.171 492.82C372.462 492.177 372.608 491.412 372.608 490.524C372.608 489.643 372.464 488.885 372.176 488.25C371.889 487.61 371.459 487.12 370.887 486.779C370.316 486.435 369.604 486.263 368.751 486.263H366.642V494.828Z" fill="black"/>
<path d="M345 517.706C345 520.858 347.555 523.412 350.706 523.412C353.857 523.412 356.412 520.858 356.412 517.706C356.412 514.555 353.857 512 350.706 512C347.555 512 345 514.555 345 517.706Z" fill="black"/>
<path d="M360.321 521V510.091H366.905V511.263H361.642V514.949H366.564V516.121H361.642V519.828H366.99V521H360.321Z" fill="black"/>
<path d="M289.856 538.15C289.856 541.301 292.41 543.856 295.562 543.856C298.713 543.856 301.268 541.301 301.268 538.15C301.268 534.998 298.713 532.443 295.562 532.443C292.41 532.443 289.856 534.998 289.856 538.15Z" fill="black"/>
<path d="M304.321 543V532.091H310.862V533.263H305.642V536.949H310.372V538.121H305.642V543H304.321Z" fill="black"/>
<path d="M245 517.974C245 521.126 247.555 523.68 250.706 523.68C253.858 523.68 256.412 521.126 256.412 517.974C256.412 514.823 253.858 512.268 250.706 512.268C247.555 512.268 245 514.823 245 517.974Z" fill="black"/>
<path d="M266.778 515.5C266.661 515.141 266.507 514.82 266.315 514.536C266.127 514.248 265.901 514.003 265.638 513.801C265.379 513.598 265.085 513.444 264.754 513.337C264.424 513.231 264.062 513.178 263.668 513.178C263.021 513.178 262.434 513.344 261.904 513.678C261.375 514.012 260.955 514.504 260.642 515.154C260.33 515.804 260.173 516.601 260.173 517.545C260.173 518.49 260.331 519.287 260.647 519.937C260.963 520.587 261.391 521.079 261.931 521.413C262.471 521.746 263.078 521.913 263.753 521.913C264.378 521.913 264.928 521.78 265.404 521.514C265.884 521.244 266.256 520.864 266.523 520.374C266.793 519.88 266.928 519.3 266.928 518.632L267.332 518.717H264.051V517.545H268.206V518.717C268.206 519.616 268.014 520.397 267.631 521.061C267.251 521.725 266.725 522.24 266.054 522.606C265.386 522.968 264.619 523.149 263.753 523.149C262.787 523.149 261.938 522.922 261.207 522.467C260.479 522.013 259.911 521.366 259.502 520.528C259.097 519.69 258.895 518.696 258.895 517.545C258.895 516.683 259.01 515.907 259.241 515.218C259.475 514.525 259.806 513.936 260.232 513.449C260.658 512.963 261.162 512.59 261.745 512.331C262.327 512.071 262.968 511.942 263.668 511.942C264.243 511.942 264.779 512.029 265.276 512.203C265.777 512.373 266.223 512.616 266.613 512.933C267.007 513.245 267.336 513.62 267.599 514.056C267.862 514.49 268.043 514.971 268.142 515.5H266.778Z" fill="black"/>
<path d="M204 488.974C204 492.126 206.555 494.68 209.706 494.68C212.858 494.68 215.412 492.126 215.412 488.974C215.412 485.823 212.858 483.268 209.706 483.268C206.555 483.268 204 485.823 204 488.974Z" fill="black"/>
<path d="M219.321 494V483.091H220.642V487.949H226.459V483.091H227.78V494H226.459V489.121H220.642V494H219.321Z" fill="black"/>
<path d="M187.144 459.531C187.144 462.682 189.699 465.237 192.85 465.237C196.002 465.237 198.557 462.682 198.557 459.531C198.557 456.379 196.002 453.825 192.85 453.825C189.699 453.825 187.144 456.379 187.144 459.531Z" fill="black"/>
<path d="M202.642 454.091V465H201.321V454.091H202.642Z" fill="black"/>
<path d="M189.681 402.469C189.681 405.62 192.235 408.175 195.387 408.175C198.538 408.175 201.093 405.62 201.093 402.469C201.093 399.317 198.538 396.763 195.387 396.763C192.235 396.763 189.681 399.317 189.681 402.469Z" fill="black"/>
<path d="M208.497 396.091H209.818V403.889C209.818 404.585 209.69 405.176 209.435 405.663C209.179 406.15 208.819 406.519 208.353 406.771C207.888 407.023 207.339 407.149 206.707 407.149C206.111 407.149 205.58 407.041 205.115 406.824C204.65 406.604 204.284 406.292 204.017 405.887C203.751 405.482 203.618 405.001 203.618 404.443H204.918C204.918 404.752 204.994 405.022 205.147 405.253C205.303 405.48 205.516 405.658 205.786 405.786C206.056 405.913 206.363 405.977 206.707 405.977C207.087 405.977 207.411 405.897 207.677 405.738C207.943 405.578 208.146 405.343 208.284 405.034C208.426 404.722 208.497 404.34 208.497 403.889V396.091Z" fill="black"/>
<path d="M202.361 358.088C202.361 361.239 204.916 363.794 208.067 363.794C211.219 363.794 213.773 361.239 213.773 358.088C213.773 354.936 211.219 352.382 208.067 352.382C204.916 352.382 202.361 354.936 202.361 358.088Z" fill="black"/>
<path d="M218.321 363V352.091H219.642V357.503H219.77L224.67 352.091H226.396L221.815 357.013L226.396 363H224.798L221.006 357.929L219.642 359.463V363H218.321Z" fill="black"/>
<path d="M155.443 320.046C155.443 323.198 157.998 325.752 161.15 325.752C164.301 325.752 166.856 323.198 166.856 320.046C166.856 316.895 164.301 314.34 161.15 314.34C157.998 314.34 155.443 316.895 155.443 320.046Z" fill="black"/>
<path d="M170.321 325V314.091H171.642V323.828H176.713V325H170.321Z" fill="black"/>
<path d="M148 262.974C148 266.126 150.555 268.68 153.706 268.68C156.858 268.68 159.412 266.126 159.412 262.974C159.412 259.823 156.858 257.268 153.706 257.268C150.555 257.268 148 259.823 148 262.974Z" fill="black"/>
<path d="M162.321 257.091H163.898L167.605 266.146H167.733L171.44 257.091H173.017V268H171.781V259.712H171.675L168.266 268H167.072L163.663 259.712H163.557V268H162.321V257.091Z" fill="black"/>
<path d="M159 205.655C159 208.806 161.555 211.361 164.706 211.361C167.858 211.361 170.412 208.806 170.412 205.655C170.412 202.503 167.858 199.948 164.706 199.948C161.555 199.948 159 202.503 159 205.655Z" fill="black"/>
<path d="M184.405 200.091V211H183.126L177.182 202.435H177.075V211H175.754V200.091H177.032L182.998 208.678H183.105V200.091H184.405Z" fill="black"/>
<path d="M190 156.974C190 160.126 192.555 162.68 195.706 162.68C198.858 162.68 201.412 160.126 201.412 156.974C201.412 153.823 198.858 151.268 195.706 151.268C192.555 151.268 190 153.823 190 156.974Z" fill="black"/>
<path d="M213.526 156.545C213.526 157.696 213.318 158.69 212.902 159.528C212.487 160.366 211.917 161.013 211.192 161.467C210.468 161.922 209.641 162.149 208.71 162.149C207.78 162.149 206.952 161.922 206.228 161.467C205.504 161.013 204.934 160.366 204.518 159.528C204.103 158.69 203.895 157.696 203.895 156.545C203.895 155.395 204.103 154.401 204.518 153.562C204.934 152.724 205.504 152.078 206.228 151.624C206.952 151.169 207.78 150.942 208.71 150.942C209.641 150.942 210.468 151.169 211.192 151.624C211.917 152.078 212.487 152.724 212.902 153.562C213.318 154.401 213.526 155.395 213.526 156.545ZM212.247 156.545C212.247 155.601 212.089 154.804 211.773 154.154C211.461 153.504 211.036 153.012 210.5 152.678C209.967 152.344 209.371 152.178 208.71 152.178C208.05 152.178 207.451 152.344 206.915 152.678C206.382 153.012 205.958 153.504 205.642 154.154C205.33 154.804 205.173 155.601 205.173 156.545C205.173 157.49 205.33 158.287 205.642 158.937C205.958 159.587 206.382 160.079 206.915 160.413C207.451 160.746 208.05 160.913 208.71 160.913C209.371 160.913 209.967 160.746 210.5 160.413C211.036 160.079 211.461 159.587 211.773 158.937C212.089 158.287 212.247 157.49 212.247 156.545Z" fill="black"/>
<path d="M240.402 117.16C240.402 120.311 242.957 122.866 246.108 122.866C249.26 122.866 251.814 120.311 251.814 117.16C251.814 114.008 249.26 111.454 246.108 111.454C242.957 111.454 240.402 114.008 240.402 117.16Z" fill="black"/>
<path d="M255.321 122V111.091H259.007C259.863 111.091 260.563 111.245 261.106 111.554C261.653 111.86 262.058 112.273 262.32 112.795C262.583 113.317 262.714 113.9 262.714 114.543C262.714 115.185 262.583 115.77 262.32 116.295C262.061 116.821 261.66 117.24 261.116 117.552C260.573 117.861 259.877 118.016 259.028 118.016H256.386V116.844H258.986C259.572 116.844 260.042 116.743 260.397 116.54C260.752 116.338 261.01 116.064 261.17 115.72C261.333 115.372 261.415 114.979 261.415 114.543C261.415 114.106 261.333 113.715 261.17 113.371C261.01 113.026 260.751 112.756 260.392 112.561C260.033 112.362 259.558 112.263 258.964 112.263H256.642V122H255.321Z" fill="black"/>
<path d="M331.701 118.428C331.701 121.579 334.256 124.134 337.407 124.134C340.559 124.134 343.114 121.579 343.114 118.428C343.114 115.276 340.559 112.722 337.407 112.722C334.256 112.722 331.701 115.276 331.701 118.428Z" fill="black"/>
<path d="M351.284 119.591H352.733L353.947 121.189L354.267 121.615L356.078 124.023H354.629L353.436 122.425L353.138 122.02L351.284 119.591ZM356.526 117.545C356.526 118.696 356.318 119.69 355.902 120.528C355.487 121.366 354.917 122.013 354.192 122.467C353.468 122.922 352.641 123.149 351.71 123.149C350.78 123.149 349.952 122.922 349.228 122.467C348.504 122.013 347.934 121.366 347.518 120.528C347.103 119.69 346.895 118.696 346.895 117.545C346.895 116.395 347.103 115.401 347.518 114.562C347.934 113.724 348.504 113.078 349.228 112.624C349.952 112.169 350.78 111.942 351.71 111.942C352.641 111.942 353.468 112.169 354.192 112.624C354.917 113.078 355.487 113.724 355.902 114.562C356.318 115.401 356.526 116.395 356.526 117.545ZM355.247 117.545C355.247 116.601 355.089 115.804 354.773 115.154C354.461 114.504 354.036 114.012 353.5 113.678C352.967 113.344 352.371 113.178 351.71 113.178C351.05 113.178 350.451 113.344 349.915 113.678C349.382 114.012 348.958 114.504 348.642 115.154C348.33 115.804 348.173 116.601 348.173 117.545C348.173 118.49 348.33 119.287 348.642 119.937C348.958 120.587 349.382 121.079 349.915 121.413C350.451 121.746 351.05 121.913 351.71 121.913C352.371 121.913 352.967 121.746 353.5 121.413C354.036 121.079 354.461 120.587 354.773 119.937C355.089 119.287 355.247 118.49 355.247 117.545Z" fill="black"/>
<path d="M377.351 146.325C377.351 149.476 379.905 152.031 383.057 152.031C386.208 152.031 388.763 149.476 388.763 146.325C388.763 143.173 386.208 140.619 383.057 140.619C379.905 140.619 377.351 143.173 377.351 146.325Z" fill="black"/>
<path d="M391.321 151V140.091H395.007C395.859 140.091 396.559 140.237 397.106 140.528C397.653 140.815 398.058 141.211 398.32 141.716C398.583 142.22 398.714 142.793 398.714 143.436C398.714 144.079 398.583 144.649 398.32 145.146C398.058 145.643 397.654 146.034 397.111 146.318C396.568 146.598 395.874 146.739 395.028 146.739H392.045V145.545H394.986C395.568 145.545 396.037 145.46 396.392 145.29C396.751 145.119 397.01 144.878 397.17 144.565C397.333 144.249 397.415 143.873 397.415 143.436C397.415 142.999 397.333 142.618 397.17 142.291C397.006 141.964 396.745 141.712 396.387 141.534C396.028 141.353 395.554 141.263 394.964 141.263H392.642V151H391.321ZM396.456 146.099L399.141 151H397.607L394.964 146.099H396.456Z" fill="black"/>
<path d="M425.536 204.655C425.536 207.806 428.091 210.361 431.242 210.361C434.394 210.361 436.948 207.806 436.948 204.655C436.948 201.503 434.394 198.948 431.242 198.948C428.091 198.948 425.536 201.503 425.536 204.655Z" fill="black"/>
<path d="M421.287 201.818C421.223 201.278 420.964 200.859 420.509 200.561C420.055 200.263 419.497 200.114 418.837 200.114C418.354 200.114 417.931 200.192 417.569 200.348C417.21 200.504 416.93 200.719 416.727 200.993C416.528 201.266 416.429 201.577 416.429 201.925C416.429 202.216 416.498 202.466 416.637 202.676C416.779 202.882 416.96 203.054 417.18 203.192C417.4 203.327 417.631 203.439 417.873 203.528C418.114 203.613 418.336 203.683 418.538 203.736L419.646 204.034C419.93 204.109 420.246 204.212 420.594 204.343C420.946 204.474 421.282 204.654 421.601 204.881C421.924 205.105 422.191 205.392 422.4 205.744C422.61 206.096 422.714 206.527 422.714 207.038C422.714 207.628 422.56 208.161 422.251 208.636C421.946 209.112 421.498 209.49 420.909 209.771C420.323 210.051 419.611 210.192 418.773 210.192C417.991 210.192 417.315 210.066 416.743 209.814C416.175 209.561 415.728 209.21 415.401 208.759C415.078 208.308 414.895 207.784 414.852 207.188H416.216C416.251 207.599 416.39 207.94 416.631 208.21C416.876 208.477 417.185 208.675 417.558 208.807C417.935 208.935 418.339 208.999 418.773 208.999C419.277 208.999 419.73 208.917 420.131 208.754C420.532 208.587 420.85 208.356 421.085 208.061C421.319 207.763 421.436 207.415 421.436 207.017C421.436 206.655 421.335 206.36 421.132 206.133C420.93 205.906 420.664 205.721 420.333 205.579C420.003 205.437 419.646 205.312 419.263 205.206L417.92 204.822C417.068 204.577 416.393 204.228 415.896 203.773C415.399 203.319 415.151 202.724 415.151 201.989C415.151 201.378 415.316 200.845 415.646 200.391C415.98 199.933 416.427 199.577 416.988 199.325C417.553 199.07 418.183 198.942 418.879 198.942C419.582 198.942 420.207 199.068 420.754 199.32C421.301 199.569 421.734 199.909 422.054 200.343C422.377 200.776 422.548 201.268 422.565 201.818H421.287Z" fill="black"/>
<path d="M433.144 255.376C433.144 258.528 435.699 261.083 438.85 261.083C442.002 261.083 444.557 258.528 444.557 255.376C444.557 252.225 442.002 249.67 438.85 249.67C435.699 249.67 433.144 252.225 433.144 255.376Z" fill="black"/>
<path d="M421.724 250.263V249.091H429.906V250.263H426.476V260H425.155V250.263H421.724Z" fill="black"/>
<path d="M424.268 318.778C424.268 321.93 426.823 324.485 429.974 324.485C433.126 324.485 435.68 321.93 435.68 318.778C435.68 315.627 433.126 313.072 429.974 313.072C426.823 313.072 424.268 315.627 424.268 318.778Z" fill="black"/>
<path d="M445.48 313.091H446.801V320.314C446.801 321.06 446.625 321.725 446.274 322.311C445.926 322.894 445.434 323.354 444.798 323.691C444.163 324.025 443.417 324.192 442.561 324.192C441.705 324.192 440.96 324.025 440.324 323.691C439.688 323.354 439.195 322.894 438.843 322.311C438.495 321.725 438.321 321.06 438.321 320.314V313.091H439.642V320.207C439.642 320.74 439.759 321.214 439.994 321.63C440.228 322.042 440.562 322.366 440.995 322.604C441.432 322.839 441.954 322.956 442.561 322.956C443.168 322.956 443.69 322.839 444.127 322.604C444.564 322.366 444.898 322.042 445.129 321.63C445.363 321.214 445.48 320.74 445.48 320.207V313.091Z" fill="black"/>
<path d="M381 352.778C381 355.93 383.555 358.485 386.706 358.485C389.858 358.485 392.412 355.93 392.412 352.778C392.412 349.627 389.858 347.072 386.706 347.072C383.555 347.072 381 349.627 381 352.778Z" fill="black"/>
<path d="M395.5 347.091L398.739 356.274H398.867L402.106 347.091H403.49L399.485 358H398.121L394.115 347.091H395.5Z" fill="black"/>
</g>
<defs>
<clipPath id="clip0_9_1187">
<rect width="600" height="600" fill="white"/>
</clipPath>
</defs>
</svg>
