<svg width="600" height="600" viewBox="0 0 600 600" fill="none" xmlns="http://www.w3.org/2000/svg">
<g clip-path="url(#clip0_104_21)">
<path d="M389.877 502.431C432.167 479.327 452.731 459.953 484.545 415.467C441.153 383.616 416.896 375.68 373.681 368.53L389.877 502.431Z" fill="#FAA1B7"/>
<path d="M399.462 470.096C422.045 457.686 433.045 447.312 450.095 423.529C427.05 406.651 414.145 402.476 391.138 398.763L399.462 470.096Z" fill="#F7C1CE"/>
<path fill-rule="evenodd" clip-rule="evenodd" d="M492.915 413.738L488.397 410.426C466.52 394.388 449.221 384.2 431.772 377.147C414.325 370.094 396.983 366.28 375.227 362.729L367.239 361.425L385.061 511.671L392.528 507.579C413.989 495.816 430.193 484.873 445.12 471.089C460.013 457.337 473.434 440.942 489.501 418.505L492.915 413.738ZM476.634 416.73C462.333 436.374 450.353 450.653 437.398 462.615C425.165 473.911 411.908 483.284 394.739 493.143L380.808 375.693C398.453 378.819 412.731 382.333 426.951 388.081C442.083 394.198 457.37 402.937 476.634 416.73Z" fill="#F094A7"/>
<path d="M502.188 151.448C483.666 158.633 412.209 196.349 412.209 196.349C412.209 196.349 410.953 115.762 403.955 96.9352C401.608 90.6226 403.527 81.8852 410.368 78.6515C416.896 75.5654 421.952 78.1386 428.005 84.2057C437.313 93.5361 443.755 114.053 443.755 114.053C443.755 114.053 452.603 91.0103 462.495 79.0867C468.766 71.5278 473.651 69.9509 480.217 73.1407C487.023 76.447 487.329 82.5848 486.057 91.6153C483.857 107.233 467.211 127.335 467.211 127.335C467.211 127.335 487.689 125.432 500.736 123.615C506.216 122.852 513.621 129.057 514.303 136.27C515.018 143.821 507.696 149.312 502.188 151.448Z" fill="#FBE2E8" stroke="#F094A7" stroke-width="5"/>
<path d="M479.265 299.803C469.074 282.749 419.902 218.634 419.902 218.634C419.902 218.634 499.136 203.874 516.521 193.815C522.35 190.442 531.285 190.867 535.621 197.069C539.759 202.987 538.071 208.403 533.106 215.388C525.469 226.13 506.324 235.923 506.324 235.923C506.324 235.923 530.525 240.779 543.94 248.53C552.444 253.444 554.818 257.994 552.775 265.003C550.658 272.267 544.659 273.599 535.543 273.86C519.777 274.312 497.167 261.276 497.167 261.276C497.167 261.276 502.48 281.144 506.46 293.701C508.132 298.975 503.257 307.316 496.261 309.2C488.938 311.171 482.295 304.874 479.265 299.803Z" fill="#FBE2E8" stroke="#F094A7" stroke-width="5"/>
<path d="M530.363 242.561C507.897 233.02 411.763 205.117 411.763 205.117C411.763 205.117 486.999 132.232 498.905 109.433C502.897 101.789 512.792 95.6552 521.638 98.6623C530.081 101.532 531.92 108.177 531.294 118.793C530.332 135.118 516.354 158.944 516.354 158.944C516.354 158.944 545.653 146.028 565.307 143.919C577.766 142.582 583.39 145.382 585.923 153.876C588.548 162.68 582.995 168.412 573.37 175.364C556.723 187.386 523.615 190.968 523.615 190.968C523.615 190.968 542.734 206.9 555.487 216.511C560.844 220.548 561.23 232.451 554.978 239.466C548.434 246.808 537.043 245.398 530.363 242.561Z" fill="#F7C1CE" stroke="#F094A7" stroke-width="5"/>
<path d="M97.8118 152.968C116.334 160.153 187.791 197.868 187.791 197.868C187.791 197.868 189.047 117.281 196.045 98.4548C198.392 92.1423 196.473 83.4048 189.632 80.1711C183.104 77.0851 178.048 79.6583 171.995 85.7254C162.687 95.0558 156.245 115.573 156.245 115.573C156.245 115.573 147.397 92.5299 137.505 80.6063C131.234 73.0474 126.349 71.4706 119.783 74.6604C112.977 77.9666 112.671 84.1044 113.943 93.135C116.143 108.753 132.789 128.854 132.789 128.854C132.789 128.854 112.311 126.951 99.2635 125.134C93.7837 124.371 86.3794 130.577 85.6966 137.79C84.9819 145.34 92.3044 150.832 97.8118 152.968Z" fill="#FBE2E8" stroke="#F094A7" stroke-width="5"/>
<path d="M120.735 301.324C130.926 284.27 180.098 220.155 180.098 220.155C180.098 220.155 100.864 205.394 83.4792 195.335C77.65 191.963 68.7145 192.388 64.3787 198.589C60.2409 204.507 61.9292 209.923 66.8945 216.908C74.5306 227.65 93.676 237.444 93.676 237.444C93.676 237.444 69.4748 242.299 56.0602 250.05C47.5561 254.964 45.182 259.515 47.2246 266.523C49.3419 273.788 55.3413 275.119 64.4573 275.381C80.2226 275.833 102.833 262.796 102.833 262.796C102.833 262.796 97.52 282.665 93.5395 295.222C91.8677 300.496 96.7426 308.837 103.739 310.72C111.062 312.692 117.705 306.395 120.735 301.324Z" fill="#FBE2E8" stroke="#F094A7" stroke-width="5"/>
<path d="M69.637 244.082C92.1026 234.54 188.237 206.637 188.237 206.637C188.237 206.637 113.001 133.753 101.095 110.954C97.1029 103.309 87.2082 97.1756 78.3618 100.183C69.9192 103.052 68.0801 109.697 68.7058 120.313C69.6681 136.639 83.6458 160.465 83.6458 160.465C83.6458 160.465 54.3474 147.549 34.6933 145.44C22.2336 144.102 16.6102 146.902 14.0775 155.396C11.4523 164.201 17.0046 169.933 26.6302 176.884C43.2767 188.906 76.3848 192.489 76.3848 192.489C76.3848 192.489 57.2657 208.42 44.5126 218.032C39.1562 222.069 38.7701 233.971 45.022 240.986C51.566 248.329 62.9572 246.919 69.637 244.082Z" fill="#F7C1CE" stroke="#F094A7" stroke-width="5"/>
<path d="M216.442 528.23C248.361 524.43 300.8 516.07 300.8 516.07C300.8 516.07 272.929 499.228 252.921 495.551C236.575 492.546 222.478 487.789 206.424 492.09C193.504 495.551 182.233 503.04 183.763 516.07C185.352 529.594 202.921 529.839 216.442 528.23Z" fill="#FBE2E8" stroke="#F094A7" stroke-width="5"/>
<path d="M374.378 528.23C342.459 524.43 290.02 516.07 290.02 516.07C290.02 516.07 317.892 499.228 337.899 495.551C354.245 492.546 368.342 487.789 384.397 492.09C397.316 495.551 408.587 503.04 407.057 516.07C405.469 529.594 387.899 529.839 374.378 528.23Z" fill="#FBE2E8" stroke="#F094A7" stroke-width="5"/>
<path d="M213.453 342.547C211.302 348.549 174.92 451.405 204.332 495.524C236.251 543.403 361.65 549.482 387.488 495.524C413.326 441.566 378.371 347.127 376.088 342.547C376.088 342.547 215.266 337.491 213.453 342.547Z" fill="#FBE2E8" stroke="#F094A7" stroke-width="5"/>
<path d="M355.569 441.566C355.569 492.772 328.348 528.369 294.771 528.369C261.193 528.369 233.972 492.772 233.972 441.566C233.972 390.36 266.803 360.285 294.771 348.849C321.522 361.102 355.569 390.36 355.569 441.566Z" fill="#F7C1CE"/>
<path d="M445.056 254.777C445.056 335.364 378.366 373.333 296.1 373.333C213.834 373.333 147.145 335.364 147.145 254.777C147.145 174.19 213.834 108.861 296.1 108.861C378.366 108.861 445.056 174.19 445.056 254.777Z" fill="#FBE2E8" stroke="#F094A7" stroke-width="5"/>
<path d="M276.53 322.857C276.53 322.857 282.793 328.319 287.473 327.873C291.365 327.502 296.137 322.857 296.137 322.857C296.137 322.857 300.899 327.634 304.801 327.873C309.173 328.141 314.832 322.857 314.832 322.857" stroke="#F094A7" stroke-width="5" stroke-linecap="round"/>
<ellipse cx="222.226" cy="296.047" rx="20.1719" ry="9.06133" fill="#F7C1CF"/>
<ellipse cx="374.157" cy="296.386" rx="20.1719" ry="9.06133" transform="rotate(-2.27638 374.157 296.386)" fill="#F7C1CF"/>
<ellipse cx="27.7732" cy="32.8383" rx="27.7732" ry="32.8383" transform="matrix(-0.953838 0.300322 0.215795 0.976439 377.631 207.365)" fill="black" stroke="#504B4F"/>
<ellipse cx="7.90173" cy="6.77223" rx="7.90173" ry="6.77223" transform="matrix(-0.82516 0.564899 0.575712 0.817653 351.255 226.271)" fill="white" stroke="#504B4F"/>
<ellipse cx="27.7732" cy="32.8383" rx="27.7732" ry="32.8383" transform="matrix(-0.953838 0.300322 0.215795 0.976439 251.085 205.834)" fill="black" stroke="#504B4F"/>
<ellipse cx="7.90173" cy="6.77223" rx="7.90173" ry="6.77223" transform="matrix(-0.82516 0.564899 0.575712 0.817653 224.709 224.74)" fill="white" stroke="#504B4F"/>
<path d="M233.973 436.245C233.945 426.589 234.511 419.156 236.252 412.686C236.252 412.686 269.695 442.325 266.655 447.645C264.049 452.205 233.973 436.245 233.973 436.245Z" fill="#FBE2E8"/>
<path d="M355.569 437.765C355.597 428.109 354.27 422.196 352.529 415.726C352.529 415.726 320.857 444.605 323.897 449.925C326.503 454.485 355.569 437.765 355.569 437.765Z" fill="#FBE2E8"/>
<path d="M226.676 400.527C226.676 400.527 282.342 443.99 267.715 450.686C257.474 455.373 216.036 430.926 216.036 430.926" stroke="#F094A7" stroke-width="5"/>
<path d="M365.617 400.527C365.617 400.527 309.951 443.99 324.579 450.686C334.819 455.373 376.257 430.926 376.257 430.926" stroke="#F094A7" stroke-width="5"/>
</g>
<defs>
<clipPath id="clip0_104_21">
<rect width="600" height="600" fill="white"/>
</clipPath>
</defs>
</svg>
