<svg width="600" height="600" viewBox="0 0 600 600" fill="none" xmlns="http://www.w3.org/2000/svg">
<path d="M76.9058 137.283C71.1615 99.9452 63.359 99.1945 55.3646 87.7385" stroke="black" stroke-width="8" stroke-linecap="round"/>
<path d="M56.8005 144.464C42.4397 109.998 35.7722 113.746 24.1427 106.006" stroke="black" stroke-width="8" stroke-linecap="round"/>
<path d="M473.265 423.772C449.569 422.346 478.41 425.218 490.446 423.772C508.099 421.651 518.131 423.606 534.405 416.446C547.488 410.689 564.131 401.259 579.934 395.513C608.717 385.046 546.621 444.235 528.649 455.171C509.067 467.087 499.008 471.997 478.41 478.721C463.848 483.474 455.115 484.096 440.207 487.617C425.686 491.047 417.73 493.84 403.051 496.514C385.444 499.722 375.23 499.147 357.522 501.747C335.512 504.979 323.694 510.344 301.527 512.214C282.995 513.776 272.502 512.214 253.905 512.214C242.664 512.214 236.362 512.214 225.122 512.214C213.064 512.214 206.304 512.214 194.246 512.214C179.736 512.214 171.405 514.586 157.09 512.214C134.263 508.43 120.78 502.647 103.188 487.617C83.0416 470.406 76.6426 454.62 68.1252 429.529C62.0555 411.648 59.2653 400.783 59.7521 381.906C60.1768 365.439 65.7528 356.865 68.1252 340.564C74.3062 298.094 68.1252 230.666 68.1252 230.666C68.1252 230.666 63.022 230.666 59.7521 230.666C50.7598 230.666 45.3375 233.255 36.7259 230.666C26.1174 227.477 17.3162 224.034 14.2231 213.397C10.8509 201.8 14.8862 191.82 21.0262 180.427C28.774 166.052 39.4409 159.436 52.4257 151.645C62.8921 145.365 75.9752 141.178 86.4417 141.178C94.5781 141.178 111.511 145.946 117.318 151.645C123.583 157.793 130.678 168.734 135.634 181.474C143.442 201.546 140.344 215.144 140.344 236.423C140.344 274.102 152.3 293.999 152.3 331.155C152.3 350.574 193.228 380.7 175.277 364.185" stroke="black" stroke-width="5"/>
<path d="M25.7361 225.604C43.4294 224.421 52.7943 221.063 68.7095 210.257" stroke="black" stroke-width="5" stroke-linecap="round"/>
<ellipse cx="11.5131" cy="9.94312" rx="11.5131" ry="9.94312" transform="matrix(-1 0 0 1 65.5085 171.531)" fill="black"/>
<circle cx="2.61661" cy="2.61661" r="2.61661" transform="matrix(-1 0 0 1 50.8555 176.764)" fill="white"/>
<!--<path d="M346.172 326.846L324.63 355.568" stroke="#7B79E2" stroke-width="3" stroke-linecap="round"/>
<path d="M324.63 357.004V391.47" stroke="#7B79E2" stroke-width="3" stroke-linecap="round"/>
 <path d="M326.066 391.47L367.713 407.267" stroke="#7B79E2" stroke-width="3" stroke-linecap="round"/>
<path d="M369.149 405.831L402.179 392.906" stroke="#7B79E2" stroke-width="3" stroke-linecap="round"/>
<path d="M400.742 392.906L420.848 358.44" stroke="#7B79E2" stroke-width="3" stroke-linecap="round"/>
<path d="M419.411 358.44L415.103 322.538" stroke="#7B79E2" stroke-width="3" stroke-linecap="round"/>
<path d="M415.103 321.102L397.87 288.072" stroke="#7B79E2" stroke-width="3" stroke-linecap="round"/>
<path d="M397.87 288.072L360.532 262.223" stroke="#7B79E2" stroke-width="3" stroke-linecap="round"/>
<path d="M359.096 262.223L311.705 266.531" stroke="#7B79E2" stroke-width="3" stroke-linecap="round"/>
<path d="M310.269 267.967L274.367 283.764" stroke="#7B79E2" stroke-width="3" stroke-linecap="round"/>
<path d="M274.367 285.2L252.826 315.358" stroke="#7B79E2" stroke-width="3" stroke-linecap="round"/>
<path d="M254.262 316.794L248.518 355.568" stroke="#7B79E2" stroke-width="3" stroke-linecap="round"/>
<path d="M249.954 352.696L251.39 394.343" stroke="#7B79E2" stroke-width="3" stroke-linecap="round"/>
<path d="M251.39 397.215L265.751 435.989" stroke="#7B79E2" stroke-width="3" stroke-linecap="round"/>
<path d="M265.751 435.989L316.014 456.094" stroke="#7B79E2" stroke-width="3" stroke-linecap="round"/>
<path d="M314.578 456.094L373.457 460.402" stroke="#7B79E2" stroke-width="3" stroke-linecap="round"/>
<path d="M372.021 461.838L415.103 447.478" stroke="#7B79E2" stroke-width="3" stroke-linecap="round"/>
<path d="M415.103 447.477L453.877 414.448" stroke="#7B79E2" stroke-width="3" stroke-linecap="round"/>
<path d="M453.877 415.884L484.035 368.493" stroke="#7B79E2" stroke-width="3" stroke-linecap="round"/>
<path d="M482.599 368.493L484.035 308.177" stroke="#7B79E2" stroke-width="3" stroke-linecap="round"/>
<path d="M484.035 308.177L459.622 262.223" stroke="#7B79E2" stroke-width="3" stroke-linecap="round"/>
<path d="M459.621 262.223L419.411 226.321" stroke="#7B79E2" stroke-width="3" stroke-linecap="round"/>
<path d="M420.848 226.321L373.457 204.78" stroke="#7B79E2" stroke-width="3" stroke-linecap="round"/>
<path d="M373.457 204.779L320.322 199.035" stroke="#7B79E2" stroke-width="3" stroke-linecap="round"/>
<path d="M321.758 199.035L255.698 222.012" stroke="#7B79E2" stroke-width="3" stroke-linecap="round"/>
<path d="M255.698 222.013L221.232 256.479" stroke="#7B79E2" stroke-width="3" stroke-linecap="round"/>
<path d="M221.232 255.042L196.819 299.561" stroke="#7B79E2" stroke-width="3" stroke-linecap="round"/>
<path d="M195.383 300.997L188.202 342.643" stroke="#7B79E2" stroke-width="3" stroke-linecap="round"/>
<path d="M188.202 342.644L186.766 387.162" stroke="#7B79E2" stroke-width="3" stroke-linecap="round"/>
<path d="M188.202 390.034L214.052 423.064" stroke="#7B79E2" stroke-width="3" stroke-linecap="round"/> -->
<path d="M226.047 421.416C225.344 421.416 224.717 421.295 224.167 421.054C223.62 420.813 223.185 420.477 222.862 420.047C222.542 419.614 222.368 419.112 222.34 418.54H223.682C223.711 418.891 223.831 419.195 224.044 419.451C224.258 419.703 224.536 419.898 224.881 420.037C225.225 420.175 225.607 420.244 226.026 420.244C226.495 420.244 226.91 420.163 227.272 419.999C227.635 419.836 227.919 419.609 228.125 419.318C228.331 419.026 228.434 418.689 228.434 418.305C228.434 417.904 228.334 417.551 228.135 417.245C227.936 416.936 227.645 416.695 227.262 416.521C226.878 416.347 226.409 416.26 225.856 416.26H224.982V415.088H225.856C226.289 415.088 226.669 415.01 226.995 414.854C227.326 414.697 227.583 414.477 227.768 414.193C227.956 413.909 228.05 413.575 228.05 413.192C228.05 412.822 227.968 412.501 227.805 412.228C227.642 411.954 227.411 411.741 227.113 411.588C226.818 411.436 226.47 411.359 226.069 411.359C225.692 411.359 225.337 411.429 225.003 411.567C224.673 411.702 224.403 411.899 224.194 412.158C223.984 412.414 223.87 412.723 223.853 413.085H222.574C222.596 412.514 222.768 412.013 223.091 411.583C223.414 411.15 223.837 410.813 224.359 410.571C224.884 410.33 225.461 410.209 226.09 410.209C226.765 410.209 227.343 410.346 227.826 410.619C228.309 410.889 228.68 411.246 228.94 411.69C229.199 412.134 229.329 412.613 229.329 413.128C229.329 413.742 229.167 414.266 228.844 414.699C228.524 415.133 228.089 415.433 227.539 415.599V415.685C228.228 415.798 228.766 416.091 229.153 416.564C229.54 417.032 229.733 417.613 229.733 418.305C229.733 418.898 229.572 419.431 229.249 419.903C228.929 420.372 228.492 420.742 227.938 421.011C227.384 421.281 226.754 421.416 226.047 421.416ZM235.747 410.358V421.267H234.426V411.743H234.362L231.699 413.511V412.169L234.426 410.358H235.747Z" fill="black"/>
<path d="M206.871 422.346C206.871 425.915 209.764 428.809 213.334 428.809C216.903 428.809 219.796 425.915 219.796 422.346C219.796 418.777 216.903 415.884 213.334 415.884C209.764 415.884 206.871 418.777 206.871 422.346Z" fill="black"/>
<path d="M181.022 389.316C181.022 392.885 183.915 395.779 187.484 395.779C191.053 395.779 193.947 392.885 193.947 389.316C193.947 385.747 191.053 382.854 187.484 382.854C183.915 382.854 181.022 385.747 181.022 389.316Z" fill="black"/>
<path d="M198.762 391.259C198.059 391.259 197.432 391.138 196.882 390.897C196.335 390.655 195.9 390.319 195.577 389.89C195.257 389.457 195.083 388.954 195.054 388.382H196.397C196.425 388.734 196.546 389.038 196.759 389.293C196.972 389.545 197.251 389.741 197.595 389.879C197.94 390.018 198.322 390.087 198.741 390.087C199.209 390.087 199.625 390.005 199.987 389.842C200.349 389.679 200.633 389.451 200.839 389.16C201.045 388.869 201.148 388.531 201.148 388.148C201.148 387.747 201.049 387.393 200.85 387.088C200.651 386.779 200.36 386.538 199.976 386.364C199.593 386.19 199.124 386.103 198.57 386.103H197.697V384.931H198.57C199.003 384.931 199.383 384.853 199.71 384.696C200.04 384.54 200.298 384.32 200.482 384.036C200.671 383.752 200.765 383.418 200.765 383.034C200.765 382.665 200.683 382.344 200.52 382.07C200.356 381.797 200.126 381.584 199.827 381.431C199.532 381.278 199.184 381.202 198.783 381.202C198.407 381.202 198.052 381.271 197.718 381.41C197.388 381.545 197.118 381.742 196.908 382.001C196.699 382.257 196.585 382.566 196.567 382.928H195.289C195.31 382.356 195.482 381.855 195.806 381.426C196.129 380.992 196.551 380.655 197.073 380.414C197.599 380.172 198.176 380.051 198.804 380.051C199.479 380.051 200.058 380.188 200.541 380.462C201.024 380.731 201.395 381.088 201.654 381.532C201.914 381.976 202.043 382.455 202.043 382.97C202.043 383.585 201.882 384.109 201.558 384.542C201.239 384.975 200.804 385.275 200.253 385.442V385.527C200.942 385.641 201.48 385.934 201.867 386.406C202.254 386.875 202.448 387.455 202.448 388.148C202.448 388.741 202.286 389.274 201.963 389.746C201.644 390.215 201.207 390.584 200.653 390.854C200.099 391.124 199.469 391.259 198.762 391.259ZM208.185 391.259C207.382 391.259 206.699 391.04 206.134 390.604C205.569 390.163 205.138 389.526 204.84 388.691C204.541 387.853 204.392 386.841 204.392 385.655C204.392 384.476 204.541 383.469 204.84 382.635C205.141 381.797 205.575 381.158 206.139 380.717C206.708 380.273 207.389 380.051 208.185 380.051C208.98 380.051 209.66 380.273 210.225 380.717C210.793 381.158 211.226 381.797 211.525 382.635C211.827 383.469 211.977 384.476 211.977 385.655C211.977 386.841 211.828 387.853 211.53 388.691C211.232 389.526 210.8 390.163 210.236 390.604C209.671 391.04 208.987 391.259 208.185 391.259ZM208.185 390.087C208.98 390.087 209.598 389.703 210.039 388.936C210.479 388.169 210.699 387.076 210.699 385.655C210.699 384.71 210.598 383.906 210.395 383.242C210.197 382.578 209.909 382.072 209.532 381.724C209.16 381.376 208.71 381.202 208.185 381.202C207.396 381.202 206.78 381.591 206.336 382.368C205.893 383.143 205.671 384.238 205.671 385.655C205.671 386.6 205.77 387.402 205.969 388.063C206.168 388.723 206.454 389.226 206.827 389.57C207.203 389.915 207.656 390.087 208.185 390.087Z" fill="black"/>
<path d="M181.022 341.925C181.022 345.494 183.915 348.388 187.484 348.388C191.053 348.388 193.947 345.494 193.947 341.925C193.947 338.356 191.053 335.463 187.484 335.463C183.915 335.463 181.022 338.356 181.022 341.925Z" fill="black"/>
<path d="M195.076 340.847V339.888L198.677 335.946C199.099 335.484 199.447 335.083 199.721 334.742C199.994 334.398 200.197 334.075 200.328 333.773C200.463 333.467 200.53 333.148 200.53 332.814C200.53 332.43 200.438 332.098 200.253 331.818C200.072 331.537 199.824 331.321 199.508 331.168C199.192 331.015 198.836 330.939 198.442 330.939C198.023 330.939 197.657 331.026 197.345 331.2C197.036 331.37 196.796 331.61 196.626 331.919C196.459 332.228 196.376 332.59 196.376 333.006H195.118C195.118 332.367 195.266 331.805 195.561 331.323C195.855 330.84 196.257 330.463 196.764 330.193C197.276 329.923 197.849 329.788 198.485 329.788C199.124 329.788 199.69 329.923 200.184 330.193C200.678 330.463 201.065 330.827 201.345 331.285C201.626 331.743 201.766 332.253 201.766 332.814C201.766 333.215 201.693 333.608 201.548 333.991C201.406 334.371 201.157 334.796 200.802 335.264C200.45 335.729 199.962 336.298 199.337 336.969L196.887 339.59V339.675H201.958V340.847H195.076ZM207.631 329.788C208.078 329.792 208.526 329.877 208.973 330.044C209.421 330.211 209.829 330.488 210.198 330.875C210.568 331.259 210.864 331.782 211.088 332.446C211.312 333.111 211.423 333.943 211.423 334.945C211.423 335.914 211.331 336.775 211.146 337.528C210.965 338.277 210.703 338.91 210.358 339.424C210.017 339.939 209.602 340.33 209.112 340.596C208.625 340.863 208.075 340.996 207.46 340.996C206.85 340.996 206.304 340.875 205.825 340.634C205.349 340.389 204.959 340.049 204.653 339.616C204.351 339.179 204.158 338.673 204.073 338.098H205.372C205.49 338.599 205.722 339.013 206.07 339.339C206.422 339.662 206.885 339.824 207.46 339.824C208.302 339.824 208.966 339.456 209.453 338.721C209.943 337.986 210.188 336.948 210.188 335.605H210.102C209.904 335.903 209.667 336.161 209.394 336.378C209.121 336.594 208.817 336.761 208.483 336.878C208.149 336.995 207.794 337.054 207.418 337.054C206.793 337.054 206.219 336.9 205.697 336.591C205.179 336.278 204.763 335.85 204.451 335.307C204.142 334.76 203.987 334.135 203.987 333.432C203.987 332.764 204.137 332.153 204.435 331.6C204.737 331.042 205.159 330.598 205.703 330.268C206.249 329.938 206.892 329.778 207.631 329.788ZM207.631 330.96C207.183 330.96 206.78 331.072 206.422 331.296C206.067 331.516 205.784 331.814 205.575 332.191C205.369 332.564 205.266 332.977 205.266 333.432C205.266 333.886 205.365 334.3 205.564 334.673C205.766 335.042 206.042 335.337 206.39 335.557C206.741 335.774 207.141 335.882 207.588 335.882C207.926 335.882 208.24 335.816 208.531 335.685C208.822 335.55 209.076 335.367 209.293 335.136C209.513 334.902 209.685 334.638 209.809 334.343C209.934 334.044 209.996 333.734 209.996 333.411C209.996 332.984 209.893 332.585 209.687 332.212C209.485 331.839 209.204 331.537 208.845 331.307C208.49 331.076 208.085 330.96 207.631 330.96Z" fill="black"/>
<path d="M189.638 300.279C189.638 303.848 192.532 306.741 196.101 306.741C199.67 306.741 202.563 303.848 202.563 300.279C202.563 296.71 199.67 293.817 196.101 293.817C192.532 293.817 189.638 296.71 189.638 300.279Z" fill="black"/>
<path d="M203.692 300.636V299.677L207.293 295.736C207.716 295.274 208.064 294.873 208.337 294.532C208.611 294.187 208.813 293.864 208.944 293.562C209.079 293.257 209.147 292.937 209.147 292.604C209.147 292.22 209.054 291.888 208.87 291.607C208.689 291.327 208.44 291.11 208.124 290.958C207.808 290.805 207.453 290.729 207.059 290.729C206.64 290.729 206.274 290.816 205.961 290.99C205.652 291.16 205.413 291.4 205.242 291.709C205.075 292.018 204.992 292.38 204.992 292.795H203.735C203.735 292.156 203.882 291.595 204.177 291.112C204.472 290.629 204.873 290.253 205.381 289.983C205.892 289.713 206.466 289.578 207.101 289.578C207.741 289.578 208.307 289.713 208.801 289.983C209.294 290.253 209.681 290.617 209.962 291.075C210.242 291.533 210.383 292.042 210.383 292.604C210.383 293.005 210.31 293.397 210.164 293.781C210.022 294.161 209.774 294.585 209.418 295.054C209.067 295.519 208.579 296.087 207.954 296.758L205.503 299.379V299.464H210.574V300.636H203.692ZM216.269 300.785C215.537 300.785 214.891 300.656 214.33 300.397C213.772 300.134 213.337 299.773 213.025 299.315C212.712 298.854 212.558 298.328 212.561 297.739C212.558 297.277 212.648 296.851 212.833 296.46C213.018 296.066 213.27 295.737 213.589 295.475C213.912 295.208 214.273 295.04 214.671 294.969V294.905C214.149 294.77 213.733 294.477 213.424 294.026C213.115 293.571 212.962 293.055 212.966 292.476C212.962 291.922 213.103 291.426 213.387 290.99C213.671 290.553 214.062 290.208 214.559 289.956C215.059 289.704 215.629 289.578 216.269 289.578C216.901 289.578 217.465 289.704 217.962 289.956C218.46 290.208 218.85 290.553 219.134 290.99C219.422 291.426 219.568 291.922 219.571 292.476C219.568 293.055 219.41 293.571 219.097 294.026C218.788 294.477 218.378 294.77 217.867 294.905V294.969C218.261 295.04 218.616 295.208 218.932 295.475C219.248 295.737 219.5 296.066 219.688 296.46C219.877 296.851 219.972 297.277 219.976 297.739C219.972 298.328 219.813 298.854 219.497 299.315C219.184 299.773 218.749 300.134 218.192 300.397C217.638 300.656 216.997 300.785 216.269 300.785ZM216.269 299.614C216.762 299.614 217.188 299.534 217.547 299.374C217.906 299.214 218.183 298.989 218.378 298.697C218.573 298.406 218.673 298.065 218.676 297.675C218.673 297.263 218.566 296.899 218.357 296.583C218.147 296.267 217.861 296.018 217.499 295.837C217.14 295.656 216.73 295.565 216.269 295.565C215.803 295.565 215.388 295.656 215.022 295.837C214.66 296.018 214.374 296.267 214.165 296.583C213.959 296.899 213.857 297.263 213.861 297.675C213.857 298.065 213.951 298.406 214.143 298.697C214.339 298.989 214.617 299.214 214.98 299.374C215.342 299.534 215.771 299.614 216.269 299.614ZM216.269 294.436C216.659 294.436 217.005 294.358 217.307 294.202C217.613 294.045 217.852 293.827 218.026 293.546C218.2 293.266 218.289 292.937 218.293 292.561C218.289 292.192 218.202 291.87 218.032 291.597C217.861 291.32 217.625 291.107 217.323 290.958C217.021 290.805 216.67 290.729 216.269 290.729C215.86 290.729 215.503 290.805 215.198 290.958C214.893 291.107 214.656 291.32 214.489 291.597C214.323 291.87 214.241 292.192 214.244 292.561C214.241 292.937 214.324 293.266 214.495 293.546C214.669 293.827 214.909 294.045 215.214 294.202C215.519 294.358 215.871 294.436 216.269 294.436Z" fill="black"/>
<path d="M215.488 255.76C215.488 259.33 218.381 262.223 221.95 262.223C225.519 262.223 228.412 259.33 228.412 255.76C228.412 252.191 225.519 249.298 221.95 249.298C218.381 249.298 215.488 252.191 215.488 255.76Z" fill="black"/>
<path d="M229.542 254.682V253.723L233.142 249.781C233.565 249.319 233.913 248.918 234.187 248.577C234.46 248.233 234.662 247.91 234.794 247.608C234.929 247.302 234.996 246.983 234.996 246.649C234.996 246.265 234.904 245.933 234.719 245.653C234.538 245.372 234.289 245.156 233.973 245.003C233.657 244.85 233.302 244.774 232.908 244.774C232.489 244.774 232.123 244.861 231.811 245.035C231.502 245.205 231.262 245.445 231.092 245.754C230.925 246.063 230.841 246.425 230.841 246.841H229.584C229.584 246.202 229.732 245.64 230.026 245.157C230.321 244.675 230.722 244.298 231.23 244.028C231.742 243.758 232.315 243.623 232.951 243.623C233.59 243.623 234.156 243.758 234.65 244.028C235.144 244.298 235.531 244.662 235.811 245.12C236.092 245.578 236.232 246.088 236.232 246.649C236.232 247.05 236.159 247.443 236.014 247.826C235.872 248.206 235.623 248.631 235.268 249.099C234.916 249.564 234.428 250.133 233.803 250.804L231.353 253.425V253.51H236.424V254.682H229.542ZM238.965 254.682L243.844 245.03V244.944H238.219V243.773H245.207V245.008L240.349 254.682H238.965Z" fill="black"/>
<path d="M249.954 222.73C249.954 226.3 252.847 229.193 256.416 229.193C259.985 229.193 262.878 226.3 262.878 222.73C262.878 219.161 259.985 216.268 256.416 216.268C252.847 216.268 249.954 219.161 249.954 222.73Z" fill="black"/>
<path d="M264.008 221.652V220.693L267.609 216.751C268.031 216.289 268.379 215.888 268.653 215.547C268.926 215.203 269.128 214.88 269.26 214.578C269.395 214.272 269.462 213.953 269.462 213.619C269.462 213.235 269.37 212.903 269.185 212.623C269.004 212.342 268.756 212.126 268.439 211.973C268.123 211.82 267.768 211.744 267.374 211.744C266.955 211.744 266.589 211.831 266.277 212.005C265.968 212.175 265.728 212.415 265.558 212.724C265.391 213.033 265.307 213.395 265.307 213.811H264.05C264.05 213.171 264.198 212.61 264.492 212.127C264.787 211.645 265.188 211.268 265.696 210.998C266.208 210.728 266.781 210.593 267.417 210.593C268.056 210.593 268.622 210.728 269.116 210.998C269.61 211.268 269.997 211.632 270.277 212.09C270.558 212.548 270.698 213.058 270.698 213.619C270.698 214.02 270.625 214.413 270.48 214.796C270.338 215.176 270.089 215.6 269.734 216.069C269.382 216.534 268.894 217.103 268.269 217.774L265.819 220.395V220.48H270.89V221.652H264.008ZM276.712 221.801C276.264 221.794 275.817 221.708 275.37 221.545C274.922 221.382 274.514 221.107 274.144 220.719C273.775 220.329 273.479 219.801 273.255 219.137C273.031 218.47 272.919 217.632 272.919 216.623C272.919 215.657 273.01 214.801 273.191 214.056C273.372 213.306 273.635 212.676 273.979 212.165C274.324 211.65 274.739 211.259 275.226 210.993C275.716 210.727 276.268 210.593 276.882 210.593C277.493 210.593 278.036 210.716 278.512 210.961C278.992 211.202 279.382 211.54 279.684 211.973C279.986 212.406 280.181 212.905 280.27 213.47H278.97C278.85 212.98 278.615 212.573 278.267 212.25C277.919 211.927 277.458 211.765 276.882 211.765C276.037 211.765 275.371 212.133 274.885 212.868C274.402 213.603 274.159 214.635 274.155 215.963H274.24C274.439 215.661 274.675 215.403 274.949 215.19C275.226 214.974 275.531 214.807 275.865 214.69C276.199 214.572 276.552 214.514 276.925 214.514C277.55 214.514 278.122 214.67 278.64 214.983C279.159 215.292 279.574 215.719 279.887 216.266C280.199 216.81 280.355 217.433 280.355 218.136C280.355 218.811 280.204 219.429 279.903 219.99C279.601 220.547 279.176 220.991 278.629 221.321C278.086 221.648 277.447 221.808 276.712 221.801ZM276.712 220.629C277.159 220.629 277.561 220.517 277.916 220.293C278.274 220.07 278.557 219.77 278.763 219.393C278.972 219.017 279.077 218.598 279.077 218.136C279.077 217.685 278.976 217.275 278.773 216.906C278.574 216.533 278.299 216.236 277.948 216.016C277.6 215.796 277.202 215.686 276.754 215.686C276.417 215.686 276.103 215.753 275.812 215.888C275.52 216.02 275.265 216.201 275.045 216.431C274.828 216.662 274.658 216.927 274.533 217.225C274.409 217.52 274.347 217.831 274.347 218.157C274.347 218.591 274.448 218.995 274.65 219.372C274.856 219.748 275.137 220.052 275.492 220.283C275.851 220.513 276.257 220.629 276.712 220.629Z" fill="black"/>
<path d="M313.141 198.317C313.141 201.886 316.034 204.779 319.604 204.779C323.173 204.779 326.066 201.886 326.066 198.317C326.066 194.748 323.173 191.855 319.604 191.855C316.034 191.855 313.141 194.748 313.141 198.317Z" fill="black"/>
<path d="M327.195 198.674V197.716L330.796 193.774C331.219 193.312 331.567 192.911 331.84 192.57C332.114 192.225 332.316 191.902 332.447 191.6C332.582 191.295 332.65 190.975 332.65 190.642C332.65 190.258 332.557 189.926 332.373 189.646C332.192 189.365 331.943 189.148 331.627 188.996C331.311 188.843 330.956 188.767 330.562 188.767C330.143 188.767 329.777 188.854 329.464 189.028C329.155 189.198 328.916 189.438 328.745 189.747C328.578 190.056 328.495 190.418 328.495 190.833H327.238C327.238 190.194 327.385 189.633 327.68 189.15C327.975 188.667 328.376 188.291 328.884 188.021C329.395 187.751 329.969 187.616 330.604 187.616C331.243 187.616 331.81 187.751 332.303 188.021C332.797 188.291 333.184 188.655 333.465 189.113C333.745 189.571 333.886 190.081 333.886 190.642C333.886 191.043 333.813 191.435 333.667 191.819C333.525 192.199 333.277 192.623 332.921 193.092C332.57 193.557 332.082 194.125 331.457 194.796L329.006 197.417V197.502H334.077V198.674H327.195ZM339.686 198.823C339.061 198.823 338.498 198.699 337.998 198.451C337.497 198.202 337.096 197.861 336.794 197.428C336.492 196.995 336.327 196.501 336.299 195.947H337.577C337.627 196.441 337.85 196.849 338.248 197.172C338.649 197.492 339.129 197.652 339.686 197.652C340.134 197.652 340.531 197.547 340.879 197.337C341.231 197.128 341.506 196.84 341.705 196.474C341.908 196.105 342.009 195.688 342.009 195.223C342.009 194.747 341.904 194.322 341.694 193.95C341.489 193.573 341.204 193.277 340.842 193.06C340.48 192.843 340.066 192.733 339.601 192.73C339.267 192.726 338.925 192.778 338.573 192.884C338.221 192.987 337.932 193.12 337.705 193.284L336.469 193.135L337.129 187.765H342.797V188.937H338.237L337.854 192.154H337.918C338.142 191.977 338.422 191.83 338.759 191.712C339.097 191.595 339.448 191.537 339.814 191.537C340.482 191.537 341.077 191.696 341.599 192.016C342.124 192.332 342.536 192.765 342.834 193.316C343.136 193.866 343.287 194.495 343.287 195.201C343.287 195.897 343.131 196.519 342.818 197.066C342.509 197.609 342.083 198.039 341.54 198.355C340.997 198.667 340.379 198.823 339.686 198.823Z" fill="black"/>
<path d="M367.713 204.061C367.713 207.631 370.606 210.524 374.175 210.524C377.744 210.524 380.638 207.631 380.638 204.061C380.638 200.492 377.744 197.599 374.175 197.599C370.606 197.599 367.713 200.492 367.713 204.061Z" fill="black"/>
<path d="M381.767 204.419V203.46L385.368 199.518C385.79 199.056 386.138 198.655 386.412 198.314C386.685 197.97 386.888 197.647 387.019 197.345C387.154 197.039 387.222 196.72 387.222 196.386C387.222 196.003 387.129 195.67 386.945 195.39C386.763 195.109 386.515 194.893 386.199 194.74C385.883 194.587 385.528 194.511 385.133 194.511C384.714 194.511 384.349 194.598 384.036 194.772C383.727 194.942 383.487 195.182 383.317 195.491C383.15 195.8 383.067 196.162 383.067 196.578H381.81C381.81 195.939 381.957 195.378 382.252 194.895C382.546 194.412 382.948 194.035 383.456 193.765C383.967 193.495 384.54 193.36 385.176 193.36C385.815 193.36 386.382 193.495 386.875 193.765C387.369 194.035 387.756 194.399 388.036 194.857C388.317 195.315 388.457 195.825 388.457 196.386C388.457 196.787 388.384 197.18 388.239 197.563C388.097 197.943 387.848 198.368 387.493 198.836C387.142 199.302 386.653 199.87 386.028 200.541L383.578 203.162V203.247H388.649V204.419H381.767ZM390.359 202.181V201.095L395.153 193.51H395.941V195.193H395.409L391.786 200.924V201.01H398.242V202.181H390.359ZM395.494 204.419V201.851V201.345V193.51H396.751V204.419H395.494Z" fill="black"/>
<path d="M415.103 227.039C415.103 230.608 417.996 233.501 421.565 233.501C425.134 233.501 428.027 230.608 428.027 227.039C428.027 223.47 425.134 220.576 421.565 220.576C417.996 220.576 415.103 223.47 415.103 227.039Z" fill="black"/>
<path d="M429.157 225.96V225.001L432.757 221.059C433.18 220.598 433.528 220.196 433.801 219.856C434.075 219.511 434.277 219.188 434.409 218.886C434.544 218.581 434.611 218.261 434.611 217.927C434.611 217.544 434.519 217.212 434.334 216.931C434.153 216.651 433.904 216.434 433.588 216.281C433.272 216.129 432.917 216.052 432.523 216.052C432.104 216.052 431.738 216.139 431.426 216.313C431.117 216.484 430.877 216.723 430.707 217.032C430.54 217.341 430.456 217.704 430.456 218.119H429.199C429.199 217.48 429.347 216.919 429.641 216.436C429.936 215.953 430.337 215.576 430.845 215.307C431.357 215.037 431.93 214.902 432.566 214.902C433.205 214.902 433.771 215.037 434.265 215.307C434.759 215.576 435.146 215.94 435.426 216.399C435.707 216.857 435.847 217.366 435.847 217.927C435.847 218.329 435.774 218.721 435.629 219.104C435.487 219.484 435.238 219.909 434.883 220.378C434.531 220.843 434.043 221.411 433.418 222.082L430.968 224.703V224.788H436.039V225.96H429.157ZM441.925 226.109C441.222 226.109 440.595 225.988 440.044 225.747C439.498 225.505 439.063 225.17 438.739 224.74C438.42 224.307 438.246 223.804 438.217 223.233H439.56C439.588 223.584 439.709 223.888 439.922 224.144C440.135 224.396 440.414 224.591 440.758 224.729C441.103 224.868 441.484 224.937 441.903 224.937C442.372 224.937 442.788 224.856 443.15 224.692C443.512 224.529 443.796 224.302 444.002 224.01C444.208 223.719 444.311 223.382 444.311 222.998C444.311 222.597 444.212 222.244 444.013 221.938C443.814 221.629 443.523 221.388 443.139 221.214C442.756 221.04 442.287 220.953 441.733 220.953H440.859V219.781H441.733C442.166 219.781 442.546 219.703 442.873 219.547C443.203 219.39 443.461 219.17 443.645 218.886C443.833 218.602 443.928 218.268 443.928 217.885C443.928 217.515 443.846 217.194 443.683 216.921C443.519 216.647 443.288 216.434 442.99 216.281C442.695 216.129 442.347 216.052 441.946 216.052C441.57 216.052 441.214 216.122 440.881 216.26C440.55 216.395 440.281 216.592 440.071 216.851C439.862 217.107 439.748 217.416 439.73 217.778H438.452C438.473 217.206 438.645 216.706 438.968 216.276C439.292 215.843 439.714 215.505 440.236 215.264C440.762 215.022 441.339 214.902 441.967 214.902C442.642 214.902 443.221 215.038 443.704 215.312C444.187 215.582 444.558 215.939 444.817 216.383C445.076 216.826 445.206 217.306 445.206 217.821C445.206 218.435 445.044 218.959 444.721 219.392C444.402 219.825 443.967 220.125 443.416 220.292V220.378C444.105 220.491 444.643 220.784 445.03 221.256C445.417 221.725 445.611 222.306 445.611 222.998C445.611 223.591 445.449 224.124 445.126 224.596C444.806 225.065 444.37 225.434 443.816 225.704C443.262 225.974 442.631 226.109 441.925 226.109Z" fill="black"/>
<path d="M452.441 261.505C452.441 265.074 455.334 267.967 458.903 267.967C462.472 267.967 465.366 265.074 465.366 261.505C465.366 257.936 462.472 255.043 458.903 255.043C455.334 255.043 452.441 257.936 452.441 261.505Z" fill="black"/>
<path d="M467.931 260.426V259.467L471.532 255.525C471.954 255.064 472.302 254.663 472.576 254.322C472.849 253.977 473.052 253.654 473.183 253.352C473.318 253.047 473.386 252.727 473.386 252.393C473.386 252.01 473.293 251.678 473.109 251.397C472.927 251.117 472.679 250.9 472.363 250.747C472.047 250.595 471.692 250.518 471.297 250.518C470.878 250.518 470.513 250.605 470.2 250.779C469.891 250.95 469.652 251.19 469.481 251.498C469.314 251.807 469.231 252.17 469.231 252.585H467.974C467.974 251.946 468.121 251.385 468.416 250.902C468.71 250.419 469.112 250.043 469.62 249.773C470.131 249.503 470.704 249.368 471.34 249.368C471.979 249.368 472.546 249.503 473.039 249.773C473.533 250.043 473.92 250.406 474.201 250.865C474.481 251.323 474.621 251.832 474.621 252.393C474.621 252.795 474.549 253.187 474.403 253.571C474.261 253.951 474.012 254.375 473.657 254.844C473.306 255.309 472.817 255.877 472.192 256.548L469.742 259.169V259.254H474.813V260.426H467.931ZM477.013 260.426V259.467L480.614 255.525C481.036 255.064 481.384 254.663 481.658 254.322C481.931 253.977 482.134 253.654 482.265 253.352C482.4 253.047 482.468 252.727 482.468 252.393C482.468 252.01 482.375 251.678 482.191 251.397C482.009 251.117 481.761 250.9 481.445 250.747C481.129 250.595 480.774 250.518 480.38 250.518C479.96 250.518 479.595 250.605 479.282 250.779C478.973 250.95 478.734 251.19 478.563 251.498C478.396 251.807 478.313 252.17 478.313 252.585H477.056C477.056 251.946 477.203 251.385 477.498 250.902C477.793 250.419 478.194 250.043 478.702 249.773C479.213 249.503 479.786 249.368 480.422 249.368C481.061 249.368 481.628 249.503 482.121 249.773C482.615 250.043 483.002 250.406 483.283 250.865C483.563 251.323 483.703 251.832 483.703 252.393C483.703 252.795 483.631 253.187 483.485 253.571C483.343 253.951 483.094 254.375 482.739 254.844C482.388 255.309 481.899 255.877 481.274 256.548L478.824 259.169V259.254H483.895V260.426H477.013Z" fill="black"/>
<path d="M476.855 307.459C476.855 311.029 479.748 313.922 483.317 313.922C486.886 313.922 489.779 311.029 489.779 307.459C489.779 303.89 486.886 300.997 483.317 300.997C479.748 300.997 476.855 303.89 476.855 307.459Z" fill="black"/>
<path d="M492.345 307.817V306.858L495.945 302.916C496.368 302.454 496.716 302.053 496.989 301.712C497.263 301.368 497.465 301.045 497.597 300.743C497.732 300.437 497.799 300.118 497.799 299.784C497.799 299.4 497.707 299.068 497.522 298.788C497.341 298.507 497.092 298.291 496.776 298.138C496.46 297.985 496.105 297.909 495.711 297.909C495.292 297.909 494.926 297.996 494.614 298.17C494.305 298.34 494.065 298.58 493.895 298.889C493.728 299.198 493.644 299.56 493.644 299.976H492.387C492.387 299.337 492.535 298.775 492.829 298.293C493.124 297.81 493.525 297.433 494.033 297.163C494.545 296.893 495.118 296.758 495.754 296.758C496.393 296.758 496.959 296.893 497.453 297.163C497.947 297.433 498.334 297.797 498.614 298.255C498.895 298.713 499.035 299.223 499.035 299.784C499.035 300.185 498.962 300.578 498.817 300.961C498.674 301.341 498.426 301.766 498.071 302.234C497.719 302.699 497.231 303.268 496.606 303.939L494.156 306.56V306.645H499.227V307.817H492.345ZM505.262 296.908V307.817H503.941V298.293H503.877L501.214 300.061V298.719L503.941 296.908H505.262Z" fill="black"/>
<path d="M476.855 367.775C476.855 371.344 479.748 374.237 483.317 374.237C486.886 374.237 489.779 371.344 489.779 367.775C489.779 364.206 486.886 361.313 483.317 361.313C479.748 361.313 476.855 364.206 476.855 367.775Z" fill="black"/>
<path d="M490.909 368.132V367.173L494.509 363.232C494.932 362.77 495.28 362.369 495.553 362.028C495.827 361.683 496.029 361.36 496.161 361.058C496.296 360.753 496.363 360.433 496.363 360.099C496.363 359.716 496.271 359.384 496.086 359.103C495.905 358.823 495.656 358.606 495.34 358.453C495.024 358.301 494.669 358.224 494.275 358.224C493.856 358.224 493.49 358.311 493.178 358.485C492.869 358.656 492.629 358.896 492.459 359.205C492.292 359.513 492.208 359.876 492.208 360.291H490.951C490.951 359.652 491.099 359.091 491.393 358.608C491.688 358.125 492.089 357.749 492.597 357.479C493.108 357.209 493.682 357.074 494.318 357.074C494.957 357.074 495.523 357.209 496.017 357.479C496.51 357.749 496.898 358.113 497.178 358.571C497.459 359.029 497.599 359.538 497.599 360.099C497.599 360.501 497.526 360.893 497.381 361.277C497.238 361.657 496.99 362.081 496.635 362.55C496.283 363.015 495.795 363.583 495.17 364.254L492.72 366.875V366.96H497.791V368.132H490.909ZM503.549 368.281C502.746 368.281 502.063 368.063 501.498 367.626C500.933 367.186 500.502 366.548 500.204 365.714C499.905 364.876 499.756 363.864 499.756 362.678C499.756 361.499 499.905 360.492 500.204 359.657C500.506 358.819 500.939 358.18 501.503 357.74C502.072 357.296 502.753 357.074 503.549 357.074C504.344 357.074 505.024 357.296 505.589 357.74C506.157 358.18 506.59 358.819 506.889 359.657C507.191 360.492 507.341 361.499 507.341 362.678C507.341 363.864 507.192 364.876 506.894 365.714C506.596 366.548 506.164 367.186 505.6 367.626C505.035 368.063 504.351 368.281 503.549 368.281ZM503.549 367.109C504.344 367.109 504.962 366.726 505.403 365.959C505.843 365.192 506.063 364.098 506.063 362.678C506.063 361.733 505.962 360.929 505.759 360.265C505.561 359.6 505.273 359.094 504.896 358.746C504.524 358.398 504.074 358.224 503.549 358.224C502.76 358.224 502.144 358.613 501.7 359.391C501.257 360.165 501.035 361.261 501.035 362.678C501.035 363.622 501.134 364.425 501.333 365.085C501.532 365.746 501.818 366.248 502.191 366.593C502.567 366.937 503.02 367.109 503.549 367.109Z" fill="black"/>
<path d="M448.133 413.729C448.133 417.299 451.026 420.192 454.595 420.192C458.164 420.192 461.058 417.299 461.058 413.729C461.058 410.16 458.164 407.267 454.595 407.267C451.026 407.267 448.133 410.16 448.133 413.729Z" fill="black"/>
<path d="M464.586 400.306V411.215H463.265V401.69H463.201L460.538 403.459V402.117L463.265 400.306H464.586ZM471.197 400.156C471.644 400.16 472.091 400.245 472.539 400.412C472.986 400.579 473.395 400.856 473.764 401.243C474.133 401.627 474.43 402.15 474.654 402.814C474.877 403.478 474.989 404.311 474.989 405.313C474.989 406.282 474.897 407.143 474.712 407.896C474.531 408.645 474.268 409.277 473.924 409.792C473.583 410.307 473.167 410.698 472.677 410.964C472.191 411.231 471.64 411.364 471.026 411.364C470.415 411.364 469.87 411.243 469.391 411.002C468.915 410.757 468.524 410.417 468.219 409.984C467.917 409.547 467.723 409.041 467.638 408.466H468.938C469.055 408.967 469.288 409.38 469.636 409.707C469.987 410.03 470.451 410.192 471.026 410.192C471.868 410.192 472.532 409.824 473.018 409.089C473.508 408.354 473.753 407.315 473.753 405.973H473.668C473.469 406.271 473.233 406.529 472.96 406.745C472.686 406.962 472.383 407.129 472.049 407.246C471.715 407.363 471.36 407.422 470.983 407.422C470.358 407.422 469.785 407.268 469.263 406.959C468.744 406.646 468.329 406.218 468.016 405.675C467.708 405.128 467.553 404.503 467.553 403.8C467.553 403.132 467.702 402.521 468 401.967C468.302 401.41 468.725 400.966 469.268 400.636C469.815 400.306 470.458 400.146 471.197 400.156ZM471.197 401.328C470.749 401.328 470.346 401.44 469.987 401.664C469.632 401.884 469.35 402.182 469.14 402.559C468.934 402.932 468.831 403.345 468.831 403.8C468.831 404.254 468.931 404.668 469.13 405.041C469.332 405.41 469.607 405.705 469.955 405.925C470.307 406.142 470.706 406.25 471.154 406.25C471.491 406.25 471.806 406.184 472.097 406.053C472.388 405.918 472.642 405.735 472.858 405.504C473.079 405.27 473.251 405.005 473.375 404.711C473.499 404.412 473.562 404.102 473.562 403.779C473.562 403.352 473.459 402.953 473.253 402.58C473.05 402.207 472.77 401.905 472.411 401.674C472.056 401.444 471.651 401.328 471.197 401.328Z" fill="black"/>
<path d="M409.359 446.759C409.359 450.329 412.252 453.222 415.821 453.222C419.39 453.222 422.284 450.329 422.284 446.759C422.284 443.19 419.39 440.297 415.821 440.297C412.252 440.297 409.359 443.19 409.359 446.759Z" fill="black"/>
<path d="M428.684 436.208V447.117H427.363V437.593H427.299L424.636 439.361V438.019L427.363 436.208H428.684ZM435.316 447.266C434.584 447.266 433.938 447.136 433.377 446.877C432.82 446.614 432.384 446.254 432.072 445.796C431.759 445.334 431.605 444.808 431.609 444.219C431.605 443.757 431.696 443.331 431.88 442.941C432.065 442.546 432.317 442.218 432.637 441.955C432.96 441.689 433.32 441.52 433.718 441.449V441.385C433.196 441.25 432.78 440.957 432.472 440.506C432.163 440.052 432.01 439.535 432.013 438.956C432.01 438.402 432.15 437.907 432.434 437.47C432.718 437.033 433.109 436.689 433.606 436.437C434.107 436.185 434.677 436.058 435.316 436.058C435.948 436.058 436.513 436.185 437.01 436.437C437.507 436.689 437.898 437.033 438.182 437.47C438.469 437.907 438.615 438.402 438.619 438.956C438.615 439.535 438.457 440.052 438.144 440.506C437.835 440.957 437.425 441.25 436.914 441.385V441.449C437.308 441.52 437.663 441.689 437.979 441.955C438.295 442.218 438.547 442.546 438.736 442.941C438.924 443.331 439.02 443.757 439.023 444.219C439.02 444.808 438.86 445.334 438.544 445.796C438.231 446.254 437.796 446.614 437.239 446.877C436.685 447.136 436.044 447.266 435.316 447.266ZM435.316 446.094C435.81 446.094 436.236 446.014 436.594 445.854C436.953 445.694 437.23 445.469 437.425 445.178C437.621 444.887 437.72 444.546 437.724 444.155C437.72 443.743 437.614 443.379 437.404 443.063C437.195 442.747 436.909 442.498 436.546 442.317C436.188 442.136 435.778 442.046 435.316 442.046C434.851 442.046 434.435 442.136 434.07 442.317C433.707 442.498 433.421 442.747 433.212 443.063C433.006 443.379 432.905 443.743 432.908 444.155C432.905 444.546 432.999 444.887 433.191 445.178C433.386 445.469 433.665 445.694 434.027 445.854C434.389 446.014 434.819 446.094 435.316 446.094ZM435.316 440.916C435.707 440.916 436.053 440.838 436.355 440.682C436.66 440.526 436.9 440.307 437.074 440.027C437.248 439.746 437.337 439.418 437.34 439.041C437.337 438.672 437.25 438.351 437.079 438.077C436.909 437.8 436.672 437.587 436.371 437.438C436.069 437.285 435.717 437.209 435.316 437.209C434.908 437.209 434.551 437.285 434.245 437.438C433.94 437.587 433.704 437.8 433.537 438.077C433.37 438.351 433.288 438.672 433.292 439.041C433.288 439.418 433.372 439.746 433.542 440.027C433.716 440.307 433.956 440.526 434.261 440.682C434.567 440.838 434.918 440.916 435.316 440.916Z" fill="black"/>
<path d="M366.276 461.12C366.276 464.689 369.17 467.583 372.739 467.583C376.308 467.583 379.201 464.689 379.201 461.12C379.201 457.551 376.308 454.658 372.739 454.658C369.17 454.658 366.276 457.551 366.276 461.12Z" fill="black"/>
<path d="M385.602 452.005V462.914H384.281V453.39H384.217L381.553 455.158V453.816L384.281 452.005H385.602ZM389.08 462.914L393.959 453.262V453.177H388.334V452.005H395.323V453.241L390.465 462.914H389.08Z" fill="black"/>
<path d="M308.833 455.376C308.833 458.945 311.726 461.838 315.295 461.838C318.864 461.838 321.757 458.945 321.757 455.376C321.757 451.807 318.864 448.914 315.295 448.914C311.726 448.914 308.833 451.807 308.833 455.376Z" fill="black"/>
<path d="M328.158 444.824V455.733H326.837V446.209H326.773L324.11 447.977V446.635L326.837 444.824H328.158ZM334.918 455.882C334.47 455.875 334.023 455.79 333.576 455.627C333.128 455.463 332.72 455.188 332.35 454.801C331.981 454.41 331.685 453.883 331.461 453.219C331.237 452.551 331.125 451.713 331.125 450.705C331.125 449.739 331.216 448.883 331.397 448.137C331.578 447.388 331.841 446.758 332.185 446.246C332.53 445.731 332.945 445.341 333.432 445.074C333.922 444.808 334.474 444.675 335.088 444.675C335.699 444.675 336.242 444.797 336.718 445.042C337.198 445.284 337.588 445.621 337.89 446.055C338.192 446.488 338.387 446.987 338.476 447.551H337.176C337.056 447.061 336.821 446.655 336.473 446.332C336.125 446.008 335.664 445.847 335.088 445.847C334.243 445.847 333.577 446.214 333.091 446.949C332.608 447.685 332.365 448.716 332.361 450.044H332.446C332.645 449.742 332.881 449.485 333.155 449.272C333.432 449.055 333.737 448.888 334.071 448.771C334.405 448.654 334.758 448.595 335.131 448.595C335.756 448.595 336.328 448.752 336.846 449.064C337.365 449.373 337.78 449.801 338.093 450.348C338.405 450.891 338.561 451.514 338.561 452.218C338.561 452.892 338.41 453.51 338.109 454.071C337.807 454.629 337.382 455.073 336.836 455.403C336.292 455.73 335.653 455.889 334.918 455.882ZM334.918 454.71C335.365 454.71 335.767 454.599 336.122 454.375C336.48 454.151 336.763 453.851 336.969 453.475C337.178 453.098 337.283 452.679 337.283 452.218C337.283 451.767 337.182 451.356 336.979 450.987C336.78 450.614 336.505 450.318 336.154 450.098C335.806 449.877 335.408 449.767 334.961 449.767C334.623 449.767 334.309 449.835 334.018 449.97C333.727 450.101 333.471 450.282 333.251 450.513C333.034 450.744 332.864 451.008 332.739 451.307C332.615 451.601 332.553 451.912 332.553 452.239C332.553 452.672 332.654 453.077 332.856 453.453C333.062 453.83 333.343 454.133 333.698 454.364C334.057 454.595 334.463 454.71 334.918 454.71Z" fill="black"/>
<path d="M260.006 435.271C260.006 438.84 262.899 441.733 266.469 441.733C270.038 441.733 272.931 438.84 272.931 435.271C272.931 431.702 270.038 428.808 266.469 428.808C262.899 428.808 260.006 431.702 260.006 435.271Z" fill="black"/>
<path d="M279.331 426.155V437.064H278.01V427.54H277.946L275.283 429.309V427.966L278.01 426.155H279.331ZM285.878 437.213C285.253 437.213 284.69 437.089 284.189 436.84C283.688 436.592 283.287 436.251 282.985 435.818C282.683 435.385 282.518 434.891 282.49 434.337H283.768C283.818 434.831 284.042 435.239 284.439 435.562C284.841 435.882 285.32 436.041 285.878 436.041C286.325 436.041 286.723 435.937 287.071 435.727C287.422 435.518 287.698 435.23 287.897 434.864C288.099 434.495 288.2 434.078 288.2 433.613C288.2 433.137 288.095 432.712 287.886 432.339C287.68 431.963 287.396 431.666 287.034 431.45C286.671 431.233 286.258 431.123 285.792 431.12C285.459 431.116 285.116 431.168 284.764 431.274C284.413 431.377 284.123 431.51 283.896 431.674L282.66 431.524L283.321 426.155H288.989V427.327H284.429L284.045 430.544H284.109C284.333 430.367 284.614 430.219 284.951 430.102C285.288 429.985 285.64 429.926 286.006 429.926C286.673 429.926 287.268 430.086 287.79 430.406C288.316 430.722 288.727 431.155 289.026 431.706C289.328 432.256 289.479 432.885 289.479 433.591C289.479 434.287 289.322 434.909 289.01 435.456C288.701 435.999 288.275 436.429 287.731 436.745C287.188 437.057 286.57 437.213 285.878 437.213Z" fill="black"/>
<path d="M245.645 395.06C245.645 398.629 248.539 401.523 252.108 401.523C255.677 401.523 258.57 398.629 258.57 395.06C258.57 391.491 255.677 388.598 252.108 388.598C248.539 388.598 245.645 391.491 245.645 395.06Z" fill="black"/>
<path d="M264.97 384.508V395.417H263.649V385.893H263.585L260.922 387.662V386.319L263.649 384.508H264.97ZM267.852 393.18V392.094L272.646 384.508H273.434V386.192H272.902L269.28 391.923V392.008H275.736V393.18H267.852ZM272.987 395.417V392.85V392.344V384.508H274.244V395.417H272.987Z" fill="black"/>
<path d="M244.209 353.414C244.209 356.983 247.103 359.876 250.672 359.876C254.241 359.876 257.134 356.983 257.134 353.414C257.134 349.845 254.241 346.952 250.672 346.952C247.103 346.952 244.209 349.845 244.209 353.414Z" fill="black"/>
<path d="M260.662 344.298V355.208H259.341V345.683H259.278L256.614 347.452V346.11L259.341 344.298H260.662ZM267.486 355.357C266.783 355.357 266.156 355.236 265.606 354.994C265.059 354.753 264.624 354.417 264.301 353.988C263.981 353.554 263.807 353.052 263.779 352.48H265.121C265.149 352.832 265.27 353.135 265.483 353.391C265.696 353.643 265.975 353.839 266.319 353.977C266.664 354.116 267.046 354.185 267.465 354.185C267.933 354.185 268.349 354.103 268.711 353.94C269.073 353.776 269.357 353.549 269.563 353.258C269.769 352.967 269.872 352.629 269.872 352.246C269.872 351.845 269.773 351.491 269.574 351.186C269.375 350.877 269.084 350.635 268.7 350.461C268.317 350.287 267.848 350.2 267.294 350.2H266.421V349.029H267.294C267.727 349.029 268.107 348.95 268.434 348.794C268.764 348.638 269.022 348.418 269.207 348.134C269.395 347.85 269.489 347.516 269.489 347.132C269.489 346.763 269.407 346.442 269.244 346.168C269.08 345.895 268.85 345.682 268.551 345.529C268.257 345.376 267.909 345.3 267.507 345.3C267.131 345.3 266.776 345.369 266.442 345.508C266.112 345.643 265.842 345.84 265.632 346.099C265.423 346.355 265.309 346.663 265.291 347.026H264.013C264.034 346.454 264.207 345.953 264.53 345.524C264.853 345.09 265.275 344.753 265.797 344.511C266.323 344.27 266.9 344.149 267.529 344.149C268.203 344.149 268.782 344.286 269.265 344.559C269.748 344.829 270.119 345.186 270.378 345.63C270.638 346.074 270.767 346.553 270.767 347.068C270.767 347.683 270.606 348.206 270.283 348.64C269.963 349.073 269.528 349.373 268.977 349.54V349.625C269.666 349.739 270.204 350.032 270.591 350.504C270.979 350.973 271.172 351.553 271.172 352.246C271.172 352.839 271.01 353.372 270.687 353.844C270.368 354.313 269.931 354.682 269.377 354.952C268.823 355.222 268.193 355.357 267.486 355.357Z" fill="black"/>
<path d="M247.082 316.076C247.082 319.645 249.975 322.538 253.544 322.538C257.113 322.538 260.006 319.645 260.006 316.076C260.006 312.507 257.113 309.614 253.544 309.614C249.975 309.614 247.082 312.507 247.082 316.076Z" fill="black"/>
<path d="M266.407 306.96V317.869H265.086V308.345H265.022L262.359 310.113V308.771L265.086 306.96H266.407ZM269.545 317.869V316.91L273.145 312.969C273.568 312.507 273.916 312.106 274.189 311.765C274.463 311.42 274.665 311.097 274.797 310.795C274.932 310.49 274.999 310.17 274.999 309.836C274.999 309.453 274.907 309.121 274.722 308.84C274.541 308.56 274.292 308.343 273.976 308.191C273.66 308.038 273.305 307.961 272.911 307.961C272.492 307.961 272.126 308.048 271.814 308.222C271.505 308.393 271.265 308.633 271.095 308.942C270.928 309.251 270.844 309.613 270.844 310.028H269.587C269.587 309.389 269.735 308.828 270.029 308.345C270.324 307.862 270.725 307.486 271.233 307.216C271.744 306.946 272.318 306.811 272.954 306.811C273.593 306.811 274.159 306.946 274.653 307.216C275.146 307.486 275.534 307.85 275.814 308.308C276.095 308.766 276.235 309.275 276.235 309.836C276.235 310.238 276.162 310.63 276.016 311.014C275.874 311.394 275.626 311.818 275.271 312.287C274.919 312.752 274.431 313.32 273.806 313.991L271.356 316.612V316.697H276.427V317.869H269.545Z" fill="black"/>
<path d="M268.623 284.482C268.623 288.051 271.516 290.945 275.085 290.945C278.654 290.945 281.548 288.051 281.548 284.482C281.548 280.913 278.654 278.02 275.085 278.02C271.516 278.02 268.623 280.913 268.623 284.482Z" fill="black"/>
<path d="M287.948 276.802V287.711H286.627V278.187H286.563L283.9 279.956V278.613L286.627 276.802H287.948ZM294.921 276.802V287.711H293.6V278.187H293.536L290.873 279.956V278.613L293.6 276.802H294.921Z" fill="black"/>
<path d="M304.525 267.249C304.525 270.818 307.418 273.711 310.987 273.711C314.556 273.711 317.45 270.818 317.45 267.249C317.45 263.68 314.556 260.787 310.987 260.787C307.418 260.787 304.525 263.68 304.525 267.249Z" fill="black"/>
<path d="M322.414 259.569V270.478H321.093V260.954H321.029L318.366 262.723V261.38L321.093 259.569H322.414ZM329.11 270.627C328.307 270.627 327.624 270.409 327.059 269.972C326.494 269.532 326.063 268.894 325.765 268.06C325.466 267.222 325.317 266.21 325.317 265.024C325.317 263.845 325.466 262.838 325.765 262.003C326.067 261.165 326.5 260.526 327.064 260.086C327.633 259.642 328.314 259.42 329.11 259.42C329.905 259.42 330.585 259.642 331.15 260.086C331.718 260.526 332.151 261.165 332.45 262.003C332.752 262.838 332.902 263.845 332.902 265.024C332.902 266.21 332.753 267.222 332.455 268.06C332.157 268.894 331.725 269.532 331.161 269.972C330.596 270.409 329.912 270.627 329.11 270.627ZM329.11 269.456C329.905 269.456 330.523 269.072 330.964 268.305C331.404 267.538 331.624 266.444 331.624 265.024C331.624 264.079 331.523 263.275 331.32 262.611C331.122 261.947 330.834 261.441 330.458 261.093C330.085 260.745 329.635 260.571 329.11 260.571C328.322 260.571 327.705 260.959 327.261 261.737C326.818 262.511 326.596 263.607 326.596 265.024C326.596 265.968 326.695 266.771 326.894 267.431C327.093 268.092 327.379 268.594 327.752 268.939C328.128 269.283 328.581 269.456 329.11 269.456Z" fill="black"/>
<path d="M353.352 261.505C353.352 265.074 356.245 267.967 359.814 267.967C363.383 267.967 366.276 265.074 366.276 261.505C366.276 257.936 363.383 255.042 359.814 255.042C356.245 255.042 353.352 257.936 353.352 261.505Z" fill="black"/>
<path d="M372.315 253.676C372.762 253.679 373.21 253.765 373.657 253.932C374.104 254.098 374.513 254.375 374.882 254.763C375.251 255.146 375.548 255.67 375.772 256.334C375.995 256.998 376.107 257.831 376.107 258.832C376.107 259.802 376.015 260.663 375.83 261.416C375.649 262.165 375.386 262.797 375.042 263.312C374.701 263.827 374.286 264.217 373.795 264.484C373.309 264.75 372.759 264.883 372.144 264.883C371.533 264.883 370.988 264.763 370.509 264.521C370.033 264.276 369.642 263.937 369.337 263.504C369.035 263.067 368.842 262.561 368.756 261.986H370.056C370.173 262.486 370.406 262.9 370.754 263.227C371.106 263.55 371.569 263.711 372.144 263.711C372.986 263.711 373.65 263.344 374.136 262.609C374.626 261.874 374.871 260.835 374.871 259.493H374.786C374.587 259.791 374.351 260.048 374.078 260.265C373.804 260.482 373.501 260.649 373.167 260.766C372.833 260.883 372.478 260.942 372.102 260.942C371.477 260.942 370.903 260.787 370.381 260.478C369.863 260.166 369.447 259.738 369.135 259.194C368.826 258.647 368.671 258.022 368.671 257.319C368.671 256.652 368.82 256.041 369.119 255.487C369.42 254.929 369.843 254.486 370.386 254.155C370.933 253.825 371.576 253.665 372.315 253.676ZM372.315 254.848C371.867 254.848 371.464 254.96 371.106 255.183C370.75 255.404 370.468 255.702 370.259 256.078C370.053 256.451 369.95 256.865 369.95 257.319C369.95 257.774 370.049 258.188 370.248 258.56C370.45 258.93 370.726 259.225 371.074 259.445C371.425 259.661 371.825 259.77 372.272 259.77C372.609 259.77 372.924 259.704 373.215 259.573C373.506 259.438 373.76 259.255 373.977 259.024C374.197 258.79 374.369 258.525 374.493 258.23C374.618 257.932 374.68 257.621 374.68 257.298C374.68 256.872 374.577 256.472 374.371 256.1C374.168 255.727 373.888 255.425 373.529 255.194C373.174 254.963 372.769 254.848 372.315 254.848Z" fill="black"/>
<path d="M392.126 288.79C392.126 292.359 395.019 295.253 398.588 295.253C402.157 295.253 405.051 292.359 405.051 288.79C405.051 285.221 402.157 282.328 398.588 282.328C395.019 282.328 392.126 285.221 392.126 288.79Z" fill="black"/>
<path d="M412.546 289.297C411.815 289.297 411.169 289.167 410.608 288.908C410.05 288.645 409.615 288.285 409.302 287.826C408.99 287.365 408.835 286.839 408.839 286.25C408.835 285.788 408.926 285.362 409.111 284.971C409.295 284.577 409.547 284.249 409.867 283.986C410.19 283.72 410.551 283.551 410.948 283.48V283.416C410.426 283.281 410.011 282.988 409.702 282.537C409.393 282.082 409.24 281.566 409.244 280.987C409.24 280.433 409.381 279.938 409.665 279.501C409.949 279.064 410.339 278.72 410.837 278.467C411.337 278.215 411.907 278.089 412.546 278.089C413.179 278.089 413.743 278.215 414.24 278.467C414.737 278.72 415.128 279.064 415.412 279.501C415.7 279.938 415.845 280.433 415.849 280.987C415.845 281.566 415.687 282.082 415.375 282.537C415.066 282.988 414.656 283.281 414.144 283.416V283.48C414.539 283.551 414.894 283.72 415.21 283.986C415.526 284.249 415.778 284.577 415.966 284.971C416.154 285.362 416.25 285.788 416.254 286.25C416.25 286.839 416.09 287.365 415.774 287.826C415.462 288.285 415.027 288.645 414.469 288.908C413.915 289.167 413.274 289.297 412.546 289.297ZM412.546 288.125C413.04 288.125 413.466 288.045 413.825 287.885C414.184 287.725 414.46 287.5 414.656 287.209C414.851 286.917 414.951 286.576 414.954 286.186C414.951 285.774 414.844 285.41 414.634 285.094C414.425 284.778 414.139 284.529 413.777 284.348C413.418 284.167 413.008 284.076 412.546 284.076C412.081 284.076 411.666 284.167 411.3 284.348C410.938 284.529 410.652 284.778 410.442 285.094C410.236 285.41 410.135 285.774 410.139 286.186C410.135 286.576 410.229 286.917 410.421 287.209C410.616 287.5 410.895 287.725 411.257 287.885C411.62 288.045 412.049 288.125 412.546 288.125ZM412.546 282.947C412.937 282.947 413.283 282.869 413.585 282.713C413.891 282.557 414.13 282.338 414.304 282.058C414.478 281.777 414.567 281.449 414.571 281.072C414.567 280.703 414.48 280.381 414.31 280.108C414.139 279.831 413.903 279.618 413.601 279.469C413.299 279.316 412.948 279.24 412.546 279.24C412.138 279.24 411.781 279.316 411.476 279.469C411.17 279.618 410.934 279.831 410.767 280.108C410.6 280.381 410.519 280.703 410.522 281.072C410.519 281.449 410.602 281.777 410.773 282.058C410.947 282.338 411.186 282.557 411.492 282.713C411.797 282.869 412.149 282.947 412.546 282.947Z" fill="black"/>
<path d="M409.359 321.82C409.359 325.389 412.252 328.283 415.821 328.283C419.39 328.283 422.284 325.389 422.284 321.82C422.284 318.251 419.39 315.358 415.821 315.358C412.252 315.358 409.359 318.251 409.359 321.82Z" fill="black"/>
<path d="M425.19 322.177L430.069 312.526V312.44H424.444V311.268H431.433V312.504L426.575 322.177H425.19Z" fill="black"/>
<path d="M413.667 359.158C413.667 362.727 416.56 365.621 420.129 365.621C423.698 365.621 426.592 362.727 426.592 359.158C426.592 355.589 423.698 352.696 420.129 352.696C416.56 352.696 413.667 355.589 413.667 359.158Z" fill="black"/>
<path d="M432.779 359.665C432.332 359.657 431.884 359.572 431.437 359.409C430.989 359.245 430.581 358.97 430.212 358.583C429.842 358.193 429.546 357.665 429.322 357.001C429.098 356.334 428.987 355.495 428.987 354.487C428.987 353.521 429.077 352.665 429.258 351.919C429.439 351.17 429.702 350.54 430.047 350.029C430.391 349.514 430.807 349.123 431.293 348.857C431.783 348.59 432.335 348.457 432.95 348.457C433.561 348.457 434.104 348.58 434.58 348.825C435.059 349.066 435.45 349.404 435.752 349.837C436.053 350.27 436.249 350.769 436.337 351.334H435.038C434.917 350.844 434.683 350.437 434.335 350.114C433.987 349.791 433.525 349.629 432.95 349.629C432.105 349.629 431.439 349.997 430.952 350.732C430.469 351.467 430.226 352.498 430.222 353.826H430.308C430.507 353.525 430.743 353.267 431.016 353.054C431.293 352.837 431.598 352.671 431.932 352.553C432.266 352.436 432.619 352.378 432.992 352.378C433.617 352.378 434.189 352.534 434.708 352.846C435.226 353.155 435.641 353.583 435.954 354.13C436.266 354.673 436.423 355.297 436.423 356C436.423 356.674 436.272 357.292 435.97 357.853C435.668 358.411 435.244 358.855 434.697 359.185C434.154 359.512 433.514 359.672 432.779 359.665ZM432.779 358.493C433.227 358.493 433.628 358.381 433.983 358.157C434.342 357.933 434.624 357.633 434.83 357.257C435.04 356.88 435.144 356.461 435.144 356C435.144 355.549 435.043 355.139 434.841 354.769C434.642 354.396 434.367 354.1 434.015 353.88C433.667 353.66 433.269 353.549 432.822 353.549C432.485 353.549 432.17 353.617 431.879 353.752C431.588 353.883 431.332 354.064 431.112 354.295C430.895 354.526 430.725 354.791 430.601 355.089C430.476 355.384 430.414 355.694 430.414 356.021C430.414 356.454 430.515 356.859 430.718 357.236C430.924 357.612 431.204 357.916 431.559 358.146C431.918 358.377 432.325 358.493 432.779 358.493Z" fill="black"/>
<path d="M394.998 393.624C394.998 397.193 397.891 400.087 401.46 400.087C405.03 400.087 407.923 397.193 407.923 393.624C407.923 390.055 405.03 387.162 401.46 387.162C397.891 387.162 394.998 390.055 394.998 393.624Z" fill="black"/>
<path d="M413.897 394.131C413.272 394.131 412.709 394.006 412.209 393.758C411.708 393.509 411.307 393.168 411.005 392.735C410.703 392.302 410.538 391.808 410.509 391.254H411.788C411.838 391.748 412.061 392.156 412.459 392.479C412.86 392.799 413.34 392.959 413.897 392.959C414.345 392.959 414.742 392.854 415.09 392.644C415.442 392.435 415.717 392.147 415.916 391.782C416.118 391.412 416.22 390.995 416.22 390.53C416.22 390.054 416.115 389.63 415.905 389.257C415.699 388.88 415.415 388.584 415.053 388.367C414.691 388.15 414.277 388.04 413.812 388.037C413.478 388.033 413.136 388.085 412.784 388.191C412.432 388.294 412.143 388.427 411.916 388.591L410.68 388.442L411.34 383.072H417.008V384.244H412.448L412.065 387.462H412.129C412.352 387.284 412.633 387.137 412.97 387.019C413.308 386.902 413.659 386.844 414.025 386.844C414.693 386.844 415.288 387.003 415.81 387.323C416.335 387.639 416.747 388.072 417.045 388.623C417.347 389.173 417.498 389.802 417.498 390.508C417.498 391.204 417.342 391.826 417.029 392.373C416.72 392.916 416.294 393.346 415.751 393.662C415.208 393.974 414.59 394.131 413.897 394.131Z" fill="black"/>
<path d="M361.968 406.549C361.968 410.118 364.862 413.011 368.431 413.011C372 413.011 374.893 410.118 374.893 406.549C374.893 402.98 372 400.087 368.431 400.087C364.862 400.087 361.968 402.98 361.968 406.549Z" fill="black"/>
<path d="M375.767 403.233V402.146L380.561 394.561H381.349V396.244H380.816L377.194 401.976V402.061H383.65V403.233H375.767ZM380.902 405.47V402.903V402.397V394.561H382.159V405.47H380.902Z" fill="black"/>
<path d="M318.886 390.752C318.886 394.321 321.779 397.215 325.348 397.215C328.917 397.215 331.811 394.321 331.811 390.752C331.811 387.183 328.917 384.29 325.348 384.29C321.779 384.29 318.886 387.183 318.886 390.752Z" fill="black"/>
<path d="M335.19 392.695C334.487 392.695 333.86 392.574 333.31 392.332C332.763 392.091 332.328 391.755 332.004 391.326C331.685 390.892 331.511 390.39 331.482 389.818H332.825C332.853 390.17 332.974 390.473 333.187 390.729C333.4 390.981 333.679 391.176 334.023 391.315C334.368 391.453 334.75 391.523 335.169 391.523C335.637 391.523 336.053 391.441 336.415 391.278C336.777 391.114 337.061 390.887 337.267 390.596C337.473 390.305 337.576 389.967 337.576 389.584C337.576 389.182 337.477 388.829 337.278 388.524C337.079 388.215 336.788 387.973 336.404 387.799C336.021 387.625 335.552 387.538 334.998 387.538H334.125V386.366H334.998C335.431 386.366 335.811 386.288 336.138 386.132C336.468 385.976 336.726 385.756 336.91 385.472C337.099 385.187 337.193 384.854 337.193 384.47C337.193 384.101 337.111 383.779 336.948 383.506C336.784 383.233 336.553 383.019 336.255 382.867C335.96 382.714 335.612 382.638 335.211 382.638C334.835 382.638 334.48 382.707 334.146 382.845C333.816 382.98 333.546 383.178 333.336 383.437C333.127 383.692 333.013 384.001 332.995 384.364H331.717C331.738 383.792 331.91 383.291 332.234 382.861C332.557 382.428 332.979 382.091 333.501 381.849C334.027 381.608 334.604 381.487 335.232 381.487C335.907 381.487 336.486 381.624 336.969 381.897C337.452 382.167 337.823 382.524 338.082 382.968C338.341 383.412 338.471 383.891 338.471 384.406C338.471 385.021 338.31 385.544 337.986 385.978C337.667 386.411 337.232 386.711 336.681 386.878V386.963C337.37 387.077 337.908 387.37 338.295 387.842C338.682 388.311 338.876 388.891 338.876 389.584C338.876 390.177 338.714 390.709 338.391 391.182C338.072 391.651 337.635 392.02 337.081 392.29C336.527 392.56 335.897 392.695 335.19 392.695Z" fill="black"/>
<path d="M317.449 356.286C317.449 359.855 320.343 362.748 323.912 362.748C327.481 362.748 330.374 359.855 330.374 356.286C330.374 352.717 327.481 349.824 323.912 349.824C320.343 349.824 317.449 352.717 317.449 356.286Z" fill="black"/>
<path d="M331.503 358.08V357.121L335.104 353.179C335.527 352.717 335.875 352.316 336.148 351.975C336.422 351.631 336.624 351.308 336.755 351.006C336.89 350.7 336.958 350.381 336.958 350.047C336.958 349.663 336.866 349.331 336.681 349.051C336.5 348.77 336.251 348.554 335.935 348.401C335.619 348.248 335.264 348.172 334.87 348.172C334.451 348.172 334.085 348.259 333.772 348.433C333.464 348.603 333.224 348.843 333.053 349.152C332.886 349.461 332.803 349.823 332.803 350.239H331.546C331.546 349.599 331.693 349.038 331.988 348.555C332.283 348.072 332.684 347.696 333.192 347.426C333.703 347.156 334.277 347.021 334.912 347.021C335.552 347.021 336.118 347.156 336.612 347.426C337.105 347.696 337.492 348.06 337.773 348.518C338.053 348.976 338.194 349.486 338.194 350.047C338.194 350.448 338.121 350.841 337.975 351.224C337.833 351.604 337.585 352.028 337.229 352.497C336.878 352.962 336.39 353.531 335.765 354.202L333.314 356.822V356.908H338.385V358.08H331.503Z" fill="black"/>
<path d="M337.554 329.001C337.554 332.57 340.448 335.463 344.017 335.463C347.586 335.463 350.479 332.57 350.479 329.001C350.479 325.432 347.586 322.538 344.017 322.538C340.448 322.538 337.554 325.432 337.554 329.001Z" fill="black"/>
<path d="M356.88 318.449V329.358H355.559V319.834H355.495L352.832 321.602V320.26L355.559 318.449H356.88Z" fill="black"/>
</svg>
