<svg width="600" height="600" viewBox="0 0 600 600" fill="none" xmlns="http://www.w3.org/2000/svg">
<path d="M80.1661 165.23C87.5493 130.247 67.2665 99.055 59.2722 87.5207" stroke="#5E8A4A" stroke-width="15" stroke-linecap="round"/>
<path d="M71.8098 167.861C65.9777 132.581 35.7722 111.016 24.1428 103.223" stroke="#5E8A4A" stroke-width="15" stroke-linecap="round"/>
<path d="M52.4255 149.174C62.8918 142.851 75.9748 138.636 86.4413 138.636C94.5777 138.636 111.51 143.436 117.317 149.174C123.582 155.365 130.678 166.38 135.633 179.208C143.441 199.417 140.343 213.107 140.343 234.532V328.32C140.343 347.872 149.175 367.24 165.462 372.58C187.965 379.956 201.409 378.417 225.121 389.967C236.235 395.382 247.104 409.185 257.567 415.786C275.2 426.911 272.832 438.84 291.582 447.926C308.875 456.306 321.069 454.178 340.251 454.776C364.907 455.545 379.679 455.877 403.049 447.926C415.694 443.625 422.855 440.68 433.925 433.173C444.962 425.688 448.239 428.089 460.614 423.162C476.314 416.912 476.751 423.162 490.444 423.162C508.224 423.162 518.128 422.995 534.402 415.786C547.485 409.99 564.128 400.495 579.931 394.71C608.714 384.172 546.618 443.765 528.646 454.776C509.064 466.773 499.006 471.717 478.407 478.487C463.845 483.272 455.113 483.899 440.205 487.444C425.684 490.897 417.728 493.709 403.049 496.401C385.442 499.631 375.228 499.052 357.52 501.67C335.51 504.924 323.693 510.326 301.525 512.208C282.993 513.781 272.501 512.208 253.903 512.208H225.121H194.245C179.735 512.208 171.404 514.597 157.089 512.208C134.263 508.399 120.78 502.576 103.188 487.444C83.0412 470.115 76.6422 454.221 68.1249 428.958C62.0552 410.955 59.265 400.016 59.7518 381.01C60.1765 364.43 65.7525 355.798 68.1249 339.385C74.3058 296.624 68.1249 228.736 68.1249 228.736H59.7518C50.7596 228.736 45.3373 231.343 36.7258 228.736C26.1173 225.525 17.3162 222.058 14.2231 211.348C10.8509 199.673 14.8861 189.624 21.0261 178.154C28.7739 163.68 39.4408 157.018 52.4255 149.174Z" fill="#76AD5C"/>
<path d="M52.4255 149.174C62.8918 142.851 75.9748 138.636 86.4413 138.636C94.5777 138.636 111.51 143.436 117.317 149.174C123.582 155.365 130.678 166.38 135.633 179.208C143.441 199.417 140.343 213.107 140.343 234.532V328.32C140.343 347.872 149.175 367.24 165.462 372.58C187.965 379.956 201.409 378.417 225.121 389.967C236.235 395.382 247.104 409.185 257.567 415.786C275.2 426.911 272.832 438.84 291.582 447.926C308.875 456.306 321.069 454.178 340.251 454.776C364.907 455.545 379.679 455.877 403.049 447.926C415.694 443.625 422.855 440.68 433.925 433.173C444.962 425.688 448.239 428.089 460.614 423.162C476.314 416.912 476.751 423.162 490.444 423.162C508.224 423.162 518.128 422.995 534.402 415.786C547.485 409.99 564.128 400.495 579.931 394.71C608.714 384.172 546.618 443.765 528.646 454.776C509.064 466.773 499.006 471.717 478.407 478.487C463.845 483.272 455.113 483.899 440.205 487.444C425.684 490.897 417.728 493.709 403.049 496.401C385.442 499.631 375.228 499.052 357.52 501.67C335.51 504.924 323.693 510.326 301.525 512.208C282.993 513.781 272.501 512.208 253.903 512.208H225.121H194.245C179.735 512.208 171.404 514.597 157.089 512.208C134.263 508.399 120.78 502.576 103.188 487.444C83.0412 470.115 76.6422 454.221 68.1249 428.958C62.0552 410.955 59.265 400.016 59.7518 381.01C60.1765 364.43 65.7525 355.798 68.1249 339.385C74.3058 296.624 68.1249 228.736 68.1249 228.736H59.7518C50.7596 228.736 45.3373 231.343 36.7258 228.736C26.1173 225.525 17.3162 222.058 14.2231 211.348C10.8509 199.673 14.8861 189.624 21.0261 178.154C28.7739 163.68 39.4408 157.018 52.4255 149.174Z" stroke="#76AD5C" stroke-width="5"/>
<path d="M52.4255 149.174C62.8918 142.851 75.9748 138.636 86.4413 138.636C94.5777 138.636 111.51 143.436 117.317 149.174C123.582 155.365 130.678 166.38 135.633 179.208C143.441 199.417 140.343 213.107 140.343 234.532V328.32C140.343 347.872 149.175 367.24 165.462 372.58C187.965 379.956 201.409 378.417 225.121 389.967C236.235 395.382 247.104 409.185 257.567 415.786C275.2 426.911 272.832 438.84 291.582 447.926C308.875 456.306 321.069 454.178 340.251 454.776C364.907 455.545 379.679 455.877 403.049 447.926C415.694 443.625 422.855 440.68 433.925 433.173C444.962 425.688 448.239 428.089 460.614 423.162C476.314 416.912 476.751 423.162 490.444 423.162C508.224 423.162 518.128 422.995 534.402 415.786C547.485 409.99 564.128 400.495 579.931 394.71C608.714 384.172 546.618 443.765 528.646 454.776C509.064 466.773 499.006 471.717 478.407 478.487C463.845 483.272 455.113 483.899 440.205 487.444C425.684 490.897 417.728 493.709 403.049 496.401C385.442 499.631 375.228 499.052 357.52 501.67C335.51 504.924 323.693 510.326 301.525 512.208C282.993 513.781 272.501 512.208 253.903 512.208H225.121H194.245C179.735 512.208 171.404 514.597 157.089 512.208C134.263 508.399 120.78 502.576 103.188 487.444C83.0412 470.115 76.6422 454.221 68.1249 428.958C62.0552 410.955 59.265 400.016 59.7518 381.01C60.1765 364.43 65.7525 355.798 68.1249 339.385C74.3058 296.624 68.1249 228.736 68.1249 228.736H59.7518C50.7596 228.736 45.3373 231.343 36.7258 228.736C26.1173 225.525 17.3162 222.058 14.2231 211.348C10.8509 199.673 14.8861 189.624 21.0261 178.154C28.7739 163.68 39.4408 157.018 52.4255 149.174Z" stroke="black" stroke-opacity="0.2" stroke-width="5"/>
<path d="M229.307 413.678C222.703 409.522 215.917 405.617 208.374 403.667C194.697 400.129 189.49 397.85 178.022 392.602C154.996 382.064 147.146 358.353 147.146 358.353C147.146 358.353 170.228 359.776 175.405 350.61C190.581 323.738 189.769 301.523 207.811 274.973C220.159 256.801 228.904 247.68 245.217 233.017C254.144 224.994 259.436 218.229 269.602 211.875C284.779 202.391 295.433 197.71 314.085 194.487C340.32 189.955 356.298 191.938 381.593 200.283C403.906 207.645 418.156 214.031 436.541 228.736C458.284 246.126 471.24 261.173 481.414 287.188C489.241 307.203 492.805 319.47 492.013 340.966C491.065 366.677 486.979 384.356 473.398 406.15C459.905 427.805 444.714 434.428 422.632 447.043C407.791 455.522 399.363 461.612 382.553 464.569C370.219 466.739 363.012 464.569 350.491 464.569H314.687C303.416 464.569 285.825 454.409 285.825 454.409C285.825 454.409 273.921 449.737 265.416 444.765C249.193 435.281 246.053 424.216 229.307 413.678Z" fill="#BE9269" stroke="#B07A5C" stroke-width="5"/>
<path d="M342.344 341.801C333.331 341.892 326.738 346.198 322.981 354.447C318.476 364.339 319.933 374.537 325.598 383.805C333.181 396.213 339.732 400.287 353.857 403.449C361.438 405.146 374.594 405.392 382.116 403.449C390.638 401.248 397.974 394.909 404.095 388.547C414.665 377.561 419.244 366.809 421.365 351.664C423.22 338.42 423.932 324.215 421.365 311.093C418.989 298.946 408.282 283.545 399.386 276.844C381.986 263.738 373.023 259.774 351.764 255.241C338.368 252.385 329.555 252.3 316.178 255.241C302.777 258.187 293.484 263.585 282.685 272.102C273.21 279.576 267.076 286.267 259.659 295.813C249.354 309.077 247.623 315.308 239.773 330.588C232.919 343.93 232.97 355.611 232.97 370.632C232.97 382.155 234.349 389.115 237.68 400.139C242.075 414.682 251.733 425.626 262.799 435.968C274.973 447.344 284.483 451.637 299.955 457.719C308.589 461.114 313.816 462.124 322.981 463.515C337.329 465.693 345.627 466.528 360.137 466.528C367.903 466.528 370.08 466.528 382.116 463.515C398.739 459.354 404.095 458.114 421.365 448.762C427.508 445.435 432.812 441.943 438.635 438.075C450.099 430.461 457.429 424.046 464.8 414.365C476.837 398.558 478.24 394.975 482.593 377.482C487.757 356.736 488.889 347.174 487.303 325.846C485.476 301.269 477.883 282.64 464.8 262.091C453.036 243.613 445.61 235.256 427.122 223.627C409.289 212.411 393.403 205.325 373.22 199.39C349.757 192.49 340.456 192.319 316.178 195.175C297.803 197.336 288.672 200.457 272.742 209.928C256.441 219.62 250.596 224.445 237.68 238.38C228.498 248.288 220.998 256.399 213.084 267.36C200.455 284.851 192.151 296.866 186.918 320.199C183.386 335.947 182.8 350.533 168.079 356.933C161.283 359.888 148.716 358.88 148.716 358.88" stroke="#B07A5C" stroke-width="5" stroke-linecap="round"/>
<ellipse cx="11.513" cy="10.0111" rx="11.513" ry="10.0111" transform="matrix(-1 0 0 1 65.5083 169.197)" fill="black"/>
<ellipse cx="2.6166" cy="2.6345" rx="2.6166" ry="2.6345" transform="matrix(-1 0 0 1 50.8555 174.465)" fill="white"/>
<path d="M25.7361 223.64C43.4293 222.448 52.7941 219.067 68.7092 208.187" stroke="#5E8A4A" stroke-opacity="0.8" stroke-width="5" stroke-linecap="round"/>
</svg>
