<svg width="600" height="600" viewBox="0 0 600 600" fill="none" xmlns="http://www.w3.org/2000/svg">
<path d="M383.386 395.327C379.115 399.594 383.688 417.058 383.688 417.058C391.585 415.236 400.976 411.077 407.885 409.483C407.885 409.483 390.37 388.346 383.386 395.327Z" fill="#FFF079"/>
<path d="M383.386 395.327C379.115 399.594 383.688 417.058 383.688 417.058C391.585 415.236 400.976 411.077 407.885 409.483C407.885 409.483 390.37 388.346 383.386 395.327Z" stroke="#FFF079" stroke-width="5"/>
<path d="M383.386 395.327C379.115 399.594 383.688 417.058 383.688 417.058C391.585 415.236 400.976 411.077 407.885 409.483C407.885 409.483 390.37 388.346 383.386 395.327Z" stroke="black" stroke-opacity="0.2" stroke-width="5"/>
<path d="M419.481 378.185C417.008 383.59 427.598 398.497 427.598 398.497C434.357 394.203 441.679 387.227 447.594 383.47C447.594 383.47 423.525 369.345 419.481 378.185Z" fill="#FFF079"/>
<path d="M419.481 378.185C417.008 383.59 427.598 398.497 427.598 398.497C434.357 394.203 441.679 387.227 447.594 383.47C447.594 383.47 423.525 369.345 419.481 378.185Z" stroke="#FFF079" stroke-width="5"/>
<path d="M419.481 378.185C417.008 383.59 427.598 398.497 427.598 398.497C434.357 394.203 441.679 387.227 447.594 383.47C447.594 383.47 423.525 369.345 419.481 378.185Z" stroke="black" stroke-opacity="0.2" stroke-width="5"/>
<path d="M440.413 353.935C441.42 359.752 458.812 366.787 458.812 366.787C462.038 359.684 464.206 350.038 467.029 343.823C467.029 343.823 438.766 344.42 440.413 353.935Z" fill="#FFF079"/>
<path d="M440.413 353.935C441.42 359.752 458.812 366.787 458.812 366.787C462.038 359.684 464.206 350.038 467.029 343.823C467.029 343.823 438.766 344.42 440.413 353.935Z" stroke="#FFF079" stroke-width="5"/>
<path d="M440.413 353.935C441.42 359.752 458.812 366.787 458.812 366.787C462.038 359.684 464.206 350.038 467.029 343.823C467.029 343.823 438.766 344.42 440.413 353.935Z" stroke="black" stroke-opacity="0.2" stroke-width="5"/>
<path d="M430.35 394.898C385.547 425.783 290.752 436.149 290.752 436.149L322.959 475.377C322.959 475.377 389.996 498.606 430.35 486.842C465.818 476.502 491.427 464.414 505.745 431.822C517.747 404.503 513.95 383.768 503.052 356.032C492.973 330.381 458.067 300.511 458.067 300.511C458.067 300.511 469.623 338.269 460.708 359.855C453.889 376.366 445.806 384.243 430.35 394.898Z" fill="#8FB905"/>
<path d="M430.35 394.898C385.547 425.783 290.752 436.149 290.752 436.149L322.959 475.377C322.959 475.377 389.996 498.606 430.35 486.842C465.818 476.502 491.427 464.414 505.745 431.822C517.747 404.503 513.95 383.768 503.052 356.032C492.973 330.381 458.067 300.511 458.067 300.511C458.067 300.511 469.623 338.269 460.708 359.855C453.889 376.366 445.806 384.243 430.35 394.898Z" stroke="#8FB905" stroke-width="5"/>
<path d="M430.35 394.898C385.547 425.783 290.752 436.149 290.752 436.149L322.959 475.377C322.959 475.377 389.996 498.606 430.35 486.842C465.818 476.502 491.427 464.414 505.745 431.822C517.747 404.503 513.95 383.768 503.052 356.032C492.973 330.381 458.067 300.511 458.067 300.511C458.067 300.511 469.623 338.269 460.708 359.855C453.889 376.366 445.806 384.243 430.35 394.898Z" stroke="black" stroke-opacity="0.2" stroke-width="5"/>
<path d="M238.613 36.0943C185.264 33.8966 110.154 70.8257 110.154 70.8257H347.802C347.802 70.8257 284.98 38.0045 238.613 36.0943Z" fill="#8FB905"/>
<path d="M238.613 36.0943C185.264 33.8966 110.154 70.8257 110.154 70.8257H347.802C347.802 70.8257 284.98 38.0045 238.613 36.0943Z" stroke="#8FB905" stroke-width="5"/>
<path d="M238.613 36.0943C185.264 33.8966 110.154 70.8257 110.154 70.8257H347.802C347.802 70.8257 284.98 38.0045 238.613 36.0943Z" stroke="black" stroke-opacity="0.2" stroke-width="5"/>
<path d="M127.677 317.861C124.801 325.5 76.1827 456.427 115.488 512.586C158.143 573.531 325.719 581.27 360.247 512.586C394.775 443.902 348.064 323.69 345.013 317.861C345.013 317.861 130.099 311.425 127.677 317.861Z" fill="#8FB905"/>
<path d="M127.677 317.861C124.801 325.5 76.1827 456.427 115.488 512.586C158.143 573.531 325.719 581.27 360.247 512.586C394.775 443.902 348.064 323.69 345.013 317.861C345.013 317.861 130.099 311.425 127.677 317.861Z" stroke="#8FB905" stroke-width="5"/>
<path d="M127.677 317.861C124.801 325.5 76.1827 456.427 115.488 512.586C158.143 573.531 325.719 581.27 360.247 512.586C394.775 443.902 348.064 323.69 345.013 317.861C345.013 317.861 130.099 311.425 127.677 317.861Z" stroke="black" stroke-opacity="0.2" stroke-width="5"/>
<path d="M321.398 438.43C321.398 503.61 285.783 551.184 240.912 551.184C196.04 551.184 158.904 503.61 158.904 438.43C158.904 373.249 202.777 334.967 240.151 320.409C275.9 336.007 321.398 373.249 321.398 438.43Z" fill="#FFF079"/>
<path d="M321.398 438.43C321.398 503.61 285.783 551.184 240.912 551.184C196.04 551.184 158.904 503.61 158.904 438.43C158.904 373.249 202.777 334.967 240.151 320.409C275.9 336.007 321.398 373.249 321.398 438.43Z" stroke="#FFF079" stroke-width="5"/>
<path d="M321.398 438.43C321.398 503.61 285.783 551.184 240.912 551.184C196.04 551.184 158.904 503.61 158.904 438.43C158.904 373.249 202.777 334.967 240.151 320.409C275.9 336.007 321.398 373.249 321.398 438.43Z" stroke="black" stroke-opacity="0.2" stroke-width="5"/>
<path d="M240.892 351.904L239.896 545.38" stroke="#A9AD5B" stroke-opacity="0.8" stroke-width="5" stroke-linecap="round"/>
<path d="M307.941 392.534C247.068 408.055 230.233 408.048 171.852 392.534" stroke="#A9AD5B" stroke-opacity="0.8" stroke-width="5" stroke-linecap="round"/>
<path d="M316.066 450.577C255.192 466.098 223.124 466.092 164.743 450.577" stroke="#A9AD5B" stroke-opacity="0.8" stroke-width="5" stroke-linecap="round"/>
<path d="M297.785 510.555C256.146 524.098 225.678 524.098 183.023 510.554" stroke="#A9AD5B" stroke-opacity="0.8" stroke-width="5" stroke-linecap="round"/>
<path d="M437.177 206.138C437.177 308.717 348.057 357.049 238.122 357.049C128.186 357.049 39.0662 308.717 39.0662 206.138C19.7669 -16.2389 139.608 68.7702 234.058 68.7701C328.507 68.7701 451.394 -32.6843 437.177 206.138Z" fill="#8FB905"/>
<path d="M437.177 206.138C437.177 308.717 348.057 357.049 238.122 357.049C128.186 357.049 39.0662 308.717 39.0662 206.138C19.7669 -16.2389 139.608 68.7702 234.058 68.7701C328.507 68.7701 451.394 -32.6843 437.177 206.138Z" stroke="#8FB905" stroke-width="5"/>
<path d="M437.177 206.138C437.177 308.717 348.057 357.049 238.122 357.049C128.186 357.049 39.0662 308.717 39.0662 206.138C19.7669 -16.2389 139.608 68.7702 234.058 68.7701C328.507 68.7701 451.394 -32.6843 437.177 206.138Z" stroke="black" stroke-opacity="0.2" stroke-width="5"/>
<ellipse cx="36.7832" cy="42.2828" rx="36.7832" ry="42.2828" transform="matrix(-0.962432 0.288643 0.223963 0.965292 386.418 70.1677)" fill="black" stroke="#504B4F"/>
<ellipse cx="10.4876" cy="8.68506" rx="10.4876" ry="8.68506" transform="matrix(-0.830811 0.541768 0.599904 0.811567 351.171 94.2329)" fill="white" stroke="#504B4F"/>
<ellipse cx="36.5708" cy="42.5097" rx="36.5708" ry="42.5097" transform="matrix(-0.968022 0.29032 0.222767 0.96014 145.21 74.5181)" fill="black" stroke="#504B4F"/>
<ellipse cx="10.4184" cy="8.74579" rx="10.4184" ry="8.74579" transform="matrix(-0.836332 0.545368 0.595738 0.805932 109.963 98.5833)" fill="white" stroke="#504B4F"/>
<path d="M284.924 513.763C293.921 488.088 301.725 474.631 316.756 455.72L323.122 447.981L370.146 455.72C356.541 488.957 354.912 513.763 321 523.437C300.84 521.502 299.757 513.777 284.924 513.763Z" fill="#8FB905"/>
<path d="M319.02 445.146C319.02 445.146 287.97 489.58 282.892 514.732C279.632 530.881 301.7 526.34 316.407 526.34C342.943 526.34 360.562 496.252 365.155 458.624C370.233 417.026 365.155 385.223 365.155 385.223" stroke="#729404" stroke-width="5" stroke-linecap="round"/>
<path d="M245.986 547.323C228.168 544.439 280.197 517.633 280.197 517.633C294.608 516.233 302.487 516.033 318.969 525.372C318.969 525.372 329.2 552.204 318.969 556.013C311.051 558.961 299.203 547.323 299.203 547.323C299.203 547.323 287.902 558.775 280.197 556.013C273.234 553.517 271.074 540.082 271.074 540.082C271.074 540.082 256.079 548.957 245.986 547.323Z" fill="#8FB905"/>
<path d="M245.986 547.323C228.168 544.439 280.197 517.633 280.197 517.633C294.608 516.233 302.487 516.033 318.969 525.372C318.969 525.372 329.2 552.204 318.969 556.013C311.051 558.961 299.203 547.323 299.203 547.323C299.203 547.323 287.902 558.775 280.197 556.013C273.234 553.517 271.074 540.082 271.074 540.082C271.074 540.082 256.079 548.957 245.986 547.323Z" stroke="#8FB905" stroke-width="5"/>
<path d="M245.986 547.323C228.168 544.439 280.197 517.633 280.197 517.633C294.608 516.233 302.487 516.033 318.969 525.372C318.969 525.372 329.2 552.204 318.969 556.013C311.051 558.961 299.203 547.323 299.203 547.323C299.203 547.323 287.902 558.775 280.197 556.013C273.234 553.517 271.074 540.082 271.074 540.082C271.074 540.082 256.079 548.957 245.986 547.323Z" stroke="black" stroke-opacity="0.2" stroke-width="5"/>
<path d="M185.543 513.764C176.545 488.089 168.741 474.631 153.711 455.721L147.344 447.982L110.155 455.721C110.155 495.383 120.311 513.764 149.466 523.437C169.627 521.503 170.71 513.778 185.543 513.764Z" fill="#8FB905"/>
<path d="M151.447 445.146C151.447 445.146 182.496 489.579 187.574 514.731C190.834 530.881 168.766 526.34 154.059 526.34C127.523 526.34 109.905 496.252 105.311 458.623C100.233 417.026 108.123 385.223 108.123 385.223" stroke="#729404" stroke-width="5" stroke-linecap="round"/>
<path d="M224.48 547.324C242.299 544.44 190.27 517.634 190.27 517.634C175.859 516.234 167.979 516.034 151.497 525.373C151.497 525.373 141.266 552.205 151.497 556.014C159.416 558.962 171.264 547.324 171.264 547.324C171.264 547.324 182.564 558.776 190.27 556.014C197.233 553.518 199.392 540.083 199.392 540.083C199.392 540.083 214.388 548.958 224.48 547.324Z" fill="#8FB905"/>
<path d="M224.48 547.324C242.299 544.44 190.27 517.634 190.27 517.634C175.859 516.234 167.979 516.034 151.497 525.373C151.497 525.373 141.266 552.205 151.497 556.014C159.416 558.962 171.264 547.324 171.264 547.324C171.264 547.324 182.564 558.776 190.27 556.014C197.233 553.518 199.392 540.083 199.392 540.083C199.392 540.083 214.388 548.958 224.48 547.324Z" stroke="#8FB905" stroke-width="5"/>
<path d="M224.48 547.324C242.299 544.44 190.27 517.634 190.27 517.634C175.859 516.234 167.979 516.034 151.497 525.373C151.497 525.373 141.266 552.205 151.497 556.014C159.416 558.962 171.264 547.324 171.264 547.324C171.264 547.324 182.564 558.776 190.27 556.014C197.233 553.518 199.392 540.083 199.392 540.083C199.392 540.083 214.388 548.958 224.48 547.324Z" stroke="black" stroke-opacity="0.2" stroke-width="5"/>
<path d="M55.9135 509.674C23.385 518.131 90.0241 575.745 121.195 563.499C151.687 551.521 159.584 467.884 131.023 483.598C122.878 488.079 113.474 499.31 113.474 499.31C113.474 499.31 102.859 481.459 92.7662 483.598C81.7227 485.938 83.2898 509.674 83.2898 509.674C83.2898 509.674 66.2273 506.993 55.9135 509.674Z" fill="#8FB905"/>
<path d="M55.9135 509.674C23.385 518.131 90.0241 575.745 121.195 563.499C151.687 551.521 159.584 467.884 131.023 483.598C122.878 488.079 113.474 499.31 113.474 499.31C113.474 499.31 102.859 481.459 92.7662 483.598C81.7227 485.938 83.2898 509.674 83.2898 509.674C83.2898 509.674 66.2273 506.993 55.9135 509.674Z" stroke="#8FB905" stroke-width="5"/>
<path d="M55.9135 509.674C23.385 518.131 90.0241 575.745 121.195 563.499C151.687 551.521 159.584 467.884 131.023 483.598C122.878 488.079 113.474 499.31 113.474 499.31C113.474 499.31 102.859 481.459 92.7662 483.598C81.7227 485.938 83.2898 509.674 83.2898 509.674C83.2898 509.674 66.2273 506.993 55.9135 509.674Z" stroke="black" stroke-opacity="0.2" stroke-width="5"/>
<path d="M424.108 507.095C456.637 515.553 389.998 573.166 358.826 560.921C328.335 548.942 320.438 465.305 348.999 481.019C357.144 485.5 366.548 496.732 366.548 496.732C366.548 496.732 377.163 478.88 387.256 481.019C398.299 483.359 396.732 507.095 396.732 507.095C396.732 507.095 413.794 504.414 424.108 507.095Z" fill="#8FB905"/>
<path d="M424.108 507.095C456.637 515.553 389.998 573.166 358.826 560.921C328.335 548.942 320.438 465.305 348.999 481.019C357.144 485.5 366.548 496.732 366.548 496.732C366.548 496.732 377.163 478.88 387.256 481.019C398.299 483.359 396.732 507.095 396.732 507.095C396.732 507.095 413.794 504.414 424.108 507.095Z" stroke="#8FB905" stroke-width="5"/>
<path d="M424.108 507.095C456.637 515.553 389.998 573.166 358.826 560.921C328.335 548.942 320.438 465.305 348.999 481.019C357.144 485.5 366.548 496.732 366.548 496.732C366.548 496.732 377.163 478.88 387.256 481.019C398.299 483.359 396.732 507.095 396.732 507.095C396.732 507.095 413.794 504.414 424.108 507.095Z" stroke="black" stroke-opacity="0.2" stroke-width="5"/>
<path d="M115.34 284.595C103.003 284.595 88.1143 271.408 77.6554 291.388C67.1965 311.369 139.65 357.17 239.87 357.17C340.091 357.17 401.007 313.541 396.551 291.388C387.953 271.118 383.812 284.595 371.475 284.595C359.138 284.595 334.491 282.479 326.93 281.696C300.135 278.92 308.707 264.302 239.87 264.302C171.034 264.302 176.498 278.938 150.774 281.696C141.788 282.659 127.677 284.595 115.34 284.595Z" fill="#FFF079"/>
<path d="M115.34 284.595C103.003 284.595 88.1143 271.408 77.6554 291.388C67.1965 311.369 139.65 357.17 239.87 357.17C340.091 357.17 401.007 313.541 396.551 291.388C387.953 271.118 383.812 284.595 371.475 284.595C359.138 284.595 334.491 282.479 326.93 281.696C300.135 278.92 308.707 264.302 239.87 264.302C171.034 264.302 176.498 278.938 150.774 281.696C141.788 282.659 127.677 284.595 115.34 284.595Z" stroke="#FFF079" stroke-width="5"/>
<path d="M115.34 284.595C103.003 284.595 88.1143 271.408 77.6554 291.388C67.1965 311.369 139.65 357.17 239.87 357.17C340.091 357.17 401.007 313.541 396.551 291.388C387.953 271.118 383.812 284.595 371.475 284.595C359.138 284.595 334.491 282.479 326.93 281.696C300.135 278.92 308.707 264.302 239.87 264.302C171.034 264.302 176.498 278.938 150.774 281.696C141.788 282.659 127.677 284.595 115.34 284.595Z" stroke="black" stroke-opacity="0.2" stroke-width="5"/>
<path d="M234.164 226.118C235.159 230.456 223.835 228.27 219.895 229.09C215.955 229.911 206.672 231.192 205.676 226.854C204.681 222.516 205.57 217.347 216.668 215.035C227.766 212.723 233.168 221.78 234.164 226.118Z" fill="#729404"/>
<path d="M244.654 226.118C243.658 230.456 254.983 228.27 258.923 229.09C262.863 229.911 272.145 231.192 273.141 226.854C274.137 222.516 273.247 217.347 262.15 215.035C251.052 212.723 245.65 221.78 244.654 226.118Z" fill="#729404"/>
<path d="M271.633 294.633C263.825 289.848 262.493 264.302 262.493 264.302C274.68 264.302 288.898 266.236 299.054 272.041C299.054 272.041 284.404 302.46 271.633 294.633Z" fill="white"/>
<path d="M271.633 294.633C263.825 289.848 262.493 264.302 262.493 264.302C274.68 264.302 288.898 266.236 299.054 272.041C299.054 272.041 284.404 302.46 271.633 294.633Z" stroke="white" stroke-width="5"/>
<path d="M271.633 294.633C263.825 289.848 262.493 264.302 262.493 264.302C274.68 264.302 288.898 266.236 299.054 272.041C299.054 272.041 284.404 302.46 271.633 294.633Z" stroke="black" stroke-opacity="0.2" stroke-width="5"/>
<path d="M345.772 303.87C340.566 300.68 340.693 282.682 340.693 282.682C348.818 282.682 358.973 284.617 366.083 284.617C366.083 284.617 354.285 309.088 345.772 303.87Z" fill="white"/>
<path d="M345.772 303.87C340.566 300.68 340.693 282.682 340.693 282.682C348.818 282.682 358.973 284.617 366.083 284.617C366.083 284.617 354.285 309.088 345.772 303.87Z" stroke="white" stroke-width="5"/>
<path d="M345.772 303.87C340.566 300.68 340.693 282.682 340.693 282.682C348.818 282.682 358.973 284.617 366.083 284.617C366.083 284.617 354.285 309.088 345.772 303.87Z" stroke="black" stroke-opacity="0.2" stroke-width="5"/>
<path d="M140.621 304.837C145.826 301.647 144.684 281.714 144.684 281.714C136.56 281.714 126.404 284.616 119.294 284.616C119.294 284.616 132.107 310.055 140.621 304.837Z" fill="white"/>
<path d="M140.621 304.837C145.826 301.647 144.684 281.714 144.684 281.714C136.56 281.714 126.404 284.616 119.294 284.616C119.294 284.616 132.107 310.055 140.621 304.837Z" stroke="white" stroke-width="5"/>
<path d="M140.621 304.837C145.826 301.647 144.684 281.714 144.684 281.714C136.56 281.714 126.404 284.616 119.294 284.616C119.294 284.616 132.107 310.055 140.621 304.837Z" stroke="black" stroke-opacity="0.2" stroke-width="5"/>
<path d="M208.666 294.633C216.474 289.848 217.807 264.302 217.807 264.302C205.62 264.302 196.479 265.269 184.292 270.106C184.292 270.106 195.895 302.46 208.666 294.633Z" fill="white"/>
<path d="M208.666 294.633C216.474 289.848 217.807 264.302 217.807 264.302C205.62 264.302 196.479 265.269 184.292 270.106C184.292 270.106 195.895 302.46 208.666 294.633Z" stroke="white" stroke-width="5"/>
<path d="M208.666 294.633C216.474 289.848 217.807 264.302 217.807 264.302C205.62 264.302 196.479 265.269 184.292 270.106C184.292 270.106 195.895 302.46 208.666 294.633Z" stroke="black" stroke-opacity="0.2" stroke-width="5"/>
<path d="M181.245 202.541C227.249 181.873 253.043 181.53 299.054 202.541" stroke="#729404" stroke-width="5" stroke-linecap="round"/>
</svg>
