<svg width="161" height="161" viewBox="0 0 161 161" fill="none" xmlns="http://www.w3.org/2000/svg">
<path d="M85.31 38C84.95 38 84.65 37.88 84.41 37.64C84.17 37.4 84.05 37.1 84.05 36.74C84.05 36.38 84.17 36.08 84.41 35.84C84.65 35.58 84.95 35.45 85.31 35.45H88.88V20.24L85.82 21.74C85.54 21.86 85.31 21.92 85.13 21.92C84.75 21.92 84.44 21.8 84.2 21.56C83.96 21.32 83.84 21.01 83.84 20.63C83.84 20.07 84.1 19.66 84.62 19.4L88.7 17.27C88.98 17.13 89.26 17.06 89.54 17.06H90.17C90.57 17.06 90.91 17.2 91.19 17.48C91.47 17.76 91.61 18.1 91.61 18.5V35.45H94.58C94.94 35.45 95.24 35.58 95.48 35.84C95.74 36.08 95.87 36.38 95.87 36.74C95.87 37.1 95.74 37.4 95.48 37.64C95.24 37.88 94.94 38 94.58 38H85.31Z" fill="black"/>
<path d="M9.54 111C9.08 111 8.7 110.86 8.4 110.58C8.1 110.28 7.95 109.9 7.95 109.44C7.95 108.4 8.25 107.44 8.85 106.56C9.47 105.68 10.21 104.91 11.07 104.25C11.95 103.57 13.1 102.77 14.52 101.85C15.74 101.07 16.71 100.41 17.43 99.87C18.15 99.33 18.75 98.74 19.23 98.1C19.71 97.46 19.95 96.78 19.95 96.06C19.95 94.92 19.57 94.02 18.81 93.36C18.07 92.68 16.87 92.34 15.21 92.34C13.41 92.34 11.7 92.7 10.08 93.42C9.88 93.52 9.69 93.57 9.51 93.57C9.19 93.57 8.92 93.46 8.7 93.24C8.48 93.02 8.37 92.74 8.37 92.4C8.37 91.9 8.59 91.53 9.03 91.29C11.07 90.27 13.29 89.76 15.69 89.76C16.97 89.76 18.13 90.02 19.17 90.54C20.23 91.04 21.06 91.75 21.66 92.67C22.28 93.59 22.59 94.65 22.59 95.85C22.59 97.03 22.24 98.13 21.54 99.15C20.86 100.15 20.04 101.03 19.08 101.79C18.12 102.55 16.87 103.43 15.33 104.43C13.93 105.37 12.87 106.13 12.15 106.71C11.45 107.27 10.96 107.85 10.68 108.45H21.12C21.48 108.45 21.78 108.58 22.02 108.84C22.28 109.08 22.41 109.38 22.41 109.74C22.41 110.1 22.28 110.4 22.02 110.64C21.78 110.88 21.48 111 21.12 111H9.54Z" fill="black"/>
<path d="M110.82 142.3C108.6 142.3 106.51 141.9 104.55 141.1C104.31 141 104.12 140.86 103.98 140.68C103.84 140.48 103.77 140.24 103.77 139.96C103.77 139.62 103.88 139.33 104.1 139.09C104.34 138.83 104.63 138.7 104.97 138.7C105.15 138.7 105.34 138.74 105.54 138.82C106.98 139.4 108.57 139.69 110.31 139.69C111.87 139.69 113.18 139.44 114.24 138.94C115.32 138.42 115.86 137.56 115.86 136.36C115.86 133.84 113.65 132.58 109.23 132.58H108.75C108.41 132.58 108.11 132.46 107.85 132.22C107.61 131.96 107.49 131.66 107.49 131.32C107.49 130.98 107.61 130.69 107.85 130.45C108.11 130.19 108.41 130.06 108.75 130.06H108.93C110.93 130.06 112.46 129.76 113.52 129.16C114.58 128.54 115.11 127.63 115.11 126.43C115.11 125.47 114.71 124.71 113.91 124.15C113.11 123.59 111.93 123.31 110.37 123.31C108.69 123.31 107.14 123.64 105.72 124.3C105.52 124.38 105.34 124.42 105.18 124.42C104.88 124.42 104.62 124.32 104.4 124.12C104.18 123.9 104.07 123.63 104.07 123.31C104.07 122.85 104.27 122.51 104.67 122.29C106.59 121.27 108.57 120.76 110.61 120.76C112.91 120.76 114.69 121.23 115.95 122.17C117.21 123.11 117.84 124.44 117.84 126.16C117.84 127.54 117.49 128.63 116.79 129.43C116.11 130.21 115.25 130.79 114.21 131.17C115.35 131.43 116.36 131.98 117.24 132.82C118.14 133.64 118.59 134.87 118.59 136.51C118.59 138.35 117.86 139.78 116.4 140.8C114.96 141.8 113.1 142.3 110.82 142.3Z" fill="black"/>
<path d="M145.99 93.15C145.61 93.15 145.29 93.02 145.03 92.76C144.77 92.5 144.64 92.18 144.64 91.8V87.72H135.49C135.01 87.72 134.6 87.56 134.26 87.24C133.92 86.9 133.75 86.49 133.75 86.01V85.74C133.75 85.32 133.87 84.96 134.11 84.66L143.53 72.63C143.69 72.41 143.9 72.24 144.16 72.12C144.44 71.98 144.73 71.91 145.03 71.91H145.63C146.15 71.91 146.57 72.08 146.89 72.42C147.21 72.74 147.37 73.15 147.37 73.65V85.29H149.65C149.99 85.29 150.28 85.41 150.52 85.65C150.76 85.89 150.88 86.18 150.88 86.52C150.88 86.86 150.76 87.15 150.52 87.39C150.28 87.61 149.99 87.72 149.65 87.72H147.37V91.8C147.37 92.18 147.23 92.5 146.95 92.76C146.69 93.02 146.37 93.15 145.99 93.15ZM136.66 85.29H144.64V75L136.66 85.29Z" fill="black"/>
<path d="M68 28L36 102.5L89 133" stroke="black" stroke-width="7"/>
<circle cx="68" cy="29" r="11.5" fill="white" stroke="black" stroke-width="5"/>
<circle cx="37" cy="102" r="11.5" fill="white" stroke="black" stroke-width="5"/>
<circle cx="89" cy="133" r="11.5" fill="white" stroke="black" stroke-width="5"/>
<circle cx="121" cy="78" r="11.5" fill="white" stroke="black" stroke-width="5"/>
</svg>
