<svg width="600" height="600" viewBox="0 0 600 600" fill="none" xmlns="http://www.w3.org/2000/svg">
<path d="M413.548 464.84L314.102 407.955L331.307 404.241C331.307 404.241 421.781 444.149 452.141 464.84C465.875 474.2 445.359 476.547 436.381 478.534C380.789 490.84 318.904 505.487 318.904 505.487C318.904 505.487 324.548 509.49 335.608 515.681C338.68 517.401 340.582 520.776 332.536 525.587C325.777 529.628 313.487 529.92 301.198 521.872C291.269 515.37 281.207 506.435 285.836 497.107C290.752 487.202 307.34 485.822 318.904 483.112C363.47 472.671 413.548 464.84 413.548 464.84Z" fill="#FE9F45"/>
<path d="M413.548 464.84L314.102 407.955L331.307 404.241C331.307 404.241 421.781 444.149 452.141 464.84C465.875 474.2 445.359 476.547 436.381 478.534C380.789 490.84 318.904 505.487 318.904 505.487C318.904 505.487 324.548 509.49 335.608 515.681C338.68 517.401 340.582 520.776 332.536 525.587C325.777 529.628 313.487 529.92 301.198 521.872C291.269 515.37 281.207 506.435 285.836 497.107C290.752 487.202 307.34 485.822 318.904 483.112C363.47 472.671 413.548 464.84 413.548 464.84Z" stroke="#FF9C3E" stroke-width="5"/>
<path d="M413.548 464.84L314.102 407.955L331.307 404.241C331.307 404.241 421.781 444.149 452.141 464.84C465.875 474.2 445.359 476.547 436.381 478.534C380.789 490.84 318.904 505.487 318.904 505.487C318.904 505.487 324.548 509.49 335.608 515.681C338.68 517.401 340.582 520.776 332.536 525.587C325.777 529.628 313.487 529.92 301.198 521.872C291.269 515.37 281.207 506.435 285.836 497.107C290.752 487.202 307.34 485.822 318.904 483.112C363.47 472.671 413.548 464.84 413.548 464.84Z" stroke="black" stroke-opacity="0.2" stroke-width="5"/>
<path d="M351.389 445.121V396.192H369.743V445.121C369.743 445.121 377.516 451.516 377.39 457.065C377.241 463.663 365.919 469.393 365.919 469.393V575.728C365.919 575.728 340.327 578.81 323.857 578.81C314.716 578.81 307.418 578.1 304.356 570.334C300.38 560.249 311.644 553.447 323.857 550.685C333.319 548.546 348.33 546.447 348.33 546.447L351.389 469.393C351.389 469.393 340.966 463.363 341.064 457.065C341.161 450.88 351.389 445.121 351.389 445.121Z" fill="#FF9C3E"/>
<path d="M351.389 445.121V396.192H369.743V445.121C369.743 445.121 377.516 451.516 377.39 457.065C377.241 463.663 365.919 469.393 365.919 469.393V575.728C365.919 575.728 340.327 578.81 323.857 578.81C314.716 578.81 307.418 578.1 304.356 570.334C300.38 560.249 311.644 553.447 323.857 550.685C333.319 548.546 348.33 546.447 348.33 546.447L351.389 469.393C351.389 469.393 340.966 463.363 341.064 457.065C341.161 450.88 351.389 445.121 351.389 445.121Z" stroke="#FF9C3E" stroke-width="5"/>
<path d="M351.389 445.121V396.192H369.743V445.121C369.743 445.121 377.516 451.516 377.39 457.065C377.241 463.663 365.919 469.393 365.919 469.393V575.728C365.919 575.728 340.327 578.81 323.857 578.81C314.716 578.81 307.418 578.1 304.356 570.334C300.38 560.249 311.644 553.447 323.857 550.685C333.319 548.546 348.33 546.447 348.33 546.447L351.389 469.393C351.389 469.393 340.966 463.363 341.064 457.065C341.161 450.88 351.389 445.121 351.389 445.121Z" stroke="black" stroke-opacity="0.2" stroke-width="5"/>
<path d="M361.849 418.582C351.926 415.932 340.523 395.613 340.523 395.613L404.196 395.053C404.196 395.053 394.37 407.037 385.961 411.752C377.414 416.544 371.304 421.107 361.849 418.582Z" fill="#FFA4A0"/>
<path d="M361.849 418.582C351.926 415.932 340.523 395.613 340.523 395.613L404.196 395.053C404.196 395.053 394.37 407.037 385.961 411.752C377.414 416.544 371.304 421.107 361.849 418.582Z" stroke="#FEA69E" stroke-width="5"/>
<path d="M361.849 418.582C351.926 415.932 340.523 395.613 340.523 395.613L404.196 395.053C404.196 395.053 394.37 407.037 385.961 411.752C377.414 416.544 371.304 421.107 361.849 418.582Z" stroke="black" stroke-opacity="0.2" stroke-width="5"/>
<path d="M339.866 421.433C329.629 422.199 312.258 406.753 312.258 406.753L372.248 385.244C372.248 385.244 366.852 399.808 360.435 407.034C353.914 414.379 349.621 420.704 339.866 421.433Z" fill="#FFA4A0"/>
<path d="M339.866 421.433C329.629 422.199 312.258 406.753 312.258 406.753L372.248 385.244C372.248 385.244 366.852 399.808 360.435 407.034C353.914 414.379 349.621 420.704 339.866 421.433Z" stroke="#FEA69E" stroke-width="5"/>
<path d="M339.866 421.433C329.629 422.199 312.258 406.753 312.258 406.753L372.248 385.244C372.248 385.244 366.852 399.808 360.435 407.034C353.914 414.379 349.621 420.704 339.866 421.433Z" stroke="black" stroke-opacity="0.2" stroke-width="5"/>
<path d="M197.239 124.507C192.505 148.828 213.943 244.509 213.943 244.509L139.758 278.56C135.151 279.453 136.113 241.704 139.758 225.936C144.915 203.626 139.758 178.883 139.758 155.976C139.758 144.579 197.239 124.507 197.239 124.507Z" fill="#FEA69E"/>
<path d="M197.239 124.507C192.505 148.828 213.943 244.509 213.943 244.509L139.758 278.56C135.151 279.453 136.113 241.704 139.758 225.936C144.915 203.626 139.758 178.883 139.758 155.976C139.758 144.579 197.239 124.507 197.239 124.507Z" stroke="#FEA69E" stroke-width="5"/>
<path d="M197.239 124.507C192.505 148.828 213.943 244.509 213.943 244.509L139.758 278.56C135.151 279.453 136.113 241.704 139.758 225.936C144.915 203.626 139.758 178.883 139.758 155.976C139.758 144.579 197.239 124.507 197.239 124.507Z" stroke="black" stroke-opacity="0.2" stroke-width="5"/>
<path d="M528.551 177.752C480.812 209.67 376.163 115.056 213.92 240.795C186.907 253.796 129.521 250.506 138.517 278.066C153.621 324.341 167.463 349.869 213.92 376.999C255.18 401.095 295.088 411.242 342.764 410.096C410.624 408.466 468.454 394.315 507.659 354.711C560.202 301.635 626.866 112.019 528.551 177.752Z" fill="#FEA69E"/>
<path d="M528.551 177.752C480.812 209.67 376.163 115.056 213.92 240.795C186.907 253.796 129.521 250.506 138.517 278.066C153.621 324.341 167.463 349.869 213.92 376.999C255.18 401.095 295.088 411.242 342.764 410.096C410.624 408.466 468.454 394.315 507.659 354.711C560.202 301.635 626.866 112.019 528.551 177.752Z" stroke="#FEA69E" stroke-width="5"/>
<path d="M528.551 177.752C480.812 209.67 376.163 115.056 213.92 240.795C186.907 253.796 129.521 250.506 138.517 278.066C153.621 324.341 167.463 349.869 213.92 376.999C255.18 401.095 295.088 411.242 342.764 410.096C410.624 408.466 468.454 394.315 507.659 354.711C560.202 301.635 626.866 112.019 528.551 177.752Z" stroke="black" stroke-opacity="0.2" stroke-width="5"/>
<path fill-rule="evenodd" clip-rule="evenodd" d="M457.954 273.506C472.014 260.467 480.263 245.188 480.263 232.374C480.263 219.056 476.596 221.647 467.164 228.311C456.132 236.104 437.215 249.469 407.056 249.469C348.321 243.465 260.643 250.326 260.643 297.498C260.643 299.274 260.891 300.851 261.37 302.247C261.627 331.029 306.881 354.32 362.667 354.32C418.612 354.32 460.56 312.884 460.56 283.99C460.56 277.778 459.762 274.626 457.954 273.506Z" fill="#F4887E"/>
<path d="M457.954 273.506L456.254 271.673L453.848 273.903L456.637 275.631L457.954 273.506ZM467.164 228.311L468.606 230.353L468.607 230.353L467.164 228.311ZM407.056 249.469L406.802 251.956L406.929 251.969H407.056V249.469ZM261.37 302.247L263.87 302.225L263.867 301.819L263.735 301.436L261.37 302.247ZM477.763 232.374C477.763 244.214 470.052 258.877 456.254 271.673L459.654 275.339C473.976 262.057 482.763 246.162 482.763 232.374H477.763ZM468.607 230.353C470.999 228.663 472.894 227.326 474.447 226.422C476.126 225.446 476.849 225.324 477.032 225.34C477.034 225.34 476.994 225.336 476.936 225.309C476.876 225.282 476.842 225.251 476.836 225.245C476.834 225.243 476.873 225.281 476.935 225.395C476.999 225.51 477.079 225.688 477.163 225.95C477.527 227.08 477.763 229.081 477.763 232.374H482.763C482.763 229.009 482.541 226.34 481.923 224.418C481.606 223.436 481.133 222.472 480.375 221.713C479.566 220.902 478.561 220.455 477.469 220.359C475.557 220.191 473.595 221.134 471.933 222.101C470.145 223.141 468.045 224.627 465.721 226.269L468.607 230.353ZM407.056 251.969C438.036 251.969 457.499 238.2 468.606 230.353L465.721 226.269C454.765 234.009 436.394 246.969 407.056 246.969V251.969ZM263.143 297.498C263.143 286.612 268.151 278.017 276.805 271.214C285.538 264.349 297.936 259.367 312.394 255.977C341.291 249.201 377.594 248.971 406.802 251.956L407.311 246.982C377.783 243.964 340.879 244.162 311.253 251.109C296.45 254.58 283.257 259.782 273.715 267.283C264.094 274.846 258.143 284.798 258.143 297.498H263.143ZM263.735 301.436C263.358 300.338 263.143 299.041 263.143 297.498H258.143C258.143 299.507 258.424 301.364 259.006 303.059L263.735 301.436ZM362.667 351.82C335.089 351.82 310.236 346.057 292.338 336.853C274.313 327.584 263.986 315.211 263.87 302.225L258.87 302.269C259.011 318.064 271.439 331.728 290.052 341.3C308.791 350.936 334.459 356.82 362.667 356.82V351.82ZM458.06 283.99C458.06 297.359 448.222 314.298 431.032 328.037C413.953 341.687 390.021 351.82 362.667 351.82V356.82C391.259 356.82 416.273 346.234 434.154 331.943C451.924 317.74 463.06 299.515 463.06 283.99H458.06ZM456.637 275.631C456.741 275.695 457.153 276.017 457.51 277.444C457.861 278.851 458.06 280.951 458.06 283.99H463.06C463.06 280.817 462.86 278.235 462.361 276.233C461.866 274.251 460.975 272.437 459.27 271.381L456.637 275.631Z" fill="#F4887E"/>
<path d="M457.954 273.506L456.254 271.673L453.848 273.903L456.637 275.631L457.954 273.506ZM467.164 228.311L468.606 230.353L468.607 230.353L467.164 228.311ZM407.056 249.469L406.802 251.956L406.929 251.969H407.056V249.469ZM261.37 302.247L263.87 302.225L263.867 301.819L263.735 301.436L261.37 302.247ZM477.763 232.374C477.763 244.214 470.052 258.877 456.254 271.673L459.654 275.339C473.976 262.057 482.763 246.162 482.763 232.374H477.763ZM468.607 230.353C470.999 228.663 472.894 227.326 474.447 226.422C476.126 225.446 476.849 225.324 477.032 225.34C477.034 225.34 476.994 225.336 476.936 225.309C476.876 225.282 476.842 225.251 476.836 225.245C476.834 225.243 476.873 225.281 476.935 225.395C476.999 225.51 477.079 225.688 477.163 225.95C477.527 227.08 477.763 229.081 477.763 232.374H482.763C482.763 229.009 482.541 226.34 481.923 224.418C481.606 223.436 481.133 222.472 480.375 221.713C479.566 220.902 478.561 220.455 477.469 220.359C475.557 220.191 473.595 221.134 471.933 222.101C470.145 223.141 468.045 224.627 465.721 226.269L468.607 230.353ZM407.056 251.969C438.036 251.969 457.499 238.2 468.606 230.353L465.721 226.269C454.765 234.009 436.394 246.969 407.056 246.969V251.969ZM263.143 297.498C263.143 286.612 268.151 278.017 276.805 271.214C285.538 264.349 297.936 259.367 312.394 255.977C341.291 249.201 377.594 248.971 406.802 251.956L407.311 246.982C377.783 243.964 340.879 244.162 311.253 251.109C296.45 254.58 283.257 259.782 273.715 267.283C264.094 274.846 258.143 284.798 258.143 297.498H263.143ZM263.735 301.436C263.358 300.338 263.143 299.041 263.143 297.498H258.143C258.143 299.507 258.424 301.364 259.006 303.059L263.735 301.436ZM362.667 351.82C335.089 351.82 310.236 346.057 292.338 336.853C274.313 327.584 263.986 315.211 263.87 302.225L258.87 302.269C259.011 318.064 271.439 331.728 290.052 341.3C308.791 350.936 334.459 356.82 362.667 356.82V351.82ZM458.06 283.99C458.06 297.359 448.222 314.298 431.032 328.037C413.953 341.687 390.021 351.82 362.667 351.82V356.82C391.259 356.82 416.273 346.234 434.154 331.943C451.924 317.74 463.06 299.515 463.06 283.99H458.06ZM456.637 275.631C456.741 275.695 457.153 276.017 457.51 277.444C457.861 278.851 458.06 280.951 458.06 283.99H463.06C463.06 280.817 462.86 278.235 462.361 276.233C461.866 274.251 460.975 272.437 459.27 271.381L456.637 275.631Z" fill="black" fill-opacity="0.2"/>
<path fill-rule="evenodd" clip-rule="evenodd" d="M410.724 293.671C418.354 286.596 422.83 278.305 422.83 271.352C422.83 264.125 420.84 265.531 415.721 269.147C409.735 273.376 399.47 280.628 383.105 280.628C351.233 277.37 303.656 281.093 303.656 306.69C303.656 307.654 303.79 308.51 304.051 309.268C304.191 324.885 328.747 337.523 359.018 337.523C389.376 337.523 412.138 315.039 412.138 299.36C412.138 295.989 411.705 294.279 410.724 293.671Z" fill="#FF6A5C"/>
<ellipse cx="132.833" cy="95.3035" rx="71.2783" ry="74.2935" fill="#FEA69E"/>
<ellipse cx="132.833" cy="95.3035" rx="71.2783" ry="74.2935" stroke="#FEA69E" stroke-width="5"/>
<ellipse cx="132.833" cy="95.3035" rx="71.2783" ry="74.2935" stroke="black" stroke-opacity="0.2" stroke-width="5"/>
<ellipse cx="129.147" cy="76.179" rx="24.5787" ry="24.2142" fill="white"/>
<ellipse cx="118.223" cy="76.5033" rx="13.6549" ry="13.4523" fill="black"/>
<ellipse cx="130.99" cy="70.5383" rx="10.446" ry="6.19112" fill="white" fill-opacity="0.6"/>
<path d="M87.6762 137.719C81.9455 143.779 75.3229 141.871 67.9251 145.679C56.5181 151.552 53.6891 167.216 41.1199 164.727C31.1018 162.743 26.7181 155.284 23.0617 145.679C18.2609 133.069 22.5489 123.563 28.7049 111.564C35.5807 98.1631 50.8881 81.4463 65.8562 81.0645C74.044 80.8557 72.2413 85.5762 76.672 92.5168C81.2179 99.6379 91.6639 109.544 94.7302 119.525C96.969 126.812 92.899 132.197 87.6762 137.719Z" fill="#FEE3C8"/>
<path d="M36.9237 164.93C41.3752 167.213 46.9002 167.636 50.7374 164.414C53.8072 161.837 56.7305 158.797 57.9001 155.136C59.4122 150.403 55.6676 147.177 52.5899 143.29C48.9567 138.702 44.3985 135.031 38.7761 133.496C33.3764 132.022 27.6442 131.63 23.6215 135.547C18.5686 140.468 23.1396 149.904 26.6912 156.167C28.7377 159.775 33.0022 162.919 36.9237 164.93Z" fill="#3D3D3D"/>
</svg>
