<svg width="600" height="600" viewBox="0 0 600 600" fill="none" xmlns="http://www.w3.org/2000/svg">
<g clip-path="url(#clip0_4_683)">
<path d="M256.479 532.654L284.469 577.633" stroke="black" stroke-width="20" stroke-linecap="round"/>
<path d="M253.18 537.459L246.504 580.689" stroke="black" stroke-width="20" stroke-linecap="round"/>
<path d="M252.424 532.369L215.442 558.148" stroke="black" stroke-width="20" stroke-linecap="round"/>
<path d="M352.69 534.785L324.7 579.764" stroke="black" stroke-width="20" stroke-linecap="round"/>
<path d="M355.989 539.589L362.665 582.819" stroke="black" stroke-width="20" stroke-linecap="round"/>
<path d="M356.746 534.5L393.727 560.279" stroke="black" stroke-width="20" stroke-linecap="round"/>
<path d="M206.168 333.477C203.725 340.29 162.419 457.067 195.812 507.157C232.051 561.516 374.421 568.418 403.756 507.157C433.091 445.896 393.406 338.676 390.814 333.477C390.814 333.477 208.225 327.736 206.168 333.477Z" fill="white"/>
<path d="M367.516 445.897C367.516 504.033 336.612 544.448 298.49 544.448C260.368 544.448 229.463 504.033 229.463 445.897C229.463 387.76 266.738 353.615 298.49 340.631C328.862 354.543 367.516 387.76 367.516 445.897Z" fill="#DEDEDE"/>
<path d="M201.637 352.9C201.637 352.9 183.796 356.754 175.452 361.497C152.748 374.401 153.443 406.56 132.12 423.183C125.766 428.136 119.525 427.547 113.788 434.049C108.429 440.124 105.732 443.324 105.158 452.084C104.598 460.641 105.348 466.058 110.307 471.479C113.576 475.052 119.383 473.287 122.17 477.535C126.398 483.979 119.01 488.634 122.17 499.535C124.418 507.288 126.111 508.742 132.12 510.75C136.864 512.336 143.445 509.058 148.169 510.75C154.351 512.965 155.373 521.596 161.65 523.26C173.187 526.318 180.743 514.265 188.056 501.89" stroke="black" stroke-width="5" stroke-linecap="round"/>
<path d="M398.363 352.9C398.363 352.9 416.204 356.754 424.548 361.497C447.252 374.401 446.557 406.56 467.88 423.183C474.234 428.136 480.475 427.547 486.212 434.049C491.571 440.124 494.268 443.324 494.842 452.084C495.402 460.641 494.652 466.058 489.693 471.479C486.424 475.052 480.617 473.287 477.83 477.535C473.602 483.979 480.99 488.634 477.83 499.535C475.582 507.288 473.889 508.742 467.88 510.75C463.136 512.336 456.555 509.058 451.831 510.75C445.649 512.965 444.627 521.596 438.35 523.26C426.813 526.318 419.257 514.265 411.944 501.89" stroke="black" stroke-width="5" stroke-linecap="round"/>
<path d="M469.114 233.829C469.114 325.323 393.399 368.431 299.999 368.431C206.6 368.431 130.884 325.323 130.884 233.829C130.884 142.335 206.6 68.1653 299.999 68.1653C393.399 68.1653 469.114 142.335 469.114 233.829Z" fill="white"/>
<ellipse cx="216.127" cy="280.683" rx="22.902" ry="10.2877" fill="#DEDEDE"/>
<ellipse cx="388.621" cy="281.069" rx="22.902" ry="10.2877" transform="rotate(-2.27638 388.621 281.069)" fill="#DEDEDE"/>
<ellipse cx="31.5321" cy="37.2827" rx="31.5321" ry="37.2827" transform="matrix(-0.953838 0.300322 0.215795 0.976439 392.564 180.002)" fill="black" stroke="#504B4F"/>
<ellipse cx="8.97115" cy="7.68878" rx="8.97115" ry="7.68878" transform="matrix(-0.82516 0.564899 0.575712 0.817653 362.618 201.465)" fill="white" stroke="#504B4F"/>
<ellipse cx="31.5321" cy="37.2827" rx="31.5321" ry="37.2827" transform="matrix(-0.953838 0.300322 0.215795 0.976439 248.677 178.451)" fill="black" stroke="#504B4F"/>
<ellipse cx="8.97115" cy="7.68878" rx="8.97115" ry="7.68878" transform="matrix(-0.82516 0.564899 0.575712 0.817653 218.731 199.914)" fill="white" stroke="#504B4F"/>
<path d="M271.299 331.975C279.155 314.693 297.101 290.776 297.101 290.776C297.101 290.776 315.573 314.548 323.319 331.975C329.977 346.957 340.797 367.664 323.319 370.678C313.879 372.305 309.169 364.821 299.598 364.436C288.29 363.981 281.232 376.103 271.299 370.678C258.035 363.433 265.057 345.709 271.299 331.975Z" fill="white" stroke="black" stroke-width="5" stroke-linecap="round"/>
<path d="M271.646 275.245C271.646 275.245 264.92 278.179 262.399 281.992C256.439 291.007 264.397 300.591 271.646 308.46C279.901 317.422 288.584 318.731 300.358 318.321C311.053 317.948 318.52 316.46 326.151 308.46C333.575 300.677 341.939 291.024 335.884 281.992C333.247 278.059 326.151 275.245 326.151 275.245H271.646Z" fill="#A9A9A9"/>
<path d="M271.646 275.245C271.646 275.245 264.92 278.179 262.399 281.992C256.439 291.007 264.397 300.591 271.646 308.46C279.901 317.422 288.584 318.731 300.358 318.321C311.053 317.948 318.52 316.46 326.151 308.46C333.575 300.677 341.939 291.024 335.884 281.992C333.247 278.059 326.151 275.245 326.151 275.245H271.646Z" stroke="#A9A9A9" stroke-width="5" stroke-linecap="round"/>
<path d="M271.646 275.245C271.646 275.245 264.92 278.179 262.399 281.992C256.439 291.007 264.397 300.591 271.646 308.46C279.901 317.422 288.584 318.731 300.358 318.321C311.053 317.948 318.52 316.46 326.151 308.46C333.575 300.677 341.939 291.024 335.884 281.992C333.247 278.059 326.151 275.245 326.151 275.245H271.646Z" stroke="black" stroke-opacity="0.2" stroke-width="5" stroke-linecap="round"/>
<path d="M271.446 263.166C271.446 263.166 264.653 265.944 262.106 269.556C256.086 278.095 264.125 287.173 271.446 294.626C279.785 303.115 288.556 304.355 300.449 303.966C311.251 303.613 318.794 302.203 326.502 294.626C334.001 287.254 342.45 278.111 336.333 269.556C333.67 265.831 326.502 263.166 326.502 263.166H271.446Z" fill="#DED9D9"/>
<path d="M271.446 263.166C271.446 263.166 264.653 265.944 262.106 269.556C256.086 278.095 264.125 287.173 271.446 294.626C279.785 303.115 288.556 304.355 300.449 303.966C311.251 303.613 318.794 302.203 326.502 294.626C334.001 287.254 342.45 278.111 336.333 269.556C333.67 265.831 326.502 263.166 326.502 263.166H271.446Z" stroke="#DEDEDE" stroke-width="5" stroke-linecap="round"/>
<path d="M271.446 263.166C271.446 263.166 264.653 265.944 262.106 269.556C256.086 278.095 264.125 287.173 271.446 294.626C279.785 303.115 288.556 304.355 300.449 303.966C311.251 303.613 318.794 302.203 326.502 294.626C334.001 287.254 342.45 278.111 336.333 269.556C333.67 265.831 326.502 263.166 326.502 263.166H271.446Z" stroke="black" stroke-opacity="0.2" stroke-width="5" stroke-linecap="round"/>
<path d="M247.322 33.0456C204.454 29.8482 289.18 157.9 303.271 144.958C321.121 128.564 390.586 24.5209 349.237 32.1676C337.446 34.3481 321.12 44.5077 321.12 44.5077C321.12 44.5077 316.354 17.4647 303.271 15.8607C288.955 14.1055 280.216 44.7147 280.216 44.7147C280.216 44.7147 260.915 34.0594 247.322 33.0456Z" stroke="black" stroke-width="5"/>
<!--<path d="M409.2 115.9L359.8 84.7" stroke="#7B79E2" stroke-width="3" stroke-linecap="round"/>
 <path d="M454 158L411 117" stroke="#7B79E2" stroke-width="3" stroke-linecap="round"/>
<path d="M468 234L453 158" stroke="#7B79E2" stroke-width="3" stroke-linecap="round"/>
<path d="M446 308L467 236" stroke="#7B79E2" stroke-width="3" stroke-linecap="round"/>
<path d="M389 351L446 308" stroke="#7B79E2" stroke-width="3" stroke-linecap="round"/>
<path d="M411 426L389 353" stroke="#7B79E2" stroke-width="3" stroke-linecap="round"/>
<path d="M403 494L411 426" stroke="#7B79E2" stroke-width="3" stroke-linecap="round"/>
<path d="M381 527L403 494" stroke="#7B79E2" stroke-width="3" stroke-linecap="round"/>
<path d="M329 543L381 527" stroke="#7B79E2" stroke-width="3" stroke-linecap="round"/>
<path d="M281 543L329 542" stroke="#7B79E2" stroke-width="3" stroke-linecap="round"/>
<path d="M222 528L281 543" stroke="#7B79E2" stroke-width="3" stroke-linecap="round"/>
<path d="M195 494L222 527" stroke="#7B79E2" stroke-width="3" stroke-linecap="round"/>
<path d="M182 429L195 494" stroke="#7B79E2" stroke-width="3" stroke-linecap="round"/>
<path d="M210 348L183 429" stroke="#7B79E2" stroke-width="3" stroke-linecap="round"/>
<path d="M141 305L210 348" stroke="#7B79E2" stroke-width="3" stroke-linecap="round"/>
<path d="M129 234L141 305" stroke="#7B79E2" stroke-width="3" stroke-linecap="round"/>
<path d="M145 162L129 232" stroke="#7B79E2" stroke-width="3" stroke-linecap="round"/>
<path d="M172 115L145 160" stroke="#7B79E2" stroke-width="3" stroke-linecap="round"/>
<path d="M237 83L172 115" stroke="#7B79E2" stroke-width="3" stroke-linecap="round"/> -->
<path d="M383.001 350.85C383.001 354.081 385.62 356.7 388.851 356.7C392.082 356.7 394.701 354.081 394.701 350.85C394.701 347.619 392.082 345 388.851 345C385.62 345 383.001 347.619 383.001 350.85Z" fill="black"/>
<path d="M404.752 350.149C404.304 350.142 403.857 350.057 403.41 349.893C402.962 349.73 402.554 349.455 402.184 349.068C401.815 348.677 401.519 348.15 401.295 347.486C401.071 346.818 400.959 345.98 400.959 344.972C400.959 344.006 401.05 343.15 401.231 342.404C401.412 341.655 401.675 341.025 402.019 340.513C402.364 339.998 402.779 339.608 403.266 339.341C403.756 339.075 404.308 338.942 404.922 338.942C405.533 338.942 406.076 339.064 406.552 339.309C407.032 339.551 407.422 339.888 407.724 340.321C408.026 340.755 408.221 341.254 408.31 341.818H407.01C406.89 341.328 406.655 340.922 406.307 340.598C405.959 340.275 405.498 340.114 404.922 340.114C404.077 340.114 403.411 340.481 402.925 341.216C402.442 341.951 402.199 342.983 402.195 344.311H402.28C402.479 344.009 402.715 343.752 402.989 343.539C403.266 343.322 403.571 343.155 403.905 343.038C404.239 342.921 404.592 342.862 404.965 342.862C405.59 342.862 406.162 343.018 406.68 343.331C407.199 343.64 407.614 344.068 407.927 344.615C408.239 345.158 408.395 345.781 408.395 346.484C408.395 347.159 408.244 347.777 407.943 348.338C407.641 348.896 407.216 349.339 406.67 349.67C406.126 349.996 405.487 350.156 404.752 350.149ZM404.752 348.977C405.199 348.977 405.601 348.865 405.956 348.642C406.314 348.418 406.597 348.118 406.803 347.741C407.012 347.365 407.117 346.946 407.117 346.484C407.117 346.033 407.016 345.623 406.813 345.254C406.614 344.881 406.339 344.585 405.988 344.364C405.64 344.144 405.242 344.034 404.795 344.034C404.457 344.034 404.143 344.102 403.852 344.237C403.561 344.368 403.305 344.549 403.085 344.78C402.868 345.011 402.698 345.275 402.573 345.574C402.449 345.868 402.387 346.179 402.387 346.506C402.387 346.939 402.488 347.344 402.69 347.72C402.896 348.097 403.177 348.4 403.532 348.631C403.891 348.862 404.297 348.977 404.752 348.977Z" fill="black"/>
<path d="M440.4 308.95C440.4 312.181 443.019 314.8 446.25 314.8C449.481 314.8 452.1 312.181 452.1 308.95C452.1 305.719 449.481 303.1 446.25 303.1C443.019 303.1 440.4 305.719 440.4 308.95Z" fill="black"/>
<path d="M458.538 313.149C457.913 313.149 457.35 313.025 456.85 312.776C456.349 312.528 455.948 312.187 455.646 311.754C455.344 311.32 455.179 310.827 455.151 310.273H456.429C456.479 310.766 456.702 311.175 457.1 311.498C457.501 311.817 457.981 311.977 458.538 311.977C458.986 311.977 459.384 311.873 459.732 311.663C460.083 311.453 460.358 311.166 460.557 310.8C460.76 310.431 460.861 310.013 460.861 309.548C460.861 309.072 460.756 308.648 460.547 308.275C460.341 307.899 460.056 307.602 459.694 307.386C459.332 307.169 458.918 307.059 458.453 307.055C458.119 307.052 457.777 307.103 457.425 307.21C457.074 307.313 456.784 307.446 456.557 307.609L455.321 307.46L455.982 302.091H461.649V303.263H457.089L456.706 306.48H456.77C456.994 306.303 457.274 306.155 457.612 306.038C457.949 305.921 458.3 305.862 458.666 305.862C459.334 305.862 459.929 306.022 460.451 306.342C460.976 306.658 461.388 307.091 461.686 307.641C461.988 308.192 462.139 308.82 462.139 309.527C462.139 310.223 461.983 310.844 461.67 311.391C461.362 311.935 460.935 312.364 460.392 312.68C459.849 312.993 459.231 313.149 458.538 313.149Z" fill="black"/>
<path d="M462.5 234.85C462.5 238.081 465.119 240.7 468.35 240.7C471.581 240.7 474.2 238.081 474.2 234.85C474.2 231.619 471.581 229 468.35 229C465.119 229 462.5 231.619 462.5 234.85Z" fill="black"/>
<path d="M476.874 235.763V234.676L481.668 227.091H482.456V228.774H481.923L478.301 234.506V234.591H484.757V235.763H476.874ZM482.009 238V235.433V234.926V227.091H483.266V238H482.009Z" fill="black"/>
<path d="M446.9 158.15C446.9 161.381 449.519 164 452.75 164C455.981 164 458.6 161.381 458.6 158.15C458.6 154.919 455.981 152.3 452.75 152.3C449.519 152.3 446.9 154.919 446.9 158.15Z" fill="black"/>
<path d="M463.815 162.149C463.112 162.149 462.485 162.028 461.935 161.787C461.388 161.545 460.953 161.21 460.63 160.78C460.31 160.347 460.136 159.844 460.108 159.273H461.45C461.479 159.624 461.599 159.928 461.812 160.184C462.026 160.436 462.304 160.631 462.649 160.77C462.993 160.908 463.375 160.977 463.794 160.977C464.263 160.977 464.678 160.896 465.04 160.732C465.403 160.569 465.687 160.342 465.893 160.05C466.099 159.759 466.202 159.422 466.202 159.038C466.202 158.637 466.102 158.284 465.903 157.978C465.705 157.669 465.413 157.428 465.03 157.254C464.646 157.08 464.178 156.993 463.624 156.993H462.75V155.821H463.624C464.057 155.821 464.437 155.743 464.763 155.587C465.094 155.43 465.351 155.21 465.536 154.926C465.724 154.642 465.818 154.308 465.818 153.925C465.818 153.555 465.737 153.234 465.573 152.961C465.41 152.687 465.179 152.474 464.881 152.321C464.586 152.169 464.238 152.092 463.837 152.092C463.46 152.092 463.105 152.162 462.771 152.3C462.441 152.435 462.171 152.632 461.962 152.891C461.752 153.147 461.638 153.456 461.621 153.818H460.342C460.364 153.246 460.536 152.746 460.859 152.316C461.182 151.883 461.605 151.545 462.127 151.304C462.652 151.062 463.229 150.942 463.858 150.942C464.533 150.942 465.112 151.078 465.594 151.352C466.077 151.622 466.449 151.979 466.708 152.423C466.967 152.866 467.097 153.346 467.097 153.861C467.097 154.475 466.935 154.999 466.612 155.432C466.292 155.865 465.857 156.165 465.307 156.332V156.418C465.996 156.531 466.534 156.824 466.921 157.297C467.308 157.765 467.501 158.346 467.501 159.038C467.501 159.631 467.34 160.164 467.017 160.636C466.697 161.105 466.26 161.474 465.706 161.744C465.152 162.014 464.522 162.149 463.815 162.149Z" fill="black"/>
<path d="M405.3 116.55C405.3 119.781 407.92 122.4 411.15 122.4C414.381 122.4 417 119.781 417 116.55C417 113.319 414.381 110.7 411.15 110.7C407.92 110.7 405.3 113.319 405.3 116.55Z" fill="black"/>
<path d="M418.129 121V120.041L421.73 116.099C422.153 115.638 422.501 115.237 422.774 114.896C423.048 114.551 423.25 114.228 423.381 113.926C423.516 113.621 423.584 113.301 423.584 112.967C423.584 112.584 423.491 112.252 423.307 111.971C423.126 111.691 422.877 111.474 422.561 111.321C422.245 111.169 421.89 111.092 421.496 111.092C421.077 111.092 420.711 111.179 420.398 111.353C420.089 111.524 419.85 111.763 419.679 112.072C419.512 112.381 419.429 112.744 419.429 113.159H418.172C418.172 112.52 418.319 111.959 418.614 111.476C418.909 110.993 419.31 110.616 419.818 110.347C420.329 110.077 420.903 109.942 421.538 109.942C422.178 109.942 422.744 110.077 423.238 110.347C423.731 110.616 424.118 110.98 424.399 111.439C424.679 111.897 424.82 112.406 424.82 112.967C424.82 113.369 424.747 113.761 424.601 114.145C424.459 114.525 424.211 114.949 423.855 115.418C423.504 115.883 423.016 116.451 422.391 117.122L419.94 119.743V119.828H425.011V121H418.129Z" fill="black"/>
<path d="M352 84.05C352 87.2808 354.619 89.9 357.85 89.9C361.081 89.9 363.7 87.2808 363.7 84.05C363.7 80.8191 361.081 78.2 357.85 78.2C354.619 78.2 352 80.8191 352 84.05Z" fill="black"/>
<path d="M369.964 78.0909V89H368.643V79.4759H368.58L365.916 81.2443V79.902L368.643 78.0909H369.964Z" fill="black"/>
<path d="M231.1 82.7499C231.1 85.9808 233.719 88.5999 236.95 88.5999C240.181 88.5999 242.8 85.9808 242.8 82.7499C242.8 79.519 240.181 76.8999 236.95 76.8999C233.719 76.8999 231.1 79.519 231.1 82.7499Z" fill="black"/>
<path d="M211.129 87V86.0412L214.73 82.0994C215.153 81.6378 215.501 81.2365 215.774 80.8956C216.048 80.5511 216.25 80.228 216.381 79.9261C216.516 79.6207 216.584 79.3011 216.584 78.9673C216.584 78.5838 216.491 78.2518 216.307 77.9712C216.126 77.6907 215.877 77.4741 215.561 77.3214C215.245 77.1687 214.89 77.0923 214.496 77.0923C214.077 77.0923 213.711 77.1793 213.398 77.3533C213.089 77.5238 212.85 77.7635 212.679 78.0724C212.512 78.3814 212.429 78.7436 212.429 79.1591H211.172C211.172 78.5199 211.319 77.9588 211.614 77.4759C211.909 76.9929 212.31 76.6165 212.818 76.3466C213.329 76.0767 213.903 75.9418 214.538 75.9418C215.178 75.9418 215.744 76.0767 216.238 76.3466C216.731 76.6165 217.118 76.9805 217.399 77.4386C217.679 77.8967 217.82 78.4062 217.82 78.9673C217.82 79.3686 217.747 79.761 217.601 80.1445C217.459 80.5245 217.211 80.9489 216.855 81.4176C216.504 81.8828 216.016 82.451 215.391 83.1222L212.94 85.7429V85.8281H218.011V87H211.129ZM223.77 87.1491C222.967 87.1491 222.283 86.9308 221.719 86.494C221.154 86.0536 220.723 85.4162 220.424 84.5817C220.126 83.7436 219.977 82.7315 219.977 81.5455C219.977 80.3665 220.126 79.3597 220.424 78.5252C220.726 77.6871 221.159 77.0479 221.724 76.6076C222.292 76.1637 222.974 75.9418 223.77 75.9418C224.565 75.9418 225.245 76.1637 225.81 76.6076C226.378 77.0479 226.811 77.6871 227.109 78.5252C227.411 79.3597 227.562 80.3665 227.562 81.5455C227.562 82.7315 227.413 83.7436 227.115 84.5817C226.816 85.4162 226.385 86.0536 225.82 86.494C225.256 86.9308 224.572 87.1491 223.77 87.1491ZM223.77 85.9773C224.565 85.9773 225.183 85.5937 225.623 84.8267C226.064 84.0597 226.284 82.9659 226.284 81.5455C226.284 80.6009 226.183 79.7965 225.98 79.1325C225.781 78.4684 225.494 77.9624 225.117 77.6143C224.744 77.2663 224.295 77.0923 223.77 77.0923C222.981 77.0923 222.365 77.4812 221.921 78.2589C221.477 79.033 221.255 80.1286 221.255 81.5455C221.255 82.4901 221.355 83.2926 221.554 83.9531C221.752 84.6136 222.038 85.1161 222.411 85.4606C222.788 85.805 223.24 85.9773 223.77 85.9773Z" fill="black"/>
<path d="M166.1 115.25C166.1 118.481 168.719 121.1 171.95 121.1C175.181 121.1 177.8 118.481 177.8 115.25C177.8 112.019 175.181 109.4 171.95 109.4C168.719 109.4 166.1 112.019 166.1 115.25Z" fill="black"/>
<path d="M151.964 109.091V120H150.643V110.476H150.58L147.916 112.244V110.902L150.643 109.091H151.964ZM158.575 108.942C159.022 108.945 159.47 109.031 159.917 109.197C160.365 109.364 160.773 109.641 161.142 110.028C161.512 110.412 161.808 110.936 162.032 111.6C162.256 112.264 162.368 113.097 162.368 114.098C162.368 115.067 162.275 115.929 162.091 116.681C161.909 117.431 161.647 118.063 161.302 118.578C160.961 119.093 160.546 119.483 160.056 119.75C159.569 120.016 159.019 120.149 158.404 120.149C157.794 120.149 157.249 120.028 156.769 119.787C156.293 119.542 155.903 119.203 155.597 118.77C155.295 118.333 155.102 117.827 155.017 117.251H156.316C156.434 117.752 156.666 118.166 157.014 118.493C157.366 118.816 157.829 118.977 158.404 118.977C159.246 118.977 159.91 118.61 160.397 117.875C160.887 117.14 161.132 116.101 161.132 114.759H161.047C160.848 115.057 160.612 115.314 160.338 115.531C160.065 115.748 159.761 115.914 159.427 116.032C159.093 116.149 158.738 116.207 158.362 116.207C157.737 116.207 157.163 116.053 156.641 115.744C156.123 115.431 155.707 115.004 155.395 114.46C155.086 113.913 154.931 113.288 154.931 112.585C154.931 111.918 155.081 111.307 155.379 110.753C155.681 110.195 156.103 109.751 156.647 109.421C157.194 109.091 157.836 108.931 158.575 108.942ZM158.575 110.114C158.127 110.114 157.724 110.225 157.366 110.449C157.011 110.669 156.728 110.968 156.519 111.344C156.313 111.717 156.21 112.131 156.21 112.585C156.21 113.04 156.309 113.453 156.508 113.826C156.711 114.196 156.986 114.49 157.334 114.711C157.685 114.927 158.085 115.036 158.532 115.036C158.87 115.036 159.184 114.97 159.475 114.838C159.766 114.703 160.02 114.521 160.237 114.29C160.457 114.055 160.629 113.791 160.754 113.496C160.878 113.198 160.94 112.887 160.94 112.564C160.94 112.138 160.837 111.738 160.631 111.365C160.429 110.993 160.148 110.691 159.789 110.46C159.434 110.229 159.029 110.114 158.575 110.114Z" fill="black"/>
<path d="M138.8 161.55C138.8 164.781 141.419 167.4 144.65 167.4C147.881 167.4 150.5 164.781 150.5 161.55C150.5 158.319 147.881 155.7 144.65 155.7C141.419 155.7 138.8 158.319 138.8 161.55Z" fill="black"/>
<path d="M124.964 155.091V166H123.643V156.476H123.58L120.916 158.244V156.902L123.643 155.091H124.964ZM131.596 166.149C130.865 166.149 130.218 166.02 129.657 165.76C129.1 165.498 128.665 165.137 128.352 164.679C128.04 164.217 127.885 163.692 127.889 163.102C127.885 162.641 127.976 162.214 128.161 161.824C128.345 161.43 128.597 161.101 128.917 160.838C129.24 160.572 129.6 160.403 129.998 160.332V160.268C129.476 160.134 129.061 159.841 128.752 159.39C128.443 158.935 128.29 158.418 128.294 157.839C128.29 157.286 128.43 156.79 128.714 156.353C128.999 155.917 129.389 155.572 129.886 155.32C130.387 155.068 130.957 154.942 131.596 154.942C132.228 154.942 132.793 155.068 133.29 155.32C133.787 155.572 134.178 155.917 134.462 156.353C134.75 156.79 134.895 157.286 134.899 157.839C134.895 158.418 134.737 158.935 134.425 159.39C134.116 159.841 133.706 160.134 133.194 160.268V160.332C133.588 160.403 133.944 160.572 134.26 160.838C134.576 161.101 134.828 161.43 135.016 161.824C135.204 162.214 135.3 162.641 135.304 163.102C135.3 163.692 135.14 164.217 134.824 164.679C134.512 165.137 134.077 165.498 133.519 165.76C132.965 166.02 132.324 166.149 131.596 166.149ZM131.596 164.977C132.09 164.977 132.516 164.897 132.875 164.738C133.233 164.578 133.51 164.352 133.706 164.061C133.901 163.77 134 163.429 134.004 163.038C134 162.626 133.894 162.262 133.684 161.946C133.475 161.63 133.189 161.382 132.827 161.201C132.468 161.02 132.058 160.929 131.596 160.929C131.131 160.929 130.716 161.02 130.35 161.201C129.988 161.382 129.702 161.63 129.492 161.946C129.286 162.262 129.185 162.626 129.189 163.038C129.185 163.429 129.279 163.77 129.471 164.061C129.666 164.352 129.945 164.578 130.307 164.738C130.669 164.897 131.099 164.977 131.596 164.977ZM131.596 159.8C131.987 159.8 132.333 159.722 132.635 159.565C132.94 159.409 133.18 159.191 133.354 158.91C133.528 158.63 133.617 158.301 133.62 157.925C133.617 157.555 133.53 157.234 133.359 156.961C133.189 156.684 132.953 156.471 132.651 156.321C132.349 156.169 131.998 156.092 131.596 156.092C131.188 156.092 130.831 156.169 130.526 156.321C130.22 156.471 129.984 156.684 129.817 156.961C129.65 157.234 129.569 157.555 129.572 157.925C129.569 158.301 129.652 158.63 129.822 158.91C129.996 159.191 130.236 159.409 130.542 159.565C130.847 159.722 131.199 159.8 131.596 159.8Z" fill="black"/>
<path d="M123.2 233.55C123.2 236.781 125.819 239.4 129.05 239.4C132.281 239.4 134.9 236.781 134.9 233.55C134.9 230.319 132.281 227.7 129.05 227.7C125.819 227.7 123.2 230.319 123.2 233.55Z" fill="black"/>
<path d="M111.964 228.091V239H110.643V229.476H110.58L107.916 231.244V229.902L110.643 228.091H111.964ZM115.443 239L120.322 229.348V229.263H114.697V228.091H121.686V229.327L116.828 239H115.443Z" fill="black"/>
<path d="M134.9 305.05C134.9 308.281 137.519 310.9 140.75 310.9C143.981 310.9 146.6 308.281 146.6 305.05C146.6 301.819 143.981 299.2 140.75 299.2C137.519 299.2 134.9 301.819 134.9 305.05Z" fill="black"/>
<path d="M121.964 300.091V311H120.643V301.476H120.58L117.916 303.244V301.902L120.643 300.091H121.964ZM128.724 311.149C128.277 311.142 127.829 311.057 127.382 310.893C126.934 310.73 126.526 310.455 126.157 310.068C125.787 309.677 125.491 309.15 125.267 308.486C125.043 307.818 124.931 306.98 124.931 305.972C124.931 305.006 125.022 304.15 125.203 303.404C125.384 302.655 125.647 302.025 125.991 301.513C126.336 300.998 126.751 300.608 127.238 300.341C127.728 300.075 128.28 299.942 128.895 299.942C129.505 299.942 130.049 300.064 130.525 300.309C131.004 300.551 131.395 300.888 131.696 301.321C131.998 301.755 132.194 302.254 132.282 302.818H130.983C130.862 302.328 130.627 301.922 130.279 301.598C129.931 301.275 129.47 301.114 128.895 301.114C128.049 301.114 127.384 301.481 126.897 302.216C126.414 302.951 126.171 303.983 126.167 305.311H126.252C126.451 305.009 126.688 304.752 126.961 304.539C127.238 304.322 127.543 304.155 127.877 304.038C128.211 303.921 128.564 303.862 128.937 303.862C129.562 303.862 130.134 304.018 130.652 304.331C131.171 304.64 131.586 305.068 131.899 305.615C132.211 306.158 132.368 306.781 132.368 307.484C132.368 308.159 132.217 308.777 131.915 309.338C131.613 309.896 131.189 310.339 130.642 310.67C130.098 310.996 129.459 311.156 128.724 311.149ZM128.724 309.977C129.172 309.977 129.573 309.865 129.928 309.642C130.287 309.418 130.569 309.118 130.775 308.741C130.984 308.365 131.089 307.946 131.089 307.484C131.089 307.033 130.988 306.623 130.786 306.254C130.587 305.881 130.311 305.585 129.96 305.364C129.612 305.144 129.214 305.034 128.767 305.034C128.429 305.034 128.115 305.102 127.824 305.237C127.533 305.368 127.277 305.549 127.057 305.78C126.84 306.011 126.67 306.275 126.545 306.574C126.421 306.868 126.359 307.179 126.359 307.506C126.359 307.939 126.46 308.344 126.663 308.72C126.869 309.097 127.149 309.4 127.504 309.631C127.863 309.862 128.27 309.977 128.724 309.977Z" fill="black"/>
<path d="M203.8 347.95C203.8 351.181 206.419 353.8 209.65 353.8C212.881 353.8 215.5 351.181 215.5 347.95C215.5 344.719 212.881 342.1 209.65 342.1C206.419 342.1 203.8 344.719 203.8 347.95Z" fill="black"/>
<path d="M187.964 339.091V350H186.643V340.476H186.58L183.916 342.244V340.902L186.643 339.091H187.964ZM194.511 350.149C193.886 350.149 193.323 350.025 192.822 349.776C192.322 349.528 191.92 349.187 191.619 348.754C191.317 348.32 191.152 347.827 191.123 347.273H192.402C192.451 347.766 192.675 348.175 193.073 348.498C193.474 348.817 193.953 348.977 194.511 348.977C194.958 348.977 195.356 348.873 195.704 348.663C196.056 348.453 196.331 348.166 196.53 347.8C196.732 347.431 196.833 347.013 196.833 346.548C196.833 346.072 196.729 345.648 196.519 345.275C196.313 344.899 196.029 344.602 195.667 344.386C195.305 344.169 194.891 344.059 194.426 344.055C194.092 344.052 193.749 344.103 193.398 344.21C193.046 344.313 192.757 344.446 192.529 344.609L191.294 344.46L191.954 339.091H197.622V340.263H193.062L192.679 343.48H192.743C192.966 343.303 193.247 343.155 193.584 343.038C193.922 342.921 194.273 342.862 194.639 342.862C195.306 342.862 195.901 343.022 196.423 343.342C196.949 343.658 197.361 344.091 197.659 344.641C197.961 345.192 198.112 345.82 198.112 346.527C198.112 347.223 197.956 347.844 197.643 348.391C197.334 348.935 196.908 349.364 196.365 349.68C195.821 349.993 195.203 350.149 194.511 350.149Z" fill="black"/>
<path d="M176.5 428.55C176.5 431.781 179.119 434.4 182.35 434.4C185.581 434.4 188.2 431.781 188.2 428.55C188.2 425.319 185.581 422.7 182.35 422.7C179.119 422.7 176.5 425.319 176.5 428.55Z" fill="black"/>
<path d="M162.964 423.091V434H161.643V424.476H161.58L158.916 426.244V424.902L161.643 423.091H162.964ZM165.846 431.763V430.676L170.64 423.091H171.429V424.774H170.896L167.274 430.506V430.591H173.73V431.763H165.846ZM170.981 434V431.433V430.926V423.091H172.238V434H170.981Z" fill="black"/>
<path d="M405.3 425.95C405.3 429.181 407.92 431.8 411.15 431.8C414.381 431.8 417 429.181 417 425.95C417 422.719 414.381 420.1 411.15 420.1C407.92 420.1 405.3 422.719 405.3 425.95Z" fill="black"/>
<path d="M419.47 432L424.349 422.348V422.263H418.724V421.091H425.713V422.327L420.855 432H419.47Z" fill="black"/>
<path d="M397.5 493.55C397.5 496.781 400.119 499.4 403.35 499.4C406.581 499.4 409.2 496.781 409.2 493.55C409.2 490.319 406.581 487.7 403.35 487.7C400.119 487.7 397.5 490.319 397.5 493.55Z" fill="black"/>
<path d="M416.624 497.149C415.892 497.149 415.246 497.02 414.685 496.76C414.127 496.498 413.692 496.137 413.38 495.679C413.067 495.217 412.913 494.692 412.916 494.102C412.913 493.641 413.003 493.214 413.188 492.824C413.373 492.43 413.625 492.101 413.944 491.838C414.267 491.572 414.628 491.403 415.026 491.332V491.268C414.504 491.134 414.088 490.841 413.779 490.39C413.47 489.935 413.317 489.418 413.321 488.839C413.317 488.286 413.458 487.79 413.742 487.353C414.026 486.917 414.417 486.572 414.914 486.32C415.414 486.068 415.984 485.942 416.624 485.942C417.256 485.942 417.82 486.068 418.317 486.32C418.815 486.572 419.205 486.917 419.489 487.353C419.777 487.79 419.923 488.286 419.926 488.839C419.923 489.418 419.765 489.935 419.452 490.39C419.143 490.841 418.733 491.134 418.222 491.268V491.332C418.616 491.403 418.971 491.572 419.287 491.838C419.603 492.101 419.855 492.43 420.043 492.824C420.232 493.214 420.327 493.641 420.331 494.102C420.327 494.692 420.168 495.217 419.852 495.679C419.539 496.137 419.104 496.498 418.547 496.76C417.993 497.02 417.352 497.149 416.624 497.149ZM416.624 495.977C417.117 495.977 417.543 495.897 417.902 495.738C418.261 495.578 418.538 495.352 418.733 495.061C418.928 494.77 419.028 494.429 419.031 494.038C419.028 493.626 418.921 493.262 418.712 492.946C418.502 492.63 418.216 492.382 417.854 492.201C417.495 492.02 417.085 491.929 416.624 491.929C416.158 491.929 415.743 492.02 415.377 492.201C415.015 492.382 414.729 492.63 414.52 492.946C414.314 493.262 414.212 493.626 414.216 494.038C414.212 494.429 414.306 494.77 414.498 495.061C414.694 495.352 414.972 495.578 415.335 495.738C415.697 495.897 416.126 495.977 416.624 495.977ZM416.624 490.8C417.014 490.8 417.36 490.722 417.662 490.565C417.968 490.409 418.207 490.191 418.381 489.91C418.555 489.63 418.644 489.301 418.648 488.925C418.644 488.555 418.557 488.234 418.387 487.961C418.216 487.684 417.98 487.471 417.678 487.321C417.376 487.169 417.025 487.092 416.624 487.092C416.215 487.092 415.858 487.169 415.553 487.321C415.248 487.471 415.011 487.684 414.844 487.961C414.678 488.234 414.596 488.555 414.599 488.925C414.596 489.301 414.679 489.63 414.85 489.91C415.024 490.191 415.263 490.409 415.569 490.565C415.874 490.722 416.226 490.8 416.624 490.8Z" fill="black"/>
<path d="M375.4 527.35C375.4 530.581 378.019 533.2 381.25 533.2C384.481 533.2 387.1 530.581 387.1 527.35C387.1 524.119 384.481 521.5 381.25 521.5C378.019 521.5 375.4 524.119 375.4 527.35Z" fill="black"/>
<path d="M393.602 519.942C394.05 519.945 394.497 520.031 394.945 520.197C395.392 520.364 395.8 520.641 396.17 521.028C396.539 521.412 396.836 521.936 397.059 522.6C397.283 523.264 397.395 524.097 397.395 525.098C397.395 526.067 397.303 526.929 397.118 527.681C396.937 528.431 396.674 529.063 396.33 529.578C395.989 530.093 395.573 530.483 395.083 530.75C394.597 531.016 394.046 531.149 393.432 531.149C392.821 531.149 392.276 531.028 391.797 530.787C391.321 530.542 390.93 530.203 390.625 529.77C390.323 529.333 390.129 528.827 390.044 528.251H391.344C391.461 528.752 391.694 529.166 392.042 529.493C392.393 529.816 392.857 529.977 393.432 529.977C394.273 529.977 394.938 529.61 395.424 528.875C395.914 528.14 396.159 527.101 396.159 525.759H396.074C395.875 526.057 395.639 526.314 395.365 526.531C395.092 526.748 394.788 526.914 394.455 527.032C394.121 527.149 393.766 527.207 393.389 527.207C392.764 527.207 392.191 527.053 391.669 526.744C391.15 526.431 390.735 526.004 390.422 525.46C390.113 524.913 389.959 524.288 389.959 523.585C389.959 522.918 390.108 522.307 390.406 521.753C390.708 521.195 391.131 520.751 391.674 520.421C392.221 520.091 392.864 519.931 393.602 519.942ZM393.602 521.114C393.155 521.114 392.752 521.225 392.393 521.449C392.038 521.669 391.756 521.968 391.546 522.344C391.34 522.717 391.237 523.131 391.237 523.585C391.237 524.04 391.337 524.453 391.536 524.826C391.738 525.196 392.013 525.49 392.361 525.711C392.713 525.927 393.112 526.036 393.56 526.036C393.897 526.036 394.211 525.97 394.502 525.838C394.794 525.703 395.048 525.521 395.264 525.29C395.484 525.055 395.657 524.791 395.781 524.496C395.905 524.198 395.967 523.887 395.967 523.564C395.967 523.138 395.864 522.738 395.658 522.365C395.456 521.993 395.175 521.691 394.817 521.46C394.462 521.229 394.057 521.114 393.602 521.114Z" fill="black"/>
<path d="M323 542.55C323 545.781 325.619 548.4 328.85 548.4C332.081 548.4 334.7 545.781 334.7 542.55C334.7 539.319 332.081 536.7 328.85 536.7C325.619 536.7 323 539.319 323 542.55Z" fill="black"/>
<path d="M339.964 534.091V545H338.643V535.476H338.58L335.916 537.244V535.902L338.643 534.091H339.964ZM346.66 545.149C345.858 545.149 345.174 544.931 344.609 544.494C344.045 544.054 343.613 543.416 343.315 542.582C343.017 541.744 342.868 540.732 342.868 539.545C342.868 538.366 343.017 537.36 343.315 536.525C343.617 535.687 344.05 535.048 344.615 534.608C345.183 534.164 345.865 533.942 346.66 533.942C347.456 533.942 348.136 534.164 348.7 534.608C349.268 535.048 349.702 535.687 350 536.525C350.302 537.36 350.453 538.366 350.453 539.545C350.453 540.732 350.304 541.744 350.005 542.582C349.707 543.416 349.276 544.054 348.711 544.494C348.146 544.931 347.463 545.149 346.66 545.149ZM346.66 543.977C347.456 543.977 348.074 543.594 348.514 542.827C348.954 542.06 349.174 540.966 349.174 539.545C349.174 538.601 349.073 537.797 348.871 537.132C348.672 536.468 348.384 535.962 348.008 535.614C347.635 535.266 347.186 535.092 346.66 535.092C345.872 535.092 345.256 535.481 344.812 536.259C344.368 537.033 344.146 538.129 344.146 539.545C344.146 540.49 344.245 541.293 344.444 541.953C344.643 542.614 344.929 543.116 345.302 543.461C345.678 543.805 346.131 543.977 346.66 543.977Z" fill="black"/>
<path d="M275.3 542.95C275.3 546.181 277.919 548.8 281.15 548.8C284.381 548.8 287 546.181 287 542.95C287 539.719 284.381 537.1 281.15 537.1C277.919 537.1 275.3 539.719 275.3 542.95Z" fill="black"/>
<path d="M293.264 536.291V547.2H291.943V537.676H291.879L289.216 539.444V538.102L291.943 536.291H293.264ZM300.237 536.291V547.2H298.916V537.676H298.852L296.189 539.444V538.102L298.916 536.291H300.237Z" fill="black"/>
<path d="M216.8 527.35C216.8 530.581 219.419 533.2 222.65 533.2C225.881 533.2 228.5 530.581 228.5 527.35C228.5 524.119 225.881 521.5 222.65 521.5C219.419 521.5 216.8 524.119 216.8 527.35Z" fill="black"/>
<path d="M203.964 522.091V533H202.643V523.476H202.58L199.916 525.244V523.902L202.643 522.091H203.964ZM207.102 533V532.041L210.703 528.099C211.125 527.638 211.473 527.237 211.747 526.896C212.02 526.551 212.223 526.228 212.354 525.926C212.489 525.621 212.556 525.301 212.556 524.967C212.556 524.584 212.464 524.252 212.279 523.971C212.098 523.691 211.85 523.474 211.534 523.321C211.218 523.169 210.863 523.092 210.468 523.092C210.049 523.092 209.684 523.179 209.371 523.353C209.062 523.524 208.822 523.763 208.652 524.072C208.485 524.381 208.402 524.744 208.402 525.159H207.145C207.145 524.52 207.292 523.959 207.587 523.476C207.881 522.993 208.283 522.616 208.79 522.347C209.302 522.077 209.875 521.942 210.511 521.942C211.15 521.942 211.717 522.077 212.21 522.347C212.704 522.616 213.091 522.98 213.371 523.439C213.652 523.897 213.792 524.406 213.792 524.967C213.792 525.369 213.719 525.761 213.574 526.145C213.432 526.525 213.183 526.949 212.828 527.418C212.477 527.883 211.988 528.451 211.363 529.122L208.913 531.743V531.828H213.984V533H207.102Z" fill="black"/>
<path d="M189.5 493.55C189.5 496.781 192.119 499.4 195.35 499.4C198.581 499.4 201.2 496.781 201.2 493.55C201.2 490.319 198.581 487.7 195.35 487.7C192.119 487.7 189.5 490.319 189.5 493.55Z" fill="black"/>
<path d="M175.964 486.091V497H174.643V487.476H174.58L171.916 489.244V487.902L174.643 486.091H175.964ZM182.788 497.149C182.085 497.149 181.458 497.028 180.908 496.787C180.361 496.545 179.926 496.21 179.603 495.78C179.283 495.347 179.109 494.844 179.081 494.273H180.423C180.451 494.624 180.572 494.928 180.785 495.184C180.998 495.436 181.277 495.631 181.621 495.77C181.966 495.908 182.348 495.977 182.767 495.977C183.235 495.977 183.651 495.896 184.013 495.732C184.375 495.569 184.659 495.342 184.865 495.05C185.071 494.759 185.174 494.422 185.174 494.038C185.174 493.637 185.075 493.284 184.876 492.978C184.677 492.669 184.386 492.428 184.002 492.254C183.619 492.08 183.15 491.993 182.596 491.993H181.723V490.821H182.596C183.029 490.821 183.409 490.743 183.736 490.587C184.066 490.43 184.324 490.21 184.509 489.926C184.697 489.642 184.791 489.308 184.791 488.925C184.791 488.555 184.709 488.234 184.546 487.961C184.382 487.687 184.152 487.474 183.853 487.321C183.559 487.169 183.211 487.092 182.809 487.092C182.433 487.092 182.078 487.162 181.744 487.3C181.414 487.435 181.144 487.632 180.934 487.891C180.725 488.147 180.611 488.456 180.593 488.818H179.315C179.336 488.246 179.509 487.746 179.832 487.316C180.155 486.883 180.577 486.545 181.099 486.304C181.625 486.062 182.202 485.942 182.831 485.942C183.505 485.942 184.084 486.078 184.567 486.352C185.05 486.622 185.421 486.979 185.68 487.423C185.94 487.866 186.069 488.346 186.069 488.861C186.069 489.475 185.908 489.999 185.585 490.432C185.265 490.865 184.83 491.165 184.279 491.332V491.418C184.968 491.531 185.506 491.824 185.893 492.297C186.281 492.765 186.474 493.346 186.474 494.038C186.474 494.631 186.313 495.164 185.989 495.636C185.67 496.105 185.233 496.474 184.679 496.744C184.125 497.014 183.495 497.149 182.788 497.149Z" fill="black"/>
</g>
<defs>
<clipPath id="clip0_4_683">
<rect width="600" height="600" fill="white"/>
</clipPath>
</defs>
</svg>
