<svg width="600" height="600" viewBox="0 0 600 600" fill="none" xmlns="http://www.w3.org/2000/svg">
<g clip-path="url(#clip0_107_195)">
<path d="M256.479 533.026L284.469 578.037" stroke="#FF553B" stroke-width="20" stroke-linecap="round"/>
<path d="M253.18 537.834L246.504 581.094" stroke="#FF553B" stroke-width="20" stroke-linecap="round"/>
<path d="M252.424 532.741L215.442 558.538" stroke="#FF553B" stroke-width="20" stroke-linecap="round"/>
<path d="M353.876 534.752L325.885 579.763" stroke="#FF553B" stroke-width="20" stroke-linecap="round"/>
<path d="M357.175 539.56L363.85 582.82" stroke="#FF553B" stroke-width="20" stroke-linecap="round"/>
<path d="M357.931 534.467L394.912 560.264" stroke="#FF553B" stroke-width="20" stroke-linecap="round"/>
<path d="M206.168 333.711C203.725 340.529 162.419 457.387 195.812 507.511C232.051 561.907 374.421 568.815 403.756 507.511C433.091 446.208 393.406 338.913 390.814 333.711C390.814 333.711 208.225 327.967 206.168 333.711Z" fill="#F9F7F7"/>
<path d="M206.168 333.711C203.725 340.529 162.419 457.387 195.812 507.511C232.051 561.907 374.421 568.815 403.756 507.511C433.091 446.208 393.406 338.913 390.814 333.711C390.814 333.711 208.225 327.967 206.168 333.711Z" stroke="#F9F7F7" stroke-width="5"/>
<path d="M206.168 333.711C203.725 340.529 162.419 457.387 195.812 507.511C232.051 561.907 374.421 568.815 403.756 507.511C433.091 446.208 393.406 338.913 390.814 333.711C390.814 333.711 208.225 327.967 206.168 333.711Z" stroke="black" stroke-opacity="0.2" stroke-width="5"/>
<path d="M367.516 446.209C367.516 504.385 336.612 544.828 298.49 544.828C260.368 544.828 229.463 504.385 229.463 446.209C229.463 388.032 266.738 353.864 298.49 340.87C328.862 354.792 367.516 388.032 367.516 446.209Z" fill="#DEDEDE"/>
<path d="M469.115 233.994C469.115 325.551 393.4 368.689 300 368.689C206.601 368.689 130.885 325.551 130.885 233.994C130.885 142.437 206.601 68.2156 300 68.2156C393.4 68.2156 469.115 142.437 469.115 233.994Z" fill="#F9F7F7"/>
<path d="M469.115 233.994C469.115 325.551 393.4 368.689 300 368.689C206.601 368.689 130.885 325.551 130.885 233.994C130.885 142.437 206.601 68.2156 300 68.2156C393.4 68.2156 469.115 142.437 469.115 233.994Z" stroke="#F9F7F7" stroke-width="5"/>
<path d="M469.115 233.994C469.115 325.551 393.4 368.689 300 368.689C206.601 368.689 130.885 325.551 130.885 233.994C130.885 142.437 206.601 68.2156 300 68.2156C393.4 68.2156 469.115 142.437 469.115 233.994Z" stroke="black" stroke-opacity="0.2" stroke-width="5"/>
<ellipse cx="216.127" cy="280.88" rx="22.902" ry="10.2948" fill="#F7C1CF"/>
<ellipse cx="22.902" cy="10.2948" rx="22.902" ry="10.2948" transform="matrix(0.99921 -0.0397473 0.0396925 0.999212 365.329 271.891)" fill="#F7C1CF"/>
<ellipse cx="31.5363" cy="37.3025" rx="31.5363" ry="37.3025" transform="matrix(-0.95371 0.30049 0.21568 0.976593 392.565 180.13)" fill="black" stroke="#504B4F"/>
<ellipse cx="8.97207" cy="7.6933" rx="8.97207" ry="7.6933" transform="matrix(-0.825075 0.565231 0.575373 0.817737 362.62 201.608)" fill="#F9F7F7" stroke="#504B4F"/>
<ellipse cx="31.5389" cy="37.2998" rx="31.5389" ry="37.2998" transform="matrix(-0.953631 0.300465 0.215696 0.976665 248.677 178.578)" fill="black" stroke="#504B4F"/>
<ellipse cx="8.97293" cy="7.69257" rx="8.97293" ry="7.69257" transform="matrix(-0.824997 0.565178 0.575428 0.817815 218.731 200.056)" fill="#F9F7F7" stroke="#504B4F"/>
<path d="M271.3 332.208C279.156 314.914 297.102 290.98 297.102 290.98C297.102 290.98 315.574 314.769 323.319 332.208C329.978 347.2 340.798 367.922 323.319 370.937C313.88 372.566 309.17 365.076 299.598 364.691C288.291 364.236 281.232 376.366 271.3 370.937C258.035 363.688 265.057 345.951 271.3 332.208Z" fill="#FF553B"/>
<path d="M271.3 332.208C279.156 314.914 297.102 290.98 297.102 290.98C297.102 290.98 315.574 314.769 323.319 332.208C329.978 347.2 340.798 367.922 323.319 370.937C313.88 372.566 309.17 365.076 299.598 364.691C288.291 364.236 281.232 376.366 271.3 370.937C258.035 363.688 265.057 345.951 271.3 332.208Z" stroke="#FF553B" stroke-width="5" stroke-linecap="round"/>
<path d="M271.3 332.208C279.156 314.914 297.102 290.98 297.102 290.98C297.102 290.98 315.574 314.769 323.319 332.208C329.978 347.2 340.798 367.922 323.319 370.937C313.88 372.566 309.17 365.076 299.598 364.691C288.291 364.236 281.232 376.366 271.3 370.937C258.035 363.688 265.057 345.951 271.3 332.208Z" stroke="black" stroke-opacity="0.2" stroke-width="5" stroke-linecap="round"/>
<path d="M271.646 275.439C271.646 275.439 264.921 278.374 262.4 282.19C256.439 291.211 264.398 300.802 271.646 308.677C279.901 317.645 288.585 318.955 300.359 318.544C311.053 318.171 318.521 316.682 326.151 308.677C333.576 300.888 341.94 291.228 335.884 282.19C333.248 278.255 326.151 275.439 326.151 275.439H271.646Z" fill="#CF9C01"/>
<path d="M271.646 275.439C271.646 275.439 264.921 278.374 262.4 282.19C256.439 291.211 264.398 300.802 271.646 308.677C279.901 317.645 288.585 318.955 300.359 318.544C311.053 318.171 318.521 316.682 326.151 308.677C333.576 300.888 341.94 291.228 335.884 282.19C333.248 278.255 326.151 275.439 326.151 275.439H271.646Z" stroke="#CF9C01" stroke-width="5" stroke-linecap="round"/>
<path d="M271.646 275.439C271.646 275.439 264.921 278.374 262.4 282.19C256.439 291.211 264.398 300.802 271.646 308.677C279.901 317.645 288.585 318.955 300.359 318.544C311.053 318.171 318.521 316.682 326.151 308.677C333.576 300.888 341.94 291.228 335.884 282.19C333.248 278.255 326.151 275.439 326.151 275.439H271.646Z" stroke="black" stroke-opacity="0.2" stroke-width="5" stroke-linecap="round"/>
<path d="M271.447 263.351C271.447 263.351 264.654 266.131 262.107 269.746C256.087 278.29 264.126 287.375 271.447 294.833C279.786 303.328 288.557 304.568 300.45 304.179C311.252 303.826 318.795 302.416 326.503 294.833C334.002 287.455 342.451 278.306 336.334 269.746C333.671 266.018 326.503 263.351 326.503 263.351H271.447Z" fill="#F5B903"/>
<path d="M271.447 263.351C271.447 263.351 264.654 266.131 262.107 269.746C256.087 278.29 264.126 287.375 271.447 294.833C279.786 303.328 288.557 304.568 300.45 304.179C311.252 303.826 318.795 302.416 326.503 294.833C334.002 287.455 342.451 278.306 336.334 269.746C333.671 266.018 326.503 263.351 326.503 263.351H271.447Z" stroke="#F5B903" stroke-width="5" stroke-linecap="round"/>
<path d="M271.447 263.351C271.447 263.351 264.654 266.131 262.107 269.746C256.087 278.29 264.126 287.375 271.447 294.833C279.786 303.328 288.557 304.568 300.45 304.179C311.252 303.826 318.795 302.416 326.503 294.833C334.002 287.455 342.451 278.306 336.334 269.746C333.671 266.018 326.503 263.351 326.503 263.351H271.447Z" stroke="black" stroke-opacity="0.2" stroke-width="5" stroke-linecap="round"/>
<path d="M197.92 446.357L201.637 353.147C201.637 353.147 183.796 357.005 175.452 361.75C152.748 374.663 153.443 406.844 132.12 423.479C125.766 428.435 119.525 427.846 113.788 434.353C108.429 440.431 105.732 443.634 105.158 452.4C104.598 460.963 105.348 466.384 110.307 471.808C113.576 475.384 119.383 473.618 122.17 477.869C126.398 484.317 119.01 488.975 122.17 499.883C124.418 507.642 126.111 509.097 132.12 511.107C136.864 512.693 143.445 509.413 148.169 511.107C154.351 513.323 155.373 521.96 161.65 523.625C173.187 526.685 180.743 514.624 188.056 502.24C198.144 485.159 197.92 446.357 197.92 446.357Z" fill="#F9F7F7"/>
<path d="M197.92 446.357L201.637 353.147C201.637 353.147 183.796 357.005 175.452 361.75C152.748 374.663 153.443 406.844 132.12 423.479C125.766 428.435 119.525 427.846 113.788 434.353C108.429 440.431 105.732 443.634 105.158 452.4C104.598 460.963 105.348 466.384 110.307 471.808C113.576 475.384 119.383 473.618 122.17 477.869C126.398 484.317 119.01 488.975 122.17 499.883C124.418 507.642 126.111 509.097 132.12 511.107C136.864 512.693 143.445 509.413 148.169 511.107C154.351 513.323 155.373 521.96 161.65 523.625C173.187 526.685 180.743 514.624 188.056 502.24C198.144 485.159 197.92 446.357 197.92 446.357Z" stroke="#F9F7F7" stroke-width="5" stroke-linecap="round"/>
<path d="M197.92 446.357L201.637 353.147C201.637 353.147 183.796 357.005 175.452 361.75C152.748 374.663 153.443 406.844 132.12 423.479C125.766 428.435 119.525 427.846 113.788 434.353C108.429 440.431 105.732 443.634 105.158 452.4C104.598 460.963 105.348 466.384 110.307 471.808C113.576 475.384 119.383 473.618 122.17 477.869C126.398 484.317 119.01 488.975 122.17 499.883C124.418 507.642 126.111 509.097 132.12 511.107C136.864 512.693 143.445 509.413 148.169 511.107C154.351 513.323 155.373 521.96 161.65 523.625C173.187 526.685 180.743 514.624 188.056 502.24C198.144 485.159 197.92 446.357 197.92 446.357Z" stroke="black" stroke-opacity="0.2" stroke-width="5" stroke-linecap="round"/>
<path d="M402.08 446.357L398.363 353.147C398.363 353.147 416.204 357.005 424.548 361.75C447.252 374.663 446.557 406.844 467.88 423.479C474.234 428.435 480.475 427.846 486.212 434.353C491.571 440.431 494.268 443.634 494.842 452.4C495.402 460.963 494.652 466.384 489.693 471.808C486.424 475.384 480.617 473.618 477.83 477.869C473.602 484.317 480.99 488.975 477.83 499.883C475.582 507.642 473.889 509.097 467.88 511.107C463.136 512.693 456.555 509.413 451.831 511.107C445.649 513.323 444.627 521.96 438.35 523.625C426.813 526.685 419.257 514.624 411.944 502.24C401.856 485.159 402.08 446.357 402.08 446.357Z" fill="#F9F7F7"/>
<path d="M402.08 446.357L398.363 353.147C398.363 353.147 416.204 357.005 424.548 361.75C447.252 374.663 446.557 406.844 467.88 423.479C474.234 428.435 480.475 427.846 486.212 434.353C491.571 440.431 494.268 443.634 494.842 452.4C495.402 460.963 494.652 466.384 489.693 471.808C486.424 475.384 480.617 473.618 477.83 477.869C473.602 484.317 480.99 488.975 477.83 499.883C475.582 507.642 473.889 509.097 467.88 511.107C463.136 512.693 456.555 509.413 451.831 511.107C445.649 513.323 444.627 521.96 438.35 523.625C426.813 526.685 419.257 514.624 411.944 502.24C401.856 485.159 402.08 446.357 402.08 446.357Z" stroke="#F9F7F7" stroke-width="5" stroke-linecap="round"/>
<path d="M402.08 446.357L398.363 353.147C398.363 353.147 416.204 357.005 424.548 361.75C447.252 374.663 446.557 406.844 467.88 423.479C474.234 428.435 480.475 427.846 486.212 434.353C491.571 440.431 494.268 443.634 494.842 452.4C495.402 460.963 494.652 466.384 489.693 471.808C486.424 475.384 480.617 473.618 477.83 477.869C473.602 484.317 480.99 488.975 477.83 499.883C475.582 507.642 473.889 509.097 467.88 511.107C463.136 512.693 456.555 509.413 451.831 511.107C445.649 513.323 444.627 521.96 438.35 523.625C426.813 526.685 419.257 514.624 411.944 502.24C401.856 485.159 402.08 446.357 402.08 446.357Z" stroke="black" stroke-opacity="0.2" stroke-width="5" stroke-linecap="round"/>
<path d="M247.323 33.0719C204.455 29.8723 289.18 158.012 303.271 145.062C321.121 128.657 390.586 24.5414 349.238 32.1933C337.446 34.3754 321.121 44.5419 321.121 44.5419C321.121 44.5419 316.355 17.4803 303.271 15.8751C288.955 14.1187 280.216 44.7491 280.216 44.7491C280.216 44.7491 260.915 34.0864 247.323 33.0719Z" fill="#FF553B"/>
<path d="M247.323 33.0719C204.455 29.8723 289.18 158.012 303.271 145.062C321.121 128.657 390.586 24.5414 349.238 32.1933C337.446 34.3754 321.121 44.5419 321.121 44.5419C321.121 44.5419 316.355 17.4803 303.271 15.8751C288.955 14.1187 280.216 44.7491 280.216 44.7491C280.216 44.7491 260.915 34.0864 247.323 33.0719Z" stroke="#FF553B" stroke-width="5"/>
<path d="M247.323 33.0719C204.455 29.8723 289.18 158.012 303.271 145.062C321.121 128.657 390.586 24.5414 349.238 32.1933C337.446 34.3754 321.121 44.5419 321.121 44.5419C321.121 44.5419 316.355 17.4803 303.271 15.8751C288.955 14.1187 280.216 44.7491 280.216 44.7491C280.216 44.7491 260.915 34.0864 247.323 33.0719Z" stroke="black" stroke-opacity="0.2" stroke-width="5"/>
</g>
<defs>
<clipPath id="clip0_107_195">
<rect width="600" height="600" fill="white"/>
</clipPath>
</defs>
</svg>
