<svg width="600" height="600" viewBox="0 0 600 600" fill="none" xmlns="http://www.w3.org/2000/svg">
<path d="M309.911 269.943C315.322 276.127 323.663 288.3 326.332 292.392C333.873 303.955 325.706 316.131 323.051 327.917C318.637 347.517 284.473 350.199 284.947 370.285C285.208 381.349 285.79 389.285 293.377 397.342C301.735 406.217 310.954 405.729 323.086 406.925C348.732 409.452 364.237 398.943 384.685 383.259C391.769 377.826 393.35 371.554 401.369 367.632C413.824 361.541 423.021 369.022 436.866 368.282C447.523 367.712 454.929 368.684 464.033 365.32C471 362.745 475.687 356.494 478.703 348.232C481.637 340.195 480.702 334.647 478.722 326.323C475.908 314.494 471.19 307.981 461.924 300.108C450.896 290.737 438.655 292.064 427.102 287.434C417.034 283.399 416.335 283.084 402.668 280.765" stroke="white" stroke-width="5" stroke-linecap="round"/>
<path d="M309.911 269.943C315.322 276.127 323.663 288.3 326.332 292.392C333.873 303.955 325.706 316.131 323.051 327.917C318.637 347.517 284.473 350.199 284.947 370.285C285.208 381.349 285.79 389.285 293.377 397.342C301.735 406.217 310.954 405.729 323.086 406.925C348.732 409.452 364.237 398.943 384.685 383.259C391.769 377.826 393.35 371.554 401.369 367.632C413.824 361.541 423.021 369.022 436.866 368.282C447.523 367.712 454.929 368.684 464.033 365.32C471 362.745 475.687 356.494 478.703 348.232C481.637 340.195 480.702 334.647 478.722 326.323C475.908 314.494 471.19 307.981 461.924 300.108C450.896 290.737 438.655 292.064 427.102 287.434C417.034 283.399 416.335 283.084 402.668 280.765" stroke="black" stroke-width="5" stroke-linecap="round"/>
<path d="M52.5083 332.541C54.5745 332.794 74.7494 337.169 76.4707 337.394C78.5781 337.67 84.8765 337.937 86.6016 337.394C91.1952 335.949 94.7461 333.862 100.245 332.541C107.146 330.882 111.476 328.812 118.324 330.677C124.46 332.347 127.422 335.197 131.815 339.796C138.39 346.677 136.469 355.243 142.181 361.852C149.464 370.28 162.861 376.081 172.929 380.116C184.482 384.746 196.723 383.419 207.75 392.789C217.016 400.663 221.735 407.176 224.548 419.005C226.528 427.329 227.464 432.876 224.53 440.914C221.514 449.175 216.827 455.427 209.86 458.002C200.756 461.366 193.35 460.394 182.692 460.964C168.848 461.704 159.651 454.223 147.196 460.314" stroke="black" stroke-width="5" stroke-linecap="round"/>
<path d="M296.89 444.324C301.943 446.918 303.619 451.666 306.084 455.596C306.51 456.356 306.514 456.649 306.864 457.286C307.292 458.066 307.517 458.733 308.127 459.181C309.751 460.375 311.334 461.057 313.14 462.587C315.407 464.507 317.177 465.456 318.242 468.23C319.196 470.715 318.966 472.42 318.5 475.04C317.803 478.962 314.436 480.433 313.618 483.996C312.574 488.54 313.93 494.498 315.058 498.895C316.353 503.941 319.829 507.745 319.393 513.786C319.027 518.862 317.995 522.066 314.698 525.942C312.377 528.67 310.736 530.358 307.296 531.356C303.761 532.381 300.491 532.345 297.898 530.63C294.51 528.389 293.007 525.648 290.178 522.191C286.503 517.7 286.754 512.744 281.616 510.046C278.308 508.309 275.8 509.326 272.213 508.279C261.86 505.255 254.476 502.62 248.986 493.336C246.388 488.944 243.943 485.953 244.872 480.936C245.715 476.381 248.25 474.221 251.921 471.396C258.585 466.268 265.553 471.89 273.262 468.532C277.898 466.512 284.388 466.526 284.119 461.477C284.011 459.435 282.523 458.661 282.027 456.677C280.661 451.213 280.351 445.349 285.282 442.626C289.281 440.418 292.794 442.222 296.856 444.306L296.89 444.324Z" stroke="#E93C02" stroke-width="5" stroke-linecap="round"/>
<path d="M296.89 444.324C301.943 446.918 303.619 451.666 306.084 455.596C306.51 456.356 306.514 456.649 306.864 457.286C307.292 458.066 307.517 458.733 308.127 459.181C309.751 460.375 311.334 461.057 313.14 462.587C315.407 464.507 317.177 465.456 318.242 468.23C319.196 470.715 318.966 472.42 318.5 475.04C317.803 478.962 314.436 480.433 313.618 483.996C312.574 488.54 313.93 494.498 315.058 498.895C316.353 503.941 319.829 507.745 319.393 513.786C319.027 518.862 317.995 522.066 314.698 525.942C312.377 528.67 310.736 530.358 307.296 531.356C303.761 532.381 300.491 532.345 297.898 530.63C294.51 528.389 293.007 525.648 290.178 522.191C286.503 517.7 286.754 512.744 281.616 510.046C278.308 508.309 275.8 509.326 272.213 508.279C261.86 505.255 254.476 502.62 248.986 493.336C246.388 488.944 243.943 485.953 244.872 480.936C245.715 476.381 248.25 474.221 251.921 471.396C258.585 466.268 265.553 471.89 273.262 468.532C277.898 466.512 284.388 466.526 284.119 461.477C284.011 459.435 282.523 458.661 282.027 456.677C280.661 451.213 280.351 445.349 285.282 442.626C289.281 440.418 292.794 442.222 296.856 444.306L296.89 444.324Z" stroke="black" stroke-width="5" stroke-linecap="round"/>
<path d="M454.562 502.629C453.565 497.672 454.946 491.33 449.954 490.529C447.935 490.205 446.864 491.496 444.821 491.563C439.191 491.747 433.394 490.813 431.772 485.42C430.452 481.033 432.973 477.974 435.878 474.43C439.479 470.037 444.473 469.4 448.835 467.818C449.667 467.562 449.954 467.62 450.65 467.412C451.503 467.158 452.203 467.079 452.77 466.577C454.279 465.241 455.279 463.837 457.155 462.394C459.51 460.582 460.811 459.052 463.747 458.596C466.377 458.187 467.995 458.771 470.459 459.779C474.146 461.287 474.873 464.888 478.184 466.439C482.406 468.417 488.516 468.347 493.052 468.171C498.257 467.969 502.709 465.373 508.522 467.072C513.407 468.499 510.886 467.818 518.615 468.171" stroke="black" stroke-width="5" stroke-linecap="round"/>
<path d="M120.712 215.062C111.542 217.66 108.525 223.684 104.929 232.304C103.683 235.29 104.467 235.624 102.589 238.18C99.6716 242.15 95.0028 240.649 90.4942 242.83C87.0236 244.509 84.3246 245.17 81.9639 247.669C80.1573 249.582 79.8907 252.54 80.6091 256.012C81.3078 259.39 82.7876 261.314 85.202 264.121C88.6331 268.11 91.5899 269.869 96.3642 271.506C102.046 273.453 115.848 266.73 120.712 266.852" stroke="black" stroke-width="5" stroke-linecap="round"/>
<path d="M473.559 384.632C473.559 404.767 457.841 421.089 438.452 421.089C419.063 421.089 403.345 404.767 403.345 384.632C403.345 364.497 419.063 348.175 438.452 348.175C457.841 348.175 473.559 364.497 473.559 384.632Z" fill="#2E1A26"/>
<path d="M473.559 384.632C473.559 404.767 457.841 421.089 438.452 421.089C419.063 421.089 403.345 404.767 403.345 384.632C403.345 364.497 419.063 348.175 438.452 348.175C457.841 348.175 473.559 364.497 473.559 384.632Z" fill="#2E1A26"/>
<path d="M473.559 384.632C473.559 404.767 457.841 421.089 438.452 421.089C419.063 421.089 403.345 404.767 403.345 384.632C403.345 364.497 419.063 348.175 438.452 348.175C457.841 348.175 473.559 364.497 473.559 384.632Z" fill="#2E1A26"/>
<ellipse cx="445.879" cy="368.429" rx="11.4772" ry="11.4772" fill="white"/>
<ellipse cx="445.879" cy="368.429" rx="11.4772" ry="11.4772" fill="white"/>
<ellipse cx="445.879" cy="368.429" rx="11.4772" ry="11.4772" fill="white"/>
<path d="M102.994 196.514C110.081 206.255 115.895 210.579 126.165 216.875C153.148 233.421 176.016 230.78 206.91 223.897C230.73 218.59 243.965 211.683 263.081 196.514C279.064 183.83 297.486 157.194 297.486 157.194C297.486 157.194 270.386 154.679 253.251 151.577C239.701 149.124 232.598 144.585 218.847 143.853C200.796 142.892 173.208 151.577 173.208 151.577C173.208 151.577 184.597 135.928 186.548 124.193C188.93 109.87 181.807 102.022 179.527 87.6823C175.847 64.5357 173.208 28.0007 173.208 28.0007C173.208 28.0007 141.045 45.1831 126.165 62.4054C108.684 82.6368 101.647 97.9228 96.6749 124.193C91.4027 152.049 86.3162 173.588 102.994 196.514Z" fill="white"/>
<path d="M102.994 196.514C110.081 206.255 115.895 210.579 126.165 216.875C153.148 233.421 176.016 230.78 206.91 223.897C230.73 218.59 243.965 211.683 263.081 196.514C279.064 183.83 297.486 157.194 297.486 157.194C297.486 157.194 270.386 154.679 253.251 151.577C239.701 149.124 232.598 144.585 218.847 143.853C200.796 142.892 173.208 151.577 173.208 151.577C173.208 151.577 184.597 135.928 186.548 124.193C188.93 109.87 181.807 102.022 179.527 87.6823C175.847 64.5357 173.208 28.0007 173.208 28.0007C173.208 28.0007 141.045 45.1831 126.165 62.4054C108.684 82.6368 101.647 97.9228 96.6749 124.193C91.4027 152.049 86.3162 173.588 102.994 196.514Z" stroke="white" stroke-width="5"/>
<path d="M102.994 196.514C110.081 206.255 115.895 210.579 126.165 216.875C153.148 233.421 176.016 230.78 206.91 223.897C230.73 218.59 243.965 211.683 263.081 196.514C279.064 183.83 297.486 157.194 297.486 157.194C297.486 157.194 270.386 154.679 253.251 151.577C239.701 149.124 232.598 144.585 218.847 143.853C200.796 142.892 173.208 151.577 173.208 151.577C173.208 151.577 184.597 135.928 186.548 124.193C188.93 109.87 181.807 102.022 179.527 87.6823C175.847 64.5357 173.208 28.0007 173.208 28.0007C173.208 28.0007 141.045 45.1831 126.165 62.4054C108.684 82.6368 101.647 97.9228 96.6749 124.193C91.4027 152.049 86.3162 173.588 102.994 196.514Z" stroke="black" stroke-width="5"/>
<path d="M175.151 65.2139C149.258 86.0224 137.546 104.403 121.788 149.47" stroke="black" stroke-width="5" stroke-linecap="round"/>
<path d="M251.7 154.385C230.195 179.703 211.502 190.91 166.023 205.436" stroke="black" stroke-width="5" stroke-linecap="round"/>
<path d="M300.702 250.053C305.828 272.597 333.702 299.202 333.702 299.202H411.639C411.639 299.202 378.238 221.418 333.702 213.542C321.012 211.297 310.263 204.9 300.702 213.542C290.124 223.102 297.541 236.149 300.702 250.053Z" fill="white"/>
<path d="M300.702 250.053C305.828 272.597 333.702 299.202 333.702 299.202H411.639C411.639 299.202 378.238 221.418 333.702 213.542C321.012 211.297 310.263 204.9 300.702 213.542C290.124 223.102 297.541 236.149 300.702 250.053Z" stroke="white" stroke-width="5"/>
<path d="M300.702 250.053C305.828 272.597 333.702 299.202 333.702 299.202H411.639C411.639 299.202 378.238 221.418 333.702 213.542C321.012 211.297 310.263 204.9 300.702 213.542C290.124 223.102 297.541 236.149 300.702 250.053Z" stroke="black" stroke-width="5"/>
<path d="M305.046 215.149C335.58 228.231 351.801 242.787 379.094 281.959" stroke="black" stroke-width="5" stroke-linecap="round"/>
<path d="M298.727 240.748C320.493 250.899 331.727 259.003 349.983 282.174" stroke="black" stroke-width="5" stroke-linecap="round"/>
<path d="M286.975 475.964C310.229 466.414 349.466 460.517 349.466 460.517L387.381 475.964C387.381 475.964 385.311 552.923 349.466 567.242C330.877 574.667 317.788 571.405 298.21 567.242C272.052 561.679 246.161 560.354 237.826 534.943C234.065 523.479 233.611 515.354 237.826 504.049C245.55 483.336 266.526 484.362 286.975 475.964Z" fill="white"/>
<path d="M286.975 475.964C310.229 466.414 349.466 460.517 349.466 460.517L387.381 475.964C387.381 475.964 385.311 552.923 349.466 567.242C330.877 574.667 317.788 571.405 298.21 567.242C272.052 561.679 246.161 560.354 237.826 534.943C234.065 523.479 233.611 515.354 237.826 504.049C245.55 483.336 266.526 484.362 286.975 475.964Z" stroke="white" stroke-width="5"/>
<path d="M286.975 475.964C310.229 466.414 349.466 460.517 349.466 460.517L387.381 475.964C387.381 475.964 385.311 552.923 349.466 567.242C330.877 574.667 317.788 571.405 298.21 567.242C272.052 561.679 246.161 560.354 237.826 534.943C234.065 523.479 233.611 515.354 237.826 504.049C245.55 483.336 266.526 484.362 286.975 475.964Z" stroke="black" stroke-width="5"/>
<path d="M328.913 482.985C302.826 503.549 282.286 510.839 234.833 516.084" stroke="black" stroke-width="5" stroke-linecap="round"/>
<path d="M337.338 509.667C311.251 530.231 290.711 537.52 243.258 542.765" stroke="black" stroke-width="5" stroke-linecap="round"/>
<path d="M369.337 506.858C350.008 533.873 332.311 546.594 288.195 564.846" stroke="black" stroke-width="5" stroke-linecap="round"/>
<path d="M259.054 315.877C289.325 326.218 310.31 379.771 310.31 379.771C310.31 379.771 236.82 391.794 192.351 379.771C172.985 374.535 160.451 373.118 144.606 360.813C129.922 349.411 120.962 340.763 115.818 322.898C111.873 309.196 120.531 266.852 120.531 266.852C120.531 266.852 123.686 317.973 138.989 327.111C154.291 336.249 164.75 333.389 182.521 332.026C212.978 329.69 230.148 306.002 259.054 315.877Z" fill="white"/>
<path d="M259.054 315.877C289.325 326.218 310.31 379.771 310.31 379.771C310.31 379.771 236.82 391.794 192.351 379.771C172.985 374.535 160.451 373.118 144.606 360.813C129.922 349.411 120.962 340.763 115.818 322.898C111.873 309.196 120.531 266.852 120.531 266.852C120.531 266.852 123.686 317.973 138.989 327.111C154.291 336.249 164.75 333.389 182.521 332.026C212.978 329.69 230.148 306.002 259.054 315.877Z" stroke="white" stroke-width="5"/>
<path d="M259.054 315.877C289.325 326.218 310.31 379.771 310.31 379.771C310.31 379.771 236.82 391.794 192.351 379.771C172.985 374.535 160.451 373.118 144.606 360.813C129.922 349.411 120.962 340.763 115.818 322.898C111.873 309.196 120.531 266.852 120.531 266.852C120.531 266.852 123.686 317.973 138.989 327.111C154.291 336.249 164.75 333.389 182.521 332.026C212.978 329.69 230.148 306.002 259.054 315.877Z" stroke="black" stroke-width="5"/>
<path d="M219.534 320.157C240.475 331.919 251.067 340.846 267.526 365.325" stroke="black" stroke-width="5" stroke-linecap="round"/>
<path d="M192.704 332.43C209.016 342.342 216.63 349.922 226.198 370.845" stroke="black" stroke-width="5" stroke-linecap="round"/>
<path d="M56.4787 416.373C67.2314 414.21 80.9574 416.373 94.3941 424.088C123.413 440.751 166.012 471.132 166.012 471.132C166.012 471.132 142.119 480.528 125.99 482.366C98.6688 485.478 72.41 493.158 49.3614 478.161C36.8467 470.018 28.33 458.607 29.7975 443.748C31.3893 427.633 40.6026 419.566 56.4787 416.373Z" fill="white"/>
<path d="M56.4787 416.373C67.2314 414.21 80.9574 416.373 94.3941 424.088C123.413 440.751 166.012 471.132 166.012 471.132C166.012 471.132 142.119 480.528 125.99 482.366C98.6688 485.478 72.41 493.158 49.3614 478.161C36.8467 470.018 28.33 458.607 29.7975 443.748C31.3893 427.633 40.6026 419.566 56.4787 416.373Z" stroke="white" stroke-width="5"/>
<path d="M56.4787 416.373C67.2314 414.21 80.9574 416.373 94.3941 424.088C123.413 440.751 166.012 471.132 166.012 471.132C166.012 471.132 142.119 480.528 125.99 482.366C98.6688 485.478 72.41 493.158 49.3614 478.161C36.8467 470.018 28.33 458.607 29.7975 443.748C31.3893 427.633 40.6026 419.566 56.4787 416.373Z" stroke="black" stroke-width="5"/>
<path d="M47.8923 424.097C60.9971 437.973 70.0028 443.833 92.4649 448.811" stroke="black" stroke-width="5" stroke-linecap="round"/>
<path d="M31.0413 440.948C52.7864 463.449 65.3313 471.03 93.0274 473.775" stroke="black" stroke-width="5" stroke-linecap="round"/>
<path d="M549.39 369.941C532.998 394.906 528.808 410.923 529.73 442.963" stroke="black" stroke-width="5" stroke-linecap="round"/>
<!-- <path d="M445 512L396 514" stroke="#7B79E2" stroke-width="3" stroke-linecap="round"/>
<path d="M526 471L448 510" stroke="#7B79E2" stroke-width="3" stroke-linecap="round"/>
<path d="M564 439L526 471" stroke="#7B79E2" stroke-width="3" stroke-linecap="round"/>
<path d="M564 373V438" stroke="#7B79E2" stroke-width="3" stroke-linecap="round"/>
<path d="M523 329L564 370" stroke="#7B79E2" stroke-width="3" stroke-linecap="round"/>
<path d="M409 270L519 326" stroke="#7B79E2" stroke-width="3" stroke-linecap="round"/>
<path d="M352 207L409 270" stroke="#7B79E2" stroke-width="3" stroke-linecap="round"/>
<path d="M290 202L350 207" stroke="#7B79E2" stroke-width="3" stroke-linecap="round"/>
<path d="M288 245L290 203" stroke="#7B79E2" stroke-width="3" stroke-linecap="round"/>
<path d="M309 291L289 246" stroke="#7B79E2" stroke-width="3" stroke-linecap="round"/>
<path d="M309 291L240 291" stroke="#7B79E2" stroke-width="3" stroke-linecap="round"/>
<path d="M240 291L186 304" stroke="#7B79E2" stroke-width="3" stroke-linecap="round"/>
<path d="M186 305L139 299" stroke="#7B79E2" stroke-width="3" stroke-linecap="round"/>
<path d="M139 297L143 233" stroke="#7B79E2" stroke-width="3" stroke-linecap="round"/>
<path d="M144 233L97 202" stroke="#7B79E2" stroke-width="3" stroke-linecap="round"/>
<path d="M56 249L95 203.5" stroke="#7B79E2" stroke-width="3" stroke-linecap="round"/>
<path d="M45.0001 330.5L56.0001 249" stroke="#7B79E2" stroke-width="3" stroke-linecap="round"/>
<path d="M56 408L45.5 332" stroke="#7B79E2" stroke-width="3" stroke-linecap="round"/>
<path d="M148 450L57 406" stroke="#7B79E2" stroke-width="3" stroke-linecap="round"/>
<path d="M231 499L150 451" stroke="#7B79E2" stroke-width="3" stroke-linecap="round"/> -->
<path d="M226.705 499.381C226.705 501.866 228.72 503.881 231.205 503.881C233.69 503.881 235.705 501.866 235.705 499.381C235.705 496.896 233.69 494.881 231.205 494.881C228.72 494.881 226.705 496.896 226.705 499.381Z" fill="black"/>
<path d="M211.129 504V503.041L214.73 499.099C215.153 498.638 215.501 498.237 215.774 497.896C216.048 497.551 216.25 497.228 216.381 496.926C216.516 496.621 216.584 496.301 216.584 495.967C216.584 495.584 216.491 495.252 216.307 494.971C216.126 494.691 215.877 494.474 215.561 494.321C215.245 494.169 214.89 494.092 214.496 494.092C214.077 494.092 213.711 494.179 213.398 494.353C213.089 494.524 212.85 494.763 212.679 495.072C212.512 495.381 212.429 495.744 212.429 496.159H211.172C211.172 495.52 211.319 494.959 211.614 494.476C211.909 493.993 212.31 493.616 212.818 493.347C213.329 493.077 213.903 492.942 214.538 492.942C215.178 492.942 215.744 493.077 216.238 493.347C216.731 493.616 217.118 493.98 217.399 494.439C217.679 494.897 217.82 495.406 217.82 495.967C217.82 496.369 217.747 496.761 217.601 497.145C217.459 497.525 217.211 497.949 216.855 498.418C216.504 498.883 216.016 499.451 215.391 500.122L212.94 502.743V502.828H218.011V504H211.129ZM224.047 493.091V504H222.725V494.476H222.662L219.998 496.244V494.902L222.725 493.091H224.047Z" fill="black"/>
<path d="M134 300.937C134 303.422 136.015 305.437 138.5 305.437C140.985 305.437 143 303.422 143 300.937C143 298.451 140.985 296.437 138.5 296.437C136.015 296.437 134 298.451 134 300.937Z" fill="black"/>
<path d="M147.964 294.091V305H146.643V295.476H146.58L143.916 297.244V295.902L146.643 294.091H147.964ZM150.846 302.763V301.676L155.64 294.091H156.429V295.774H155.896L152.274 301.506V301.591H158.73V302.763H150.846ZM155.981 305V302.433V301.926V294.091H157.238V305H155.981Z" fill="black"/>
<path d="M145 450.5C145 452.985 147.015 455 149.5 455C151.985 455 154 452.985 154 450.5C154 448.015 151.985 446 149.5 446C147.015 446 145 448.015 145 450.5Z" fill="black"/>
<path d="M156.36 455V454.041L159.961 450.099C160.384 449.638 160.732 449.237 161.005 448.896C161.279 448.551 161.481 448.228 161.612 447.926C161.747 447.621 161.815 447.301 161.815 446.967C161.815 446.584 161.722 446.252 161.538 445.971C161.357 445.691 161.108 445.474 160.792 445.321C160.476 445.169 160.121 445.092 159.727 445.092C159.308 445.092 158.942 445.179 158.629 445.353C158.32 445.524 158.081 445.763 157.91 446.072C157.743 446.381 157.66 446.744 157.66 447.159H156.403C156.403 446.52 156.55 445.959 156.845 445.476C157.14 444.993 157.541 444.616 158.049 444.347C158.56 444.077 159.134 443.942 159.769 443.942C160.409 443.942 160.975 444.077 161.469 444.347C161.962 444.616 162.349 444.98 162.63 445.439C162.91 445.897 163.051 446.406 163.051 446.967C163.051 447.369 162.978 447.761 162.832 448.145C162.69 448.525 162.442 448.949 162.086 449.418C161.735 449.883 161.247 450.451 160.622 451.122L158.171 453.743V453.828H163.242V455H156.36ZM169 455.149C168.198 455.149 167.514 454.931 166.95 454.494C166.385 454.054 165.954 453.416 165.655 452.582C165.357 451.744 165.208 450.732 165.208 449.545C165.208 448.366 165.357 447.36 165.655 446.525C165.957 445.687 166.39 445.048 166.955 444.608C167.523 444.164 168.205 443.942 169 443.942C169.796 443.942 170.476 444.164 171.041 444.608C171.609 445.048 172.042 445.687 172.34 446.525C172.642 447.36 172.793 448.366 172.793 449.545C172.793 450.732 172.644 451.744 172.346 452.582C172.047 453.416 171.616 454.054 171.051 454.494C170.487 454.931 169.803 455.149 169 455.149ZM169 453.977C169.796 453.977 170.414 453.594 170.854 452.827C171.295 452.06 171.515 450.966 171.515 449.545C171.515 448.601 171.413 447.797 171.211 447.132C171.012 446.468 170.725 445.962 170.348 445.614C169.975 445.266 169.526 445.092 169 445.092C168.212 445.092 167.596 445.481 167.152 446.259C166.708 447.033 166.486 448.129 166.486 449.545C166.486 450.49 166.586 451.293 166.785 451.953C166.983 452.614 167.269 453.116 167.642 453.461C168.019 453.805 168.471 453.977 169 453.977Z" fill="black"/>
<path d="M51.5574 405.715C51.5574 408.2 53.5721 410.215 56.0574 410.215C58.5427 410.215 60.5574 408.2 60.5574 405.715C60.5574 403.23 58.5427 401.215 56.0574 401.215C53.5721 401.215 51.5574 403.23 51.5574 405.715Z" fill="black"/>
<path d="M39.9645 400.091V411H38.6435V401.476H38.5795L35.9162 403.244V401.902L38.6435 400.091H39.9645ZM46.5749 399.942C47.0224 399.945 47.4698 400.031 47.9173 400.197C48.3647 400.364 48.7731 400.641 49.1424 401.028C49.5117 401.412 49.8082 401.936 50.032 402.6C50.2557 403.264 50.3675 404.097 50.3675 405.098C50.3675 406.067 50.2752 406.929 50.0906 407.681C49.9094 408.431 49.6467 409.063 49.3022 409.578C48.9613 410.093 48.5458 410.483 48.0558 410.75C47.5692 411.016 47.0188 411.149 46.4045 411.149C45.7937 411.149 45.2486 411.028 44.7692 410.787C44.2933 410.542 43.9027 410.203 43.5973 409.77C43.2955 409.333 43.1019 408.827 43.0167 408.251H44.3164C44.4336 408.752 44.6662 409.166 45.0142 409.493C45.3658 409.816 45.8292 409.977 46.4045 409.977C47.2461 409.977 47.9102 409.61 48.3967 408.875C48.8867 408.14 49.1317 407.101 49.1317 405.759H49.0465C48.8477 406.057 48.6115 406.314 48.3381 406.531C48.0646 406.748 47.761 406.914 47.4272 407.032C47.0934 407.149 46.7383 407.207 46.3619 407.207C45.7369 407.207 45.1634 407.053 44.6413 406.744C44.1229 406.431 43.7074 406.004 43.3949 405.46C43.0859 404.913 42.9315 404.288 42.9315 403.585C42.9315 402.918 43.0806 402.307 43.3789 401.753C43.6808 401.195 44.1033 400.751 44.6467 400.421C45.1935 400.091 45.8363 399.931 46.5749 399.942ZM46.5749 401.114C46.1275 401.114 45.7244 401.225 45.3658 401.449C45.0107 401.669 44.7283 401.968 44.5188 402.344C44.3129 402.717 44.2099 403.131 44.2099 403.585C44.2099 404.04 44.3093 404.453 44.5082 404.826C44.7106 405.196 44.9858 405.49 45.3338 405.711C45.6854 405.927 46.0849 406.036 46.5323 406.036C46.8697 406.036 47.1839 405.97 47.4751 405.838C47.7663 405.703 48.0202 405.521 48.2369 405.29C48.457 405.055 48.6293 404.791 48.7536 404.496C48.8778 404.198 48.94 403.887 48.94 403.564C48.94 403.138 48.837 402.738 48.631 402.365C48.4286 401.993 48.1481 401.691 47.7894 401.46C47.4343 401.229 47.0295 401.114 46.5749 401.114Z" fill="black"/>
<path d="M41 330.5C41 332.985 43.0147 335 45.5 335C47.9853 335 50 332.985 50 330.5C50 328.015 47.9853 326 45.5 326C43.0147 326 41 328.015 41 330.5Z" fill="black"/>
<path d="M28.9645 324.091V335H27.6435V325.476H27.5795L24.9162 327.244V325.902L27.6435 324.091H28.9645ZM35.5962 335.149C34.8647 335.149 34.2184 335.02 33.6573 334.76C33.0998 334.498 32.6648 334.137 32.3523 333.679C32.0398 333.217 31.8853 332.692 31.8888 332.102C31.8853 331.641 31.9759 331.214 32.1605 330.824C32.3452 330.43 32.5973 330.101 32.9169 329.838C33.2401 329.572 33.6005 329.403 33.9982 329.332V329.268C33.4762 329.134 33.0607 328.841 32.7518 328.39C32.4428 327.935 32.2901 327.418 32.2937 326.839C32.2901 326.286 32.4304 325.79 32.7145 325.353C32.9986 324.917 33.3892 324.572 33.8864 324.32C34.3871 324.068 34.957 323.942 35.5962 323.942C36.2283 323.942 36.793 324.068 37.2901 324.32C37.7873 324.572 38.1779 324.917 38.462 325.353C38.7496 325.79 38.8952 326.286 38.8988 326.839C38.8952 327.418 38.7372 327.935 38.4247 328.39C38.1158 328.841 37.7056 329.134 37.1942 329.268V329.332C37.5884 329.403 37.9435 329.572 38.2596 329.838C38.5756 330.101 38.8278 330.43 39.016 330.824C39.2042 331.214 39.3001 331.641 39.3036 332.102C39.3001 332.692 39.1403 333.217 38.8242 333.679C38.5117 334.137 38.0767 334.498 37.5192 334.76C36.9652 335.02 36.3242 335.149 35.5962 335.149ZM35.5962 333.977C36.0898 333.977 36.516 333.897 36.8746 333.738C37.2333 333.578 37.5103 333.352 37.7056 333.061C37.9009 332.77 38.0004 332.429 38.0039 332.038C38.0004 331.626 37.8938 331.262 37.6843 330.946C37.4748 330.63 37.1889 330.382 36.8267 330.201C36.468 330.02 36.0579 329.929 35.5962 329.929C35.131 329.929 34.7156 330.02 34.3498 330.201C33.9876 330.382 33.7017 330.63 33.4922 330.946C33.2862 331.262 33.185 331.626 33.1886 332.038C33.185 332.429 33.2791 332.77 33.4709 333.061C33.6662 333.352 33.945 333.578 34.3072 333.738C34.6694 333.897 35.0991 333.977 35.5962 333.977ZM35.5962 328.8C35.9869 328.8 36.3331 328.722 36.6349 328.565C36.9403 328.409 37.18 328.191 37.354 327.91C37.5281 327.63 37.6168 327.301 37.6204 326.925C37.6168 326.555 37.5298 326.234 37.3594 325.961C37.1889 325.684 36.9528 325.471 36.6509 325.321C36.3491 325.169 35.9975 325.092 35.5962 325.092C35.1879 325.092 34.831 325.169 34.5256 325.321C34.2202 325.471 33.984 325.684 33.8171 325.961C33.6502 326.234 33.5685 326.555 33.5721 326.925C33.5685 327.301 33.652 327.63 33.8224 327.91C33.9964 328.191 34.2362 328.409 34.5415 328.565C34.8469 328.722 35.1985 328.8 35.5962 328.8Z" fill="black"/>
<path d="M92 202.5C92 204.985 94.0147 207 96.5 207C98.9853 207 101 204.985 101 202.5C101 200.015 98.9853 198 96.5 198C94.0147 198 92 200.015 92 202.5Z" fill="black"/>
<path d="M79.9645 197.091V208H78.6435V198.476H78.5795L75.9162 200.244V198.902L78.6435 197.091H79.9645ZM86.7241 208.149C86.2766 208.142 85.8292 208.057 85.3817 207.893C84.9343 207.73 84.5259 207.455 84.1566 207.068C83.7873 206.677 83.4908 206.15 83.267 205.486C83.0433 204.818 82.9315 203.98 82.9315 202.972C82.9315 202.006 83.022 201.15 83.2031 200.404C83.3842 199.655 83.647 199.025 83.9915 198.513C84.3359 197.998 84.7514 197.608 85.2379 197.341C85.728 197.075 86.2802 196.942 86.8945 196.942C87.5053 196.942 88.0487 197.064 88.5245 197.309C89.0039 197.551 89.3945 197.888 89.6964 198.321C89.9982 198.755 90.1935 199.254 90.2823 199.818H88.9826C88.8619 199.328 88.6275 198.922 88.2795 198.598C87.9315 198.275 87.4698 198.114 86.8945 198.114C86.0494 198.114 85.3835 198.481 84.897 199.216C84.4141 199.951 84.1708 200.983 84.1673 202.311H84.2525C84.4513 202.009 84.6875 201.752 84.9609 201.539C85.2379 201.322 85.5433 201.155 85.8771 201.038C86.2109 200.921 86.5643 200.862 86.9371 200.862C87.5621 200.862 88.1339 201.018 88.6523 201.331C89.1708 201.64 89.5863 202.068 89.8988 202.615C90.2113 203.158 90.3675 203.781 90.3675 204.484C90.3675 205.159 90.2166 205.777 89.9148 206.338C89.6129 206.896 89.1886 207.339 88.6417 207.67C88.0984 207.996 87.4592 208.156 86.7241 208.149ZM86.7241 206.977C87.1715 206.977 87.5728 206.865 87.9279 206.642C88.2866 206.418 88.5689 206.118 88.7749 205.741C88.9844 205.365 89.0891 204.946 89.0891 204.484C89.0891 204.033 88.9879 203.623 88.7855 203.254C88.5866 202.881 88.3114 202.585 87.9599 202.364C87.6119 202.144 87.2141 202.034 86.7667 202.034C86.4293 202.034 86.1151 202.102 85.8239 202.237C85.5327 202.368 85.277 202.549 85.0568 202.78C84.8402 203.011 84.6697 203.275 84.5455 203.574C84.4212 203.868 84.359 204.179 84.359 204.506C84.359 204.939 84.4602 205.344 84.6626 205.72C84.8686 206.097 85.1491 206.4 85.5043 206.631C85.8629 206.862 86.2695 206.977 86.7241 206.977Z" fill="black"/>
<path d="M52.0115 248.935C52.0115 251.421 54.0262 253.435 56.5115 253.435C58.9968 253.435 61.0115 251.421 61.0115 248.935C61.0115 246.45 58.9968 244.435 56.5115 244.435C54.0262 244.435 52.0115 246.45 52.0115 248.935Z" fill="black"/>
<path d="M41.9645 242.091V253H40.6435V243.476H40.5795L37.9162 245.244V243.902L40.6435 242.091H41.9645ZM45.4428 253L50.3221 243.348V243.263H44.6971V242.091H51.6857V243.327L46.8278 253H45.4428Z" fill="black"/>
<path d="M139 233.5C139 235.985 141.015 238 143.5 238C145.985 238 148 235.985 148 233.5C148 231.015 145.985 229 143.5 229C141.015 229 139 231.015 139 233.5Z" fill="black"/>
<path d="M153.964 234.091V245H152.643V235.476H152.58L149.916 237.244V235.902L152.643 234.091H153.964ZM160.511 245.149C159.886 245.149 159.323 245.025 158.822 244.776C158.322 244.528 157.92 244.187 157.619 243.754C157.317 243.32 157.152 242.827 157.123 242.273H158.402C158.451 242.766 158.675 243.175 159.073 243.498C159.474 243.817 159.953 243.977 160.511 243.977C160.958 243.977 161.356 243.873 161.704 243.663C162.056 243.453 162.331 243.166 162.53 242.8C162.732 242.431 162.833 242.013 162.833 241.548C162.833 241.072 162.729 240.648 162.519 240.275C162.313 239.899 162.029 239.602 161.667 239.386C161.305 239.169 160.891 239.059 160.426 239.055C160.092 239.052 159.749 239.103 159.398 239.21C159.046 239.313 158.757 239.446 158.529 239.609L157.294 239.46L157.954 234.091H163.622V235.263H159.062L158.679 238.48H158.743C158.966 238.303 159.247 238.155 159.584 238.038C159.922 237.921 160.273 237.862 160.639 237.862C161.306 237.862 161.901 238.022 162.423 238.342C162.949 238.658 163.361 239.091 163.659 239.641C163.961 240.192 164.112 240.82 164.112 241.527C164.112 242.223 163.956 242.844 163.643 243.391C163.334 243.935 162.908 244.364 162.365 244.68C161.821 244.993 161.203 245.149 160.511 245.149Z" fill="black"/>
<path d="M387 513.584C387 516.069 389.015 518.084 391.5 518.084C393.985 518.084 396 516.069 396 513.584C396 511.098 393.985 509.084 391.5 509.084C389.015 509.084 387 511.098 387 513.584Z" fill="black"/>
<path d="M402.51 509.091V520H401.189V510.476H401.125L398.462 512.244V510.902L401.189 509.091H402.51Z" fill="black"/>
<path d="M181 304.85C181 307.335 183.015 309.35 185.5 309.35C187.985 309.35 190 307.335 190 304.85C190 302.365 187.985 300.35 185.5 300.35C183.015 300.35 181 302.365 181 304.85Z" fill="black"/>
<path d="M194.964 296.091V307H193.643V297.476H193.58L190.916 299.244V297.902L193.643 296.091H194.964ZM201.788 307.149C201.085 307.149 200.458 307.028 199.908 306.787C199.361 306.545 198.926 306.21 198.603 305.78C198.283 305.347 198.109 304.844 198.081 304.273H199.423C199.451 304.624 199.572 304.928 199.785 305.184C199.998 305.436 200.277 305.631 200.621 305.77C200.966 305.908 201.348 305.977 201.767 305.977C202.235 305.977 202.651 305.896 203.013 305.732C203.375 305.569 203.659 305.342 203.865 305.05C204.071 304.759 204.174 304.422 204.174 304.038C204.174 303.637 204.075 303.284 203.876 302.978C203.677 302.669 203.386 302.428 203.002 302.254C202.619 302.08 202.15 301.993 201.596 301.993H200.723V300.821H201.596C202.029 300.821 202.409 300.743 202.736 300.587C203.066 300.43 203.324 300.21 203.509 299.926C203.697 299.642 203.791 299.308 203.791 298.925C203.791 298.555 203.709 298.234 203.546 297.961C203.382 297.687 203.152 297.474 202.853 297.321C202.559 297.169 202.211 297.092 201.809 297.092C201.433 297.092 201.078 297.162 200.744 297.3C200.414 297.435 200.144 297.632 199.934 297.891C199.725 298.147 199.611 298.456 199.593 298.818H198.315C198.336 298.246 198.509 297.746 198.832 297.316C199.155 296.883 199.577 296.545 200.099 296.304C200.625 296.062 201.202 295.942 201.831 295.942C202.505 295.942 203.084 296.078 203.567 296.352C204.05 296.622 204.421 296.979 204.68 297.423C204.94 297.866 205.069 298.346 205.069 298.861C205.069 299.475 204.908 299.999 204.585 300.432C204.265 300.865 203.83 301.165 203.279 301.332V301.418C203.968 301.531 204.506 301.824 204.893 302.297C205.281 302.765 205.474 303.346 205.474 304.038C205.474 304.631 205.313 305.164 204.989 305.636C204.67 306.105 204.233 306.474 203.679 306.744C203.125 307.014 202.495 307.149 201.788 307.149Z" fill="black"/>
<path d="M235.981 290.672C235.981 293.157 237.995 295.172 240.481 295.172C242.966 295.172 244.981 293.157 244.981 290.672C244.981 288.187 242.966 286.172 240.481 286.172C237.995 286.172 235.981 288.187 235.981 290.672Z" fill="black"/>
<path d="M248.964 284.091V295H247.643V285.476H247.58L244.916 287.244V285.902L247.643 284.091H248.964ZM252.102 295V294.041L255.703 290.099C256.125 289.638 256.473 289.237 256.747 288.896C257.02 288.551 257.223 288.228 257.354 287.926C257.489 287.621 257.556 287.301 257.556 286.967C257.556 286.584 257.464 286.252 257.279 285.971C257.098 285.691 256.85 285.474 256.534 285.321C256.218 285.169 255.863 285.092 255.468 285.092C255.049 285.092 254.684 285.179 254.371 285.353C254.062 285.524 253.822 285.763 253.652 286.072C253.485 286.381 253.402 286.744 253.402 287.159H252.145C252.145 286.52 252.292 285.959 252.587 285.476C252.881 284.993 253.283 284.616 253.79 284.347C254.302 284.077 254.875 283.942 255.511 283.942C256.15 283.942 256.717 284.077 257.21 284.347C257.704 284.616 258.091 284.98 258.371 285.439C258.652 285.897 258.792 286.406 258.792 286.967C258.792 287.369 258.719 287.761 258.574 288.145C258.432 288.525 258.183 288.949 257.828 289.418C257.477 289.883 256.988 290.451 256.363 291.122L253.913 293.743V293.828H258.984V295H252.102Z" fill="black"/>
<path d="M304.003 290.672C304.003 293.158 306.018 295.172 308.503 295.172C310.988 295.172 313.003 293.158 313.003 290.672C313.003 288.187 310.988 286.172 308.503 286.172C306.018 286.172 304.003 288.187 304.003 290.672Z" fill="black"/>
<path d="M294.964 284.091V295H293.643V285.476H293.58L290.916 287.244V285.902L293.643 284.091H294.964ZM301.937 284.091V295H300.616V285.476H300.552L297.889 287.244V285.902L300.616 284.091H301.937Z" fill="black"/>
<path d="M283.906 245.839C283.906 248.324 285.92 250.339 288.406 250.339C290.891 250.339 292.906 248.324 292.906 245.839C292.906 243.354 290.891 241.339 288.406 241.339C285.92 241.339 283.906 243.354 283.906 245.839Z" fill="black"/>
<path d="M271.964 239.091V250H270.643V240.476H270.58L267.916 242.244V240.902L270.643 239.091H271.964ZM278.66 250.149C277.858 250.149 277.174 249.931 276.609 249.494C276.045 249.054 275.613 248.416 275.315 247.582C275.017 246.744 274.868 245.732 274.868 244.545C274.868 243.366 275.017 242.36 275.315 241.525C275.617 240.687 276.05 240.048 276.615 239.608C277.183 239.164 277.865 238.942 278.66 238.942C279.456 238.942 280.136 239.164 280.7 239.608C281.268 240.048 281.702 240.687 282 241.525C282.302 242.36 282.453 243.366 282.453 244.545C282.453 245.732 282.304 246.744 282.005 247.582C281.707 248.416 281.276 249.054 280.711 249.494C280.146 249.931 279.463 250.149 278.66 250.149ZM278.66 248.977C279.456 248.977 280.074 248.594 280.514 247.827C280.954 247.06 281.174 245.966 281.174 244.545C281.174 243.601 281.073 242.797 280.871 242.132C280.672 241.468 280.384 240.962 280.008 240.614C279.635 240.266 279.186 240.092 278.66 240.092C277.872 240.092 277.256 240.481 276.812 241.259C276.368 242.033 276.146 243.129 276.146 244.545C276.146 245.49 276.245 246.293 276.444 246.953C276.643 247.614 276.929 248.116 277.302 248.461C277.678 248.805 278.131 248.977 278.66 248.977Z" fill="black"/>
<path d="M285 202.134C285 204.619 287.015 206.634 289.5 206.634C291.985 206.634 294 204.619 294 202.134C294 199.649 291.985 197.634 289.5 197.634C287.015 197.634 285 199.649 285 202.134Z" fill="black"/>
<path d="M300.148 195.942C300.596 195.945 301.043 196.031 301.491 196.197C301.938 196.364 302.346 196.641 302.716 197.028C303.085 197.412 303.381 197.936 303.605 198.6C303.829 199.264 303.941 200.097 303.941 201.098C303.941 202.067 303.848 202.929 303.664 203.681C303.483 204.431 303.22 205.063 302.875 205.578C302.535 206.093 302.119 206.483 301.629 206.75C301.142 207.016 300.592 207.149 299.978 207.149C299.367 207.149 298.822 207.028 298.342 206.787C297.867 206.542 297.476 206.203 297.171 205.77C296.869 205.333 296.675 204.827 296.59 204.251H297.89C298.007 204.752 298.239 205.166 298.587 205.493C298.939 205.816 299.402 205.977 299.978 205.977C300.819 205.977 301.483 205.61 301.97 204.875C302.46 204.14 302.705 203.101 302.705 201.759H302.62C302.421 202.057 302.185 202.314 301.911 202.531C301.638 202.748 301.334 202.914 301 203.032C300.667 203.149 300.312 203.207 299.935 203.207C299.31 203.207 298.737 203.053 298.215 202.744C297.696 202.431 297.281 202.004 296.968 201.46C296.659 200.913 296.505 200.288 296.505 199.585C296.505 198.918 296.654 198.307 296.952 197.753C297.254 197.195 297.677 196.751 298.22 196.421C298.767 196.091 299.41 195.931 300.148 195.942ZM300.148 197.114C299.701 197.114 299.298 197.225 298.939 197.449C298.584 197.669 298.302 197.968 298.092 198.344C297.886 198.717 297.783 199.131 297.783 199.585C297.783 200.04 297.883 200.453 298.081 200.826C298.284 201.196 298.559 201.49 298.907 201.711C299.259 201.927 299.658 202.036 300.106 202.036C300.443 202.036 300.757 201.97 301.048 201.838C301.34 201.703 301.593 201.521 301.81 201.29C302.03 201.055 302.203 200.791 302.327 200.496C302.451 200.198 302.513 199.887 302.513 199.564C302.513 199.138 302.41 198.738 302.204 198.365C302.002 197.993 301.721 197.691 301.363 197.46C301.008 197.229 300.603 197.114 300.148 197.114Z" fill="black"/>
<path d="M347 207.046C347 209.531 349.015 211.546 351.5 211.546C353.985 211.546 356 209.531 356 207.046C356 204.561 353.985 202.546 351.5 202.546C349.015 202.546 347 204.561 347 207.046Z" fill="black"/>
<path d="M362.624 212.149C361.892 212.149 361.246 212.02 360.685 211.76C360.127 211.498 359.692 211.137 359.38 210.679C359.067 210.217 358.913 209.692 358.916 209.102C358.913 208.641 359.003 208.214 359.188 207.824C359.373 207.43 359.625 207.101 359.944 206.838C360.267 206.572 360.628 206.403 361.026 206.332V206.268C360.504 206.134 360.088 205.841 359.779 205.39C359.47 204.935 359.317 204.418 359.321 203.839C359.317 203.286 359.458 202.79 359.742 202.353C360.026 201.917 360.417 201.572 360.914 201.32C361.414 201.068 361.984 200.942 362.624 200.942C363.256 200.942 363.82 201.068 364.317 201.32C364.815 201.572 365.205 201.917 365.489 202.353C365.777 202.79 365.923 203.286 365.926 203.839C365.923 204.418 365.765 204.935 365.452 205.39C365.143 205.841 364.733 206.134 364.222 206.268V206.332C364.616 206.403 364.971 206.572 365.287 206.838C365.603 207.101 365.855 207.43 366.043 207.824C366.232 208.214 366.327 208.641 366.331 209.102C366.327 209.692 366.168 210.217 365.852 210.679C365.539 211.137 365.104 211.498 364.547 211.76C363.993 212.02 363.352 212.149 362.624 212.149ZM362.624 210.977C363.117 210.977 363.543 210.897 363.902 210.738C364.261 210.578 364.538 210.352 364.733 210.061C364.928 209.77 365.028 209.429 365.031 209.038C365.028 208.626 364.921 208.262 364.712 207.946C364.502 207.63 364.216 207.382 363.854 207.201C363.495 207.02 363.085 206.929 362.624 206.929C362.158 206.929 361.743 207.02 361.377 207.201C361.015 207.382 360.729 207.63 360.52 207.946C360.314 208.262 360.212 208.626 360.216 209.038C360.212 209.429 360.306 209.77 360.498 210.061C360.694 210.352 360.972 210.578 361.335 210.738C361.697 210.897 362.126 210.977 362.624 210.977ZM362.624 205.8C363.014 205.8 363.36 205.722 363.662 205.565C363.968 205.409 364.207 205.191 364.381 204.91C364.555 204.63 364.644 204.301 364.648 203.925C364.644 203.555 364.557 203.234 364.387 202.961C364.216 202.684 363.98 202.471 363.678 202.321C363.376 202.169 363.025 202.092 362.624 202.092C362.215 202.092 361.858 202.169 361.553 202.321C361.248 202.471 361.011 202.684 360.844 202.961C360.678 203.234 360.596 203.555 360.599 203.925C360.596 204.301 360.679 204.63 360.85 204.91C361.024 205.191 361.263 205.409 361.569 205.565C361.874 205.722 362.226 205.8 362.624 205.8Z" fill="black"/>
<path d="M404 270.042C404 272.527 406.015 274.542 408.5 274.542C410.985 274.542 413 272.527 413 270.042C413 267.556 410.985 265.542 408.5 265.542C406.015 265.542 404 267.556 404 270.042Z" fill="black"/>
<path d="M416.47 275L421.349 265.348V265.263H415.724V264.091H422.713V265.327L417.855 275H416.47Z" fill="black"/>
<path d="M516 325.5C516 327.985 518.015 330 520.5 330C522.985 330 525 327.985 525 325.5C525 323.015 522.985 321 520.5 321C518.015 321 516 323.015 516 325.5Z" fill="black"/>
<path d="M529.751 330.149C529.304 330.142 528.857 330.057 528.409 329.893C527.962 329.73 527.553 329.455 527.184 329.068C526.815 328.677 526.518 328.15 526.294 327.486C526.071 326.818 525.959 325.98 525.959 324.972C525.959 324.006 526.049 323.15 526.23 322.404C526.412 321.655 526.674 321.025 527.019 320.513C527.363 319.998 527.779 319.608 528.265 319.341C528.755 319.075 529.308 318.942 529.922 318.942C530.533 318.942 531.076 319.064 531.552 319.309C532.031 319.551 532.422 319.888 532.724 320.321C533.026 320.755 533.221 321.254 533.31 321.818H532.01C531.889 321.328 531.655 320.922 531.307 320.598C530.959 320.275 530.497 320.114 529.922 320.114C529.077 320.114 528.411 320.481 527.924 321.216C527.441 321.951 527.198 322.983 527.195 324.311H527.28C527.479 324.009 527.715 323.752 527.988 323.539C528.265 323.322 528.571 323.155 528.904 323.038C529.238 322.921 529.592 322.862 529.964 322.862C530.589 322.862 531.161 323.018 531.68 323.331C532.198 323.64 532.614 324.068 532.926 324.615C533.239 325.158 533.395 325.781 533.395 326.484C533.395 327.159 533.244 327.777 532.942 328.338C532.64 328.896 532.216 329.339 531.669 329.67C531.126 329.996 530.487 330.156 529.751 330.149ZM529.751 328.977C530.199 328.977 530.6 328.865 530.955 328.642C531.314 328.418 531.596 328.118 531.802 327.741C532.012 327.365 532.116 326.946 532.116 326.484C532.116 326.033 532.015 325.623 531.813 325.254C531.614 324.881 531.339 324.585 530.987 324.364C530.639 324.144 530.241 324.034 529.794 324.034C529.457 324.034 529.142 324.102 528.851 324.237C528.56 324.368 528.304 324.549 528.084 324.78C527.868 325.011 527.697 325.275 527.573 325.574C527.449 325.868 527.386 326.179 527.386 326.506C527.386 326.939 527.488 327.344 527.69 327.72C527.896 328.097 528.176 328.4 528.532 328.631C528.89 328.862 529.297 328.977 529.751 328.977Z" fill="black"/>
<path d="M559 370.5C559 372.985 561.015 375 563.5 375C565.985 375 568 372.985 568 370.5C568 368.015 565.985 366 563.5 366C561.015 366 559 368.015 559 370.5Z" fill="black"/>
<path d="M573.538 375.149C572.913 375.149 572.35 375.025 571.85 374.776C571.349 374.528 570.948 374.187 570.646 373.754C570.344 373.32 570.179 372.827 570.151 372.273H571.429C571.479 372.766 571.702 373.175 572.1 373.498C572.501 373.817 572.981 373.977 573.538 373.977C573.986 373.977 574.384 373.873 574.732 373.663C575.083 373.453 575.358 373.166 575.557 372.8C575.76 372.431 575.861 372.013 575.861 371.548C575.861 371.072 575.756 370.648 575.547 370.275C575.341 369.899 575.056 369.602 574.694 369.386C574.332 369.169 573.918 369.059 573.453 369.055C573.119 369.052 572.777 369.103 572.425 369.21C572.074 369.313 571.784 369.446 571.557 369.609L570.321 369.46L570.982 364.091H576.649V365.263H572.089L571.706 368.48H571.77C571.994 368.303 572.274 368.155 572.612 368.038C572.949 367.921 573.3 367.862 573.666 367.862C574.334 367.862 574.929 368.022 575.451 368.342C575.976 368.658 576.388 369.091 576.686 369.641C576.988 370.192 577.139 370.82 577.139 371.527C577.139 372.223 576.983 372.844 576.67 373.391C576.362 373.935 575.935 374.364 575.392 374.68C574.849 374.993 574.231 375.149 573.538 375.149Z" fill="black"/>
<path d="M559.086 439.084C559.086 441.57 561.101 443.584 563.586 443.584C566.072 443.584 568.086 441.57 568.086 439.084C568.086 436.599 566.072 434.584 563.586 434.584C561.101 434.584 559.086 436.599 559.086 439.084Z" fill="black"/>
<path d="M568.874 441.763V440.676L573.668 433.091H574.456V434.774H573.923L570.301 440.506V440.591H576.757V441.763H568.874ZM574.009 444V441.433V440.926V433.091H575.266V444H574.009Z" fill="black"/>
<path d="M521 472.042C521 474.527 523.015 476.542 525.5 476.542C527.985 476.542 530 474.527 530 472.042C530 469.556 527.985 467.542 525.5 467.542C523.015 467.542 521 469.556 521 472.042Z" fill="black"/>
<path d="M534.815 477.149C534.112 477.149 533.485 477.028 532.935 476.787C532.388 476.545 531.953 476.21 531.63 475.78C531.31 475.347 531.136 474.844 531.108 474.273H532.45C532.479 474.624 532.599 474.928 532.812 475.184C533.026 475.436 533.304 475.631 533.649 475.77C533.993 475.908 534.375 475.977 534.794 475.977C535.263 475.977 535.678 475.896 536.04 475.732C536.403 475.569 536.687 475.342 536.893 475.05C537.099 474.759 537.202 474.422 537.202 474.038C537.202 473.637 537.102 473.284 536.903 472.978C536.705 472.669 536.413 472.428 536.03 472.254C535.646 472.08 535.178 471.993 534.624 471.993H533.75V470.821H534.624C535.057 470.821 535.437 470.743 535.763 470.587C536.094 470.43 536.351 470.21 536.536 469.926C536.724 469.642 536.818 469.308 536.818 468.925C536.818 468.555 536.737 468.234 536.573 467.961C536.41 467.687 536.179 467.474 535.881 467.321C535.586 467.169 535.238 467.092 534.837 467.092C534.46 467.092 534.105 467.162 533.771 467.3C533.441 467.435 533.171 467.632 532.962 467.891C532.752 468.147 532.638 468.456 532.621 468.818H531.342C531.364 468.246 531.536 467.746 531.859 467.316C532.182 466.883 532.605 466.545 533.127 466.304C533.652 466.062 534.229 465.942 534.858 465.942C535.533 465.942 536.112 466.078 536.594 466.352C537.077 466.622 537.449 466.979 537.708 467.423C537.967 467.866 538.097 468.346 538.097 468.861C538.097 469.475 537.935 469.999 537.612 470.432C537.292 470.865 536.857 471.165 536.307 471.332V471.418C536.996 471.531 537.534 471.824 537.921 472.297C538.308 472.765 538.501 473.346 538.501 474.038C538.501 474.631 538.34 475.164 538.017 475.636C537.697 476.105 537.26 476.474 536.706 476.744C536.152 477.014 535.522 477.149 534.815 477.149Z" fill="black"/>
<path d="M443.139 511.744C443.139 514.23 445.154 516.244 447.639 516.244C450.125 516.244 452.139 514.23 452.139 511.744C452.139 509.259 450.125 507.244 447.639 507.244C445.154 507.244 443.139 509.259 443.139 511.744Z" fill="black"/>
<path d="M454.815 519.703V518.744L458.415 514.802C458.838 514.34 459.186 513.939 459.459 513.598C459.733 513.254 459.935 512.931 460.067 512.629C460.202 512.323 460.269 512.004 460.269 511.67C460.269 511.286 460.177 510.954 459.992 510.674C459.811 510.393 459.562 510.177 459.246 510.024C458.93 509.871 458.575 509.795 458.181 509.795C457.762 509.795 457.396 509.882 457.084 510.056C456.775 510.226 456.535 510.466 456.365 510.775C456.198 511.084 456.114 511.446 456.114 511.862H454.857C454.857 511.223 455.005 510.661 455.299 510.178C455.594 509.696 455.995 509.319 456.503 509.049C457.014 508.779 457.588 508.644 458.224 508.644C458.863 508.644 459.429 508.779 459.923 509.049C460.416 509.319 460.804 509.683 461.084 510.141C461.365 510.599 461.505 511.109 461.505 511.67C461.505 512.071 461.432 512.464 461.287 512.847C461.144 513.227 460.896 513.652 460.541 514.12C460.189 514.585 459.701 515.154 459.076 515.825L456.626 518.446V518.531H461.697V519.703H454.815Z" fill="black"/>
</svg>
