<svg width="600" height="600" viewBox="0 0 600 600" fill="none" xmlns="http://www.w3.org/2000/svg">
<path d="M104.948 196.513C112.217 206.254 118.181 210.578 128.715 216.875C156.392 233.42 179.848 230.78 211.537 223.896C235.969 218.589 249.544 211.683 269.152 196.513C285.546 183.83 304.441 157.193 304.441 157.193C304.441 157.193 276.645 154.678 259.069 151.576C245.171 149.123 237.884 144.585 223.78 143.853C205.265 142.892 176.968 151.576 176.968 151.576C176.968 151.576 188.65 135.927 190.651 124.193C193.094 109.87 185.788 102.021 183.449 87.6816C179.675 64.535 176.968 28 176.968 28C176.968 28 143.978 45.1824 128.715 62.4047C110.785 82.6361 103.567 97.9221 98.4667 124.193C93.0588 152.049 87.8416 173.587 104.948 196.513Z" fill="white"/>
<path d="M104.948 196.513C112.217 206.254 118.181 210.578 128.715 216.875C156.392 233.42 179.848 230.78 211.537 223.896C235.969 218.589 249.544 211.683 269.152 196.513C285.546 183.83 304.441 157.193 304.441 157.193C304.441 157.193 276.645 154.678 259.069 151.576C245.171 149.123 237.884 144.585 223.78 143.853C205.265 142.892 176.968 151.576 176.968 151.576C176.968 151.576 188.65 135.927 190.651 124.193C193.094 109.87 185.788 102.021 183.449 87.6816C179.675 64.535 176.968 28 176.968 28C176.968 28 143.978 45.1824 128.715 62.4047C110.785 82.6361 103.567 97.9221 98.4667 124.193C93.0588 152.049 87.8416 173.587 104.948 196.513Z" stroke="white" stroke-width="5"/>
<path d="M104.948 196.513C112.217 206.254 118.181 210.578 128.715 216.875C156.392 233.42 179.848 230.78 211.537 223.896C235.969 218.589 249.544 211.683 269.152 196.513C285.546 183.83 304.441 157.193 304.441 157.193C304.441 157.193 276.645 154.678 259.069 151.576C245.171 149.123 237.884 144.585 223.78 143.853C205.265 142.892 176.968 151.576 176.968 151.576C176.968 151.576 188.65 135.927 190.651 124.193C193.094 109.87 185.788 102.021 183.449 87.6816C179.675 64.535 176.968 28 176.968 28C176.968 28 143.978 45.1824 128.715 62.4047C110.785 82.6361 103.567 97.9221 98.4667 124.193C93.0588 152.049 87.8416 173.587 104.948 196.513Z" stroke="black" stroke-opacity="0.2" stroke-width="5"/>
<path d="M178.96 65.2134C152.402 86.0219 140.389 104.403 124.226 149.47" stroke="#D7D3D3" stroke-opacity="0.6" stroke-width="5" stroke-linecap="round"/>
<path d="M257.478 154.385C235.42 179.702 216.247 190.909 169.598 205.436" stroke="#D7D3D3" stroke-opacity="0.6" stroke-width="5" stroke-linecap="round"/>
<path d="M307.74 250.052C312.997 272.596 341.589 299.202 341.589 299.202H421.53C421.53 299.202 387.27 221.417 341.589 213.541C328.572 211.296 317.547 204.899 307.74 213.541C296.89 223.102 304.497 236.148 307.74 250.052Z" fill="white"/>
<path d="M307.74 250.052C312.997 272.596 341.589 299.202 341.589 299.202H421.53C421.53 299.202 387.27 221.417 341.589 213.541C328.572 211.296 317.547 204.899 307.74 213.541C296.89 223.102 304.497 236.148 307.74 250.052Z" stroke="white" stroke-width="5"/>
<path d="M307.74 250.052C312.997 272.596 341.589 299.202 341.589 299.202H421.53C421.53 299.202 387.27 221.417 341.589 213.541C328.572 211.296 317.547 204.899 307.74 213.541C296.89 223.102 304.497 236.148 307.74 250.052Z" stroke="black" stroke-opacity="0.2" stroke-width="5"/>
<path d="M312.196 215.149C343.514 228.231 360.153 242.787 388.148 281.959" stroke="#D7D3D3" stroke-opacity="0.6" stroke-width="5" stroke-linecap="round"/>
<path d="M305.714 240.747C328.04 250.899 339.563 259.003 358.288 282.173" stroke="#D7D3D3" stroke-opacity="0.6" stroke-width="5" stroke-linecap="round"/>
<path d="M122.833 196.755C115.732 195.785 110.799 197.794 104.749 201.547C87.663 212.147 81.5034 224.369 71.6203 242.271C62.6587 258.504 59.0717 269.867 55.8554 288.033C50.3083 319.364 52.2257 340.415 65.2008 370.06C78.7589 401.036 96.8468 413.292 122.833 435.482C160.256 467.437 187.111 479.676 233.743 496.568C295.039 518.772 334.566 528.839 399.387 520.44C457.682 512.888 487.061 492.371 539.104 465.674C547.904 461.16 554.238 460.432 561.43 453.737C571.348 444.506 573.189 435.803 576.554 422.843C580.764 406.629 586.275 393.796 576.554 380.013C572.146 373.764 567.188 372.475 561.43 367.375C542.568 350.668 537.863 335.267 517.498 320.331C490.907 300.83 471.208 296.172 438.997 288.033C393.75 276.6 366.106 279.726 319.446 282.416C281.129 284.626 260.498 293.694 222.22 296.459C183.513 299.254 142.303 329.194 122.833 296.459C115.501 284.131 114.279 274.839 115.631 260.65C117.272 243.43 126.857 235.954 135.076 220.628C140.039 211.377 133.421 198.202 122.833 196.755Z" fill="white"/>
<path d="M122.833 196.755C115.732 195.785 110.799 197.794 104.749 201.547C87.663 212.147 81.5034 224.369 71.6203 242.271C62.6587 258.504 59.0717 269.867 55.8554 288.033C50.3083 319.364 52.2257 340.415 65.2008 370.06C78.7589 401.036 96.8468 413.292 122.833 435.482C160.256 467.437 187.111 479.676 233.743 496.568C295.039 518.772 334.566 528.839 399.387 520.44C457.682 512.888 487.061 492.371 539.104 465.674C547.904 461.16 554.238 460.432 561.43 453.737C571.348 444.506 573.189 435.803 576.554 422.843C580.764 406.629 586.275 393.796 576.554 380.013C572.146 373.764 567.188 372.475 561.43 367.375C542.568 350.668 537.863 335.267 517.498 320.331C490.907 300.83 471.208 296.172 438.997 288.033C393.75 276.6 366.106 279.726 319.446 282.416C281.129 284.626 260.498 293.694 222.22 296.459C183.513 299.254 142.303 329.194 122.833 296.459C115.501 284.131 114.279 274.839 115.631 260.65C117.272 243.43 126.857 235.954 135.076 220.628C140.039 211.377 133.421 198.202 122.833 196.755Z" stroke="white" stroke-width="5"/>
<path d="M122.833 196.755C115.732 195.785 110.799 197.794 104.749 201.547C87.663 212.147 81.5034 224.369 71.6203 242.271C62.6587 258.504 59.0717 269.867 55.8554 288.033C50.3083 319.364 52.2257 340.415 65.2008 370.06C78.7589 401.036 96.8468 413.292 122.833 435.482C160.256 467.437 187.111 479.676 233.743 496.568C295.039 518.772 334.566 528.839 399.387 520.44C457.682 512.888 487.061 492.371 539.104 465.674C547.904 461.16 554.238 460.432 561.43 453.737C571.348 444.506 573.189 435.803 576.554 422.843C580.764 406.629 586.275 393.796 576.554 380.013C572.146 373.764 567.188 372.475 561.43 367.375C542.568 350.668 537.863 335.267 517.498 320.331C490.907 300.83 471.208 296.172 438.997 288.033C393.75 276.6 366.106 279.726 319.446 282.416C281.129 284.626 260.498 293.694 222.22 296.459C183.513 299.254 142.303 329.194 122.833 296.459C115.501 284.131 114.279 274.839 115.631 260.65C117.272 243.43 126.857 235.954 135.076 220.628C140.039 211.377 133.421 198.202 122.833 196.755Z" stroke="black" stroke-opacity="0.2" stroke-width="5"/>
<mask id="mask0_107_102" style="mask-type:alpha" maskUnits="userSpaceOnUse" x="50" y="193" width="535" height="333">
<path d="M122.865 196.636C115.764 195.666 110.83 197.675 104.781 201.428C87.6947 212.028 81.5351 224.25 71.6521 242.152C62.6904 258.385 59.1035 269.748 55.8872 287.914C50.34 319.245 52.2574 340.297 65.2326 369.941C78.7907 400.917 96.8786 413.174 122.865 435.363C160.288 467.318 187.143 479.557 233.775 496.449C295.071 518.653 334.597 528.72 399.419 520.322C457.714 512.769 487.093 492.252 539.136 465.555C547.936 461.041 554.269 460.313 561.462 453.619C571.38 444.387 573.221 435.684 576.586 422.725C580.795 406.51 586.306 393.677 576.586 379.894C572.178 373.645 567.219 372.356 561.462 367.256C542.6 350.549 537.895 335.148 517.53 320.213C490.939 300.711 471.24 296.053 439.029 287.914C393.782 276.481 366.138 279.607 319.477 282.297C281.161 284.507 260.53 293.575 222.251 296.34C183.545 299.136 142.334 329.075 122.865 296.34C115.533 284.012 114.311 274.72 115.663 260.531C117.304 243.311 126.888 235.835 135.108 220.509C140.07 211.258 133.453 198.083 122.865 196.636Z" fill="white"/>
<path d="M122.865 196.636C115.764 195.666 110.83 197.675 104.781 201.428C87.6947 212.028 81.5351 224.25 71.6521 242.152C62.6904 258.385 59.1035 269.748 55.8872 287.914C50.34 319.245 52.2574 340.297 65.2326 369.941C78.7907 400.917 96.8786 413.174 122.865 435.363C160.288 467.318 187.143 479.557 233.775 496.449C295.071 518.653 334.597 528.72 399.419 520.322C457.714 512.769 487.093 492.252 539.136 465.555C547.936 461.041 554.269 460.313 561.462 453.619C571.38 444.387 573.221 435.684 576.586 422.725C580.795 406.51 586.306 393.677 576.586 379.894C572.178 373.645 567.219 372.356 561.462 367.256C542.6 350.549 537.895 335.148 517.53 320.213C490.939 300.711 471.24 296.053 439.029 287.914C393.782 276.481 366.138 279.607 319.477 282.297C281.161 284.507 260.53 293.575 222.251 296.34C183.545 299.136 142.334 329.075 122.865 296.34C115.533 284.012 114.311 274.72 115.663 260.531C117.304 243.311 126.888 235.835 135.108 220.509C140.07 211.258 133.453 198.083 122.865 196.636Z" stroke="white" stroke-width="5"/>
<path d="M122.865 196.636C115.764 195.666 110.83 197.675 104.781 201.428C87.6947 212.028 81.5351 224.25 71.6521 242.152C62.6904 258.385 59.1035 269.748 55.8872 287.914C50.34 319.245 52.2574 340.297 65.2326 369.941C78.7907 400.917 96.8786 413.174 122.865 435.363C160.288 467.318 187.143 479.557 233.775 496.449C295.071 518.653 334.597 528.72 399.419 520.322C457.714 512.769 487.093 492.252 539.136 465.555C547.936 461.041 554.269 460.313 561.462 453.619C571.38 444.387 573.221 435.684 576.586 422.725C580.795 406.51 586.306 393.677 576.586 379.894C572.178 373.645 567.219 372.356 561.462 367.256C542.6 350.549 537.895 335.148 517.53 320.213C490.939 300.711 471.24 296.053 439.029 287.914C393.782 276.481 366.138 279.607 319.477 282.297C281.161 284.507 260.53 293.575 222.251 296.34C183.545 299.136 142.334 329.075 122.865 296.34C115.533 284.012 114.311 274.72 115.663 260.531C117.304 243.311 126.888 235.835 135.108 220.509C140.07 211.258 133.453 198.083 122.865 196.636Z" stroke="black" stroke-opacity="0.2" stroke-width="5"/>
</mask>
<g mask="url(#mask0_107_102)">
<path d="M303.196 245.388C315.645 239.311 327.458 242.787 338.798 243.585C340.917 243.838 341.501 244.243 343.267 244.469C345.428 244.745 347.074 245.255 348.844 244.712C353.555 243.267 357.198 241.18 362.838 239.858C369.916 238.2 374.357 236.13 381.382 237.995C387.676 239.665 390.714 242.515 395.22 247.113C401.963 253.995 399.993 262.561 405.852 269.17C413.323 277.598 427.064 283.399 437.391 287.434C449.24 292.064 461.796 290.737 473.108 300.107C482.612 307.981 487.452 314.494 490.338 326.323C492.368 334.646 493.328 340.194 490.318 348.231C487.225 356.493 482.417 362.745 475.271 365.319C465.933 368.684 458.336 367.712 447.405 368.282C433.205 369.022 423.771 361.54 410.996 367.632C402.77 371.554 401.149 377.826 393.883 383.259C372.909 398.943 357.005 409.452 330.7 406.924C318.256 405.729 308.8 406.217 300.227 397.342C292.444 389.285 291.847 381.349 291.58 370.284C291.094 350.199 312.301 344.709 316.829 325.109C319.551 313.323 328.979 300.834 318.608 294.222C314.414 291.548 310.729 293.322 306.089 291.477C293.308 286.394 281.268 278.71 283.028 265.363C284.455 254.536 293.108 250.312 303.112 245.429L303.196 245.388Z" fill="#E93C02"/>
<path d="M303.196 245.388C315.645 239.311 327.458 242.787 338.798 243.585C340.917 243.838 341.501 244.243 343.267 244.469C345.428 244.745 347.074 245.255 348.844 244.712C353.555 243.267 357.198 241.18 362.838 239.858C369.916 238.2 374.357 236.13 381.382 237.995C387.676 239.665 390.714 242.515 395.22 247.113C401.963 253.995 399.993 262.561 405.852 269.17C413.323 277.598 427.064 283.399 437.391 287.434C449.24 292.064 461.796 290.737 473.108 300.107C482.612 307.981 487.452 314.494 490.338 326.323C492.368 334.646 493.328 340.194 490.318 348.231C487.225 356.493 482.417 362.745 475.271 365.319C465.933 368.684 458.336 367.712 447.405 368.282C433.205 369.022 423.771 361.54 410.996 367.632C402.77 371.554 401.149 377.826 393.883 383.259C372.909 398.943 357.005 409.452 330.7 406.924C318.256 405.729 308.8 406.217 300.227 397.342C292.444 389.285 291.847 381.349 291.58 370.284C291.094 350.199 312.301 344.709 316.829 325.109C319.551 313.323 328.979 300.834 318.608 294.222C314.414 291.548 310.729 293.322 306.089 291.477C293.308 286.394 281.268 278.71 283.028 265.363C284.455 254.536 293.108 250.312 303.112 245.429L303.196 245.388Z" stroke="#E93C02" stroke-width="5" stroke-linecap="round"/>
<path d="M303.196 245.388C315.645 239.311 327.458 242.787 338.798 243.585C340.917 243.838 341.501 244.243 343.267 244.469C345.428 244.745 347.074 245.255 348.844 244.712C353.555 243.267 357.198 241.18 362.838 239.858C369.916 238.2 374.357 236.13 381.382 237.995C387.676 239.665 390.714 242.515 395.22 247.113C401.963 253.995 399.993 262.561 405.852 269.17C413.323 277.598 427.064 283.399 437.391 287.434C449.24 292.064 461.796 290.737 473.108 300.107C482.612 307.981 487.452 314.494 490.338 326.323C492.368 334.646 493.328 340.194 490.318 348.231C487.225 356.493 482.417 362.745 475.271 365.319C465.933 368.684 458.336 367.712 447.405 368.282C433.205 369.022 423.771 361.54 410.996 367.632C402.77 371.554 401.149 377.826 393.883 383.259C372.909 398.943 357.005 409.452 330.7 406.924C318.256 405.729 308.8 406.217 300.227 397.342C292.444 389.285 291.847 381.349 291.58 370.284C291.094 350.199 312.301 344.709 316.829 325.109C319.551 313.323 328.979 300.834 318.608 294.222C314.414 291.548 310.729 293.322 306.089 291.477C293.308 286.394 281.268 278.71 283.028 265.363C284.455 254.536 293.108 250.312 303.112 245.429L303.196 245.388Z" stroke="black" stroke-opacity="0.2" stroke-width="5" stroke-linecap="round"/>
<path d="M42.4872 338.07C54.9362 331.993 66.7487 335.469 78.0892 336.267C80.2085 336.52 80.7923 336.925 82.5578 337.151C84.7194 337.427 86.3651 337.937 88.1346 337.394C92.8463 335.949 96.4886 333.862 102.129 332.54C109.207 330.882 113.648 328.812 120.673 330.677C126.967 332.347 130.005 335.197 134.511 339.795C141.254 346.677 139.284 355.243 145.143 361.852C152.614 370.28 166.355 376.081 176.682 380.116C188.531 384.746 201.087 383.419 212.399 392.789C221.903 400.663 226.743 407.176 229.629 419.005C231.659 427.328 232.619 432.876 229.609 440.913C226.516 449.175 221.708 455.427 214.562 458.001C205.224 461.366 197.628 460.394 186.696 460.964C172.496 461.704 163.062 454.222 150.287 460.314C142.061 464.236 140.44 470.508 133.174 475.941C112.2 491.625 96.2962 502.134 69.9908 499.606C57.5471 498.411 48.0906 498.899 39.5182 490.024C31.7355 481.967 31.1383 474.031 30.8708 462.966C30.3853 442.881 51.5918 437.391 56.1196 417.791C58.8422 406.005 68.2697 393.516 57.8986 386.904C53.7046 384.23 50.0195 386.004 45.3795 384.159C32.5987 379.076 20.5588 371.392 22.3185 358.045C23.7459 347.218 32.3995 342.994 42.4033 338.111L42.4872 338.07Z" fill="#E93C02"/>
<path d="M42.4872 338.07C54.9362 331.993 66.7487 335.469 78.0892 336.267C80.2085 336.52 80.7923 336.925 82.5578 337.151C84.7194 337.427 86.3651 337.937 88.1346 337.394C92.8463 335.949 96.4886 333.862 102.129 332.54C109.207 330.882 113.648 328.812 120.673 330.677C126.967 332.347 130.005 335.197 134.511 339.795C141.254 346.677 139.284 355.243 145.143 361.852C152.614 370.28 166.355 376.081 176.682 380.116C188.531 384.746 201.087 383.419 212.399 392.789C221.903 400.663 226.743 407.176 229.629 419.005C231.659 427.328 232.619 432.876 229.609 440.913C226.516 449.175 221.708 455.427 214.562 458.001C205.224 461.366 197.628 460.394 186.696 460.964C172.496 461.704 163.062 454.222 150.287 460.314C142.061 464.236 140.44 470.508 133.174 475.941C112.2 491.625 96.2962 502.134 69.9908 499.606C57.5471 498.411 48.0906 498.899 39.5182 490.024C31.7355 481.967 31.1383 474.031 30.8708 462.966C30.3853 442.881 51.5918 437.391 56.1196 417.791C58.8422 406.005 68.2697 393.516 57.8986 386.904C53.7046 384.23 50.0195 386.004 45.3795 384.159C32.5987 379.076 20.5588 371.392 22.3185 358.045C23.7459 347.218 32.3995 342.994 42.4033 338.111L42.4872 338.07Z" stroke="#E93C02" stroke-width="5" stroke-linecap="round"/>
<path d="M42.4872 338.07C54.9362 331.993 66.7487 335.469 78.0892 336.267C80.2085 336.52 80.7923 336.925 82.5578 337.151C84.7194 337.427 86.3651 337.937 88.1346 337.394C92.8463 335.949 96.4886 333.862 102.129 332.54C109.207 330.882 113.648 328.812 120.673 330.677C126.967 332.347 130.005 335.197 134.511 339.795C141.254 346.677 139.284 355.243 145.143 361.852C152.614 370.28 166.355 376.081 176.682 380.116C188.531 384.746 201.087 383.419 212.399 392.789C221.903 400.663 226.743 407.176 229.629 419.005C231.659 427.328 232.619 432.876 229.609 440.913C226.516 449.175 221.708 455.427 214.562 458.001C205.224 461.366 197.628 460.394 186.696 460.964C172.496 461.704 163.062 454.222 150.287 460.314C142.061 464.236 140.44 470.508 133.174 475.941C112.2 491.625 96.2962 502.134 69.9908 499.606C57.5471 498.411 48.0906 498.899 39.5182 490.024C31.7355 481.967 31.1383 474.031 30.8708 462.966C30.3853 442.881 51.5918 437.391 56.1196 417.791C58.8422 406.005 68.2697 393.516 57.8986 386.904C53.7046 384.23 50.0195 386.004 45.3795 384.159C32.5987 379.076 20.5588 371.392 22.3185 358.045C23.7459 347.218 32.3995 342.994 42.4033 338.111L42.4872 338.07Z" stroke="black" stroke-opacity="0.2" stroke-width="5" stroke-linecap="round"/>
<path d="M303.829 444.324C309.013 446.918 310.732 451.666 313.261 455.596C313.697 456.356 313.701 456.649 314.06 457.286C314.499 458.065 314.73 458.733 315.355 459.181C317.021 460.375 318.645 461.057 320.498 462.587C322.823 464.506 324.639 465.456 325.731 468.23C326.709 470.714 326.474 472.42 325.996 475.04C325.281 478.962 321.827 480.432 320.988 483.996C319.918 488.54 321.308 494.498 322.465 498.895C323.793 503.94 327.359 507.745 326.912 513.786C326.536 518.862 325.478 522.066 322.096 525.942C319.715 528.67 318.032 530.358 314.504 531.355C310.878 532.381 307.524 532.345 304.864 530.63C301.389 528.388 299.847 525.647 296.945 522.19C293.176 517.699 293.433 512.744 288.164 510.046C284.771 508.308 282.198 509.326 278.519 508.279C267.899 505.255 260.326 502.62 254.694 493.336C252.03 488.944 249.521 485.952 250.474 480.935C251.339 476.381 253.939 474.221 257.705 471.396C264.54 466.267 271.687 471.89 279.595 468.531C284.35 466.512 291.007 466.526 290.731 461.476C290.619 459.434 289.094 458.66 288.585 456.677C287.183 451.213 286.866 445.349 291.923 442.626C296.025 440.418 299.629 442.221 303.794 444.306L303.829 444.324Z" fill="#E93C02"/>
<path d="M303.829 444.324C309.013 446.918 310.732 451.666 313.261 455.596C313.697 456.356 313.701 456.649 314.06 457.286C314.499 458.065 314.73 458.733 315.355 459.181C317.021 460.375 318.645 461.057 320.498 462.587C322.823 464.506 324.639 465.456 325.731 468.23C326.709 470.714 326.474 472.42 325.996 475.04C325.281 478.962 321.827 480.432 320.988 483.996C319.918 488.54 321.308 494.498 322.465 498.895C323.793 503.94 327.359 507.745 326.912 513.786C326.536 518.862 325.478 522.066 322.096 525.942C319.715 528.67 318.032 530.358 314.504 531.355C310.878 532.381 307.524 532.345 304.864 530.63C301.389 528.388 299.847 525.647 296.945 522.19C293.176 517.699 293.433 512.744 288.164 510.046C284.771 508.308 282.198 509.326 278.519 508.279C267.899 505.255 260.326 502.62 254.694 493.336C252.03 488.944 249.521 485.952 250.474 480.935C251.339 476.381 253.939 474.221 257.705 471.396C264.54 466.267 271.687 471.89 279.595 468.531C284.35 466.512 291.007 466.526 290.731 461.476C290.619 459.434 289.094 458.66 288.585 456.677C287.183 451.213 286.866 445.349 291.923 442.626C296.025 440.418 299.629 442.221 303.794 444.306L303.829 444.324Z" stroke="#E93C02" stroke-width="5" stroke-linecap="round"/>
<path d="M303.829 444.324C309.013 446.918 310.732 451.666 313.261 455.596C313.697 456.356 313.701 456.649 314.06 457.286C314.499 458.065 314.73 458.733 315.355 459.181C317.021 460.375 318.645 461.057 320.498 462.587C322.823 464.506 324.639 465.456 325.731 468.23C326.709 470.714 326.474 472.42 325.996 475.04C325.281 478.962 321.827 480.432 320.988 483.996C319.918 488.54 321.308 494.498 322.465 498.895C323.793 503.94 327.359 507.745 326.912 513.786C326.536 518.862 325.478 522.066 322.096 525.942C319.715 528.67 318.032 530.358 314.504 531.355C310.878 532.381 307.524 532.345 304.864 530.63C301.389 528.388 299.847 525.647 296.945 522.19C293.176 517.699 293.433 512.744 288.164 510.046C284.771 508.308 282.198 509.326 278.519 508.279C267.899 505.255 260.326 502.62 254.694 493.336C252.03 488.944 249.521 485.952 250.474 480.935C251.339 476.381 253.939 474.221 257.705 471.396C264.54 466.267 271.687 471.89 279.595 468.531C284.35 466.512 291.007 466.526 290.731 461.476C290.619 459.434 289.094 458.66 288.585 456.677C287.183 451.213 286.866 445.349 291.923 442.626C296.025 440.418 299.629 442.221 303.794 444.306L303.829 444.324Z" stroke="black" stroke-opacity="0.2" stroke-width="5" stroke-linecap="round"/>
<path d="M446.392 474.43C450.086 470.037 455.208 469.4 459.682 467.818C460.536 467.562 460.83 467.619 461.544 467.412C462.419 467.158 463.137 467.079 463.718 466.577C465.266 465.241 466.293 463.837 468.217 462.394C470.632 460.582 471.966 459.052 474.977 458.596C477.675 458.187 479.335 458.771 481.862 459.778C485.644 461.286 486.39 464.888 489.786 466.439C494.117 468.416 500.384 468.347 505.036 468.171C510.375 467.969 514.942 465.372 520.905 467.072C525.915 468.499 528.905 470.183 532.078 474.223C534.311 477.066 535.649 479.027 535.906 482.599C536.17 486.271 535.427 489.46 533.147 491.633C530.167 494.473 527.094 495.365 523.016 497.402C517.719 500.047 512.804 498.758 508.988 503.211C506.531 506.079 507.009 508.746 505.183 512.031C499.914 521.514 495.675 528.177 485.18 531.588C480.215 533.201 476.686 534.961 471.857 532.996C467.472 531.211 465.855 528.278 463.816 524.094C460.114 516.499 467.257 510.872 465.557 502.629C464.534 497.671 465.951 491.33 460.83 490.529C458.759 490.204 457.661 491.496 455.565 491.562C449.791 491.747 443.844 490.813 442.181 485.419C440.831 481.045 443.399 477.99 446.367 474.46L446.392 474.43Z" fill="#E93C02"/>
<path d="M446.392 474.43C450.086 470.037 455.208 469.4 459.682 467.818C460.536 467.562 460.83 467.619 461.544 467.412C462.419 467.158 463.137 467.079 463.718 466.577C465.266 465.241 466.293 463.837 468.217 462.394C470.632 460.582 471.966 459.052 474.977 458.596C477.675 458.187 479.335 458.771 481.862 459.778C485.644 461.286 486.39 464.888 489.786 466.439C494.117 468.416 500.384 468.347 505.036 468.171C510.375 467.969 514.942 465.372 520.905 467.072C525.915 468.499 528.905 470.183 532.078 474.223C534.311 477.066 535.649 479.027 535.906 482.599C536.17 486.271 535.427 489.46 533.147 491.633C530.167 494.473 527.094 495.365 523.016 497.402C517.719 500.047 512.804 498.758 508.988 503.211C506.531 506.079 507.009 508.746 505.183 512.031C499.914 521.514 495.675 528.177 485.18 531.588C480.215 533.201 476.686 534.961 471.857 532.996C467.472 531.211 465.855 528.278 463.816 524.094C460.114 516.499 467.257 510.872 465.557 502.629C464.534 497.671 465.951 491.33 460.83 490.529C458.759 490.204 457.661 491.496 455.565 491.562C449.791 491.747 443.844 490.813 442.181 485.419C440.831 481.045 443.399 477.99 446.367 474.46L446.392 474.43Z" stroke="#E93C02" stroke-width="5" stroke-linecap="round"/>
<path d="M446.392 474.43C450.086 470.037 455.208 469.4 459.682 467.818C460.536 467.562 460.83 467.619 461.544 467.412C462.419 467.158 463.137 467.079 463.718 466.577C465.266 465.241 466.293 463.837 468.217 462.394C470.632 460.582 471.966 459.052 474.977 458.596C477.675 458.187 479.335 458.771 481.862 459.778C485.644 461.286 486.39 464.888 489.786 466.439C494.117 468.416 500.384 468.347 505.036 468.171C510.375 467.969 514.942 465.372 520.905 467.072C525.915 468.499 528.905 470.183 532.078 474.223C534.311 477.066 535.649 479.027 535.906 482.599C536.17 486.271 535.427 489.46 533.147 491.633C530.167 494.473 527.094 495.365 523.016 497.402C517.719 500.047 512.804 498.758 508.988 503.211C506.531 506.079 507.009 508.746 505.183 512.031C499.914 521.514 495.675 528.177 485.18 531.588C480.215 533.201 476.686 534.961 471.857 532.996C467.472 531.211 465.855 528.278 463.816 524.094C460.114 516.499 467.257 510.872 465.557 502.629C464.534 497.671 465.951 491.33 460.83 490.529C458.759 490.204 457.661 491.496 455.565 491.562C449.791 491.747 443.844 490.813 442.181 485.419C440.831 481.045 443.399 477.99 446.367 474.46L446.392 474.43Z" stroke="black" stroke-opacity="0.2" stroke-width="5" stroke-linecap="round"/>
<path d="M172.931 261.36C169.407 265.884 164.312 266.706 159.901 268.449C159.057 268.736 158.761 268.688 158.056 268.922C157.192 269.207 156.477 269.312 155.915 269.835C154.419 271.226 153.447 272.666 151.579 274.178C149.235 276.076 147.959 277.653 144.968 278.218C142.288 278.724 140.606 278.201 138.043 277.286C134.206 275.916 133.323 272.344 129.87 270.917C125.468 269.097 119.208 269.393 114.565 269.738C109.237 270.133 104.773 272.893 98.7494 271.411C93.6881 270.166 90.6364 268.592 87.311 264.669C84.9711 261.908 83.5595 259.998 83.1668 256.437C82.7632 252.777 83.3841 249.563 85.5801 247.309C88.4496 244.364 91.4868 243.361 95.4841 241.178C100.677 238.343 105.638 239.453 109.281 234.865C111.627 231.91 111.048 229.263 112.747 225.914C117.652 216.246 121.634 209.435 131.992 205.646C136.892 203.854 140.351 201.968 145.252 203.757C149.702 205.381 151.43 208.254 153.627 212.361C157.615 219.817 150.691 225.698 152.705 233.875C153.915 238.791 152.741 245.18 157.889 245.795C159.971 246.044 161.019 244.714 163.111 244.571C168.874 244.178 174.852 244.896 176.72 250.226C178.236 254.549 175.786 257.694 172.954 261.329L172.931 261.36Z" fill="#E93C02"/>
<path d="M172.931 261.36C169.407 265.884 164.312 266.706 159.901 268.449C159.057 268.736 158.761 268.688 158.056 268.922C157.192 269.207 156.477 269.312 155.915 269.835C154.419 271.226 153.447 272.666 151.579 274.178C149.235 276.076 147.959 277.653 144.968 278.218C142.288 278.724 140.606 278.201 138.043 277.286C134.206 275.916 133.323 272.344 129.87 270.917C125.468 269.097 119.208 269.393 114.565 269.738C109.237 270.133 104.773 272.893 98.7494 271.411C93.6881 270.166 90.6364 268.592 87.311 264.669C84.9711 261.908 83.5595 259.998 83.1668 256.437C82.7632 252.777 83.3841 249.563 85.5801 247.309C88.4496 244.364 91.4868 243.361 95.4841 241.178C100.677 238.343 105.638 239.453 109.281 234.865C111.627 231.91 111.048 229.263 112.747 225.914C117.652 216.246 121.634 209.435 131.992 205.646C136.892 203.854 140.351 201.968 145.252 203.757C149.702 205.381 151.43 208.254 153.627 212.361C157.615 219.817 150.691 225.698 152.705 233.875C153.915 238.791 152.741 245.18 157.889 245.795C159.971 246.044 161.019 244.714 163.111 244.571C168.874 244.178 174.852 244.896 176.72 250.226C178.236 254.549 175.786 257.694 172.954 261.329L172.931 261.36Z" stroke="#E93C02" stroke-width="5" stroke-linecap="round"/>
<path d="M172.931 261.36C169.407 265.884 164.312 266.706 159.901 268.449C159.057 268.736 158.761 268.688 158.056 268.922C157.192 269.207 156.477 269.312 155.915 269.835C154.419 271.226 153.447 272.666 151.579 274.178C149.235 276.076 147.959 277.653 144.968 278.218C142.288 278.724 140.606 278.201 138.043 277.286C134.206 275.916 133.323 272.344 129.87 270.917C125.468 269.097 119.208 269.393 114.565 269.738C109.237 270.133 104.773 272.893 98.7494 271.411C93.6881 270.166 90.6364 268.592 87.311 264.669C84.9711 261.908 83.5595 259.998 83.1668 256.437C82.7632 252.777 83.3841 249.563 85.5801 247.309C88.4496 244.364 91.4868 243.361 95.4841 241.178C100.677 238.343 105.638 239.453 109.281 234.865C111.627 231.91 111.048 229.263 112.747 225.914C117.652 216.246 121.634 209.435 131.992 205.646C136.892 203.854 140.351 201.968 145.252 203.757C149.702 205.381 151.43 208.254 153.627 212.361C157.615 219.817 150.691 225.698 152.705 233.875C153.915 238.791 152.741 245.18 157.889 245.795C159.971 246.044 161.019 244.714 163.111 244.571C168.874 244.178 174.852 244.896 176.72 250.226C178.236 254.549 175.786 257.694 172.954 261.329L172.931 261.36Z" stroke="black" stroke-opacity="0.2" stroke-width="5" stroke-linecap="round"/>
</g>
<path d="M485.042 384.632C485.042 404.766 468.92 421.089 449.032 421.089C429.145 421.089 413.023 404.766 413.023 384.632C413.023 364.497 429.145 348.174 449.032 348.174C468.92 348.174 485.042 364.497 485.042 384.632Z" fill="#2E1A26"/>
<path d="M485.042 384.632C485.042 404.766 468.92 421.089 449.032 421.089C429.145 421.089 413.023 404.766 413.023 384.632C413.023 364.497 429.145 348.174 449.032 348.174C468.92 348.174 485.042 364.497 485.042 384.632Z" fill="#2E1A26"/>
<path d="M485.042 384.632C485.042 404.766 468.92 421.089 449.032 421.089C429.145 421.089 413.023 404.766 413.023 384.632C413.023 364.497 429.145 348.174 449.032 348.174C468.92 348.174 485.042 364.497 485.042 384.632Z" fill="#2E1A26"/>
<ellipse cx="456.65" cy="368.428" rx="11.7724" ry="11.4772" fill="white"/>
<ellipse cx="456.65" cy="368.428" rx="11.7724" ry="11.4772" fill="white"/>
<ellipse cx="456.65" cy="368.428" rx="11.7724" ry="11.4772" fill="white"/>
<path d="M293.66 475.963C317.512 466.414 357.757 460.516 357.757 460.516L396.648 475.963C396.648 475.963 394.524 552.923 357.757 567.241C338.691 574.666 325.266 571.405 305.183 567.241C278.353 561.678 251.796 560.354 243.247 534.943C239.39 523.479 238.923 515.354 243.247 504.049C251.169 483.335 272.685 484.362 293.66 475.963Z" fill="white"/>
<path d="M293.66 475.963C317.512 466.414 357.757 460.516 357.757 460.516L396.648 475.963C396.648 475.963 394.524 552.923 357.757 567.241C338.691 574.666 325.266 571.405 305.183 567.241C278.353 561.678 251.796 560.354 243.247 534.943C239.39 523.479 238.923 515.354 243.247 504.049C251.169 483.335 272.685 484.362 293.66 475.963Z" stroke="white" stroke-width="5"/>
<path d="M293.66 475.963C317.512 466.414 357.757 460.516 357.757 460.516L396.648 475.963C396.648 475.963 394.524 552.923 357.757 567.241C338.691 574.666 325.266 571.405 305.183 567.241C278.353 561.678 251.796 560.354 243.247 534.943C239.39 523.479 238.923 515.354 243.247 504.049C251.169 483.335 272.685 484.362 293.66 475.963Z" stroke="black" stroke-opacity="0.2" stroke-width="5"/>
<path d="M336.677 482.985C309.918 503.549 288.85 510.838 240.177 516.084" stroke="#D7D3D3" stroke-opacity="0.6" stroke-width="5" stroke-linecap="round"/>
<path d="M345.319 509.666C318.561 530.23 297.493 537.519 248.819 542.765" stroke="#D7D3D3" stroke-opacity="0.6" stroke-width="5" stroke-linecap="round"/>
<path d="M378.14 506.857C358.314 533.873 340.161 546.593 294.911 564.845" stroke="#D7D3D3" stroke-opacity="0.6" stroke-width="5" stroke-linecap="round"/>
<path d="M265.021 315.876C296.071 326.218 317.595 379.771 317.595 379.771C317.595 379.771 242.216 391.794 196.603 379.771C176.739 374.535 163.883 373.118 147.63 360.813C132.569 349.41 123.378 340.763 118.102 322.898C114.056 309.196 118.102 286.386 118.102 286.386C118.102 286.386 126.173 317.972 141.868 327.11C157.564 336.248 168.292 333.388 186.52 332.025C217.76 329.69 235.372 306.001 265.021 315.876Z" fill="white"/>
<path d="M265.021 315.876C296.071 326.218 317.595 379.771 317.595 379.771C317.595 379.771 242.216 391.794 196.603 379.771C176.739 374.535 163.883 373.118 147.63 360.813C132.569 349.41 123.378 340.763 118.102 322.898C114.056 309.196 118.102 286.386 118.102 286.386C118.102 286.386 126.173 317.972 141.868 327.11C157.564 336.248 168.292 333.388 186.52 332.025C217.76 329.69 235.372 306.001 265.021 315.876Z" stroke="white" stroke-width="5"/>
<path d="M265.021 315.876C296.071 326.218 317.595 379.771 317.595 379.771C317.595 379.771 242.216 391.794 196.603 379.771C176.739 374.535 163.883 373.118 147.63 360.813C132.569 349.41 123.378 340.763 118.102 322.898C114.056 309.196 118.102 286.386 118.102 286.386C118.102 286.386 126.173 317.972 141.868 327.11C157.564 336.248 168.292 333.388 186.52 332.025C217.76 329.69 235.372 306.001 265.021 315.876Z" stroke="black" stroke-opacity="0.2" stroke-width="5"/>
<path d="M224.485 320.157C245.964 331.918 256.828 340.845 273.711 365.324" stroke="#D7D3D3" stroke-opacity="0.6" stroke-width="5" stroke-linecap="round"/>
<path d="M196.965 332.43C213.696 342.341 221.506 349.921 231.32 370.845" stroke="#D7D3D3" stroke-opacity="0.6" stroke-width="5" stroke-linecap="round"/>
<path d="M57.2369 416.372C68.2661 414.209 82.345 416.372 96.1273 424.088C125.892 440.751 169.587 471.131 169.587 471.131C169.587 471.131 145.08 480.528 128.536 482.365C100.512 485.477 73.5778 493.157 49.9366 478.16C37.1001 470.017 28.3643 458.606 29.8696 443.748C31.5023 427.632 40.9525 419.566 57.2369 416.372Z" fill="white"/>
<path d="M57.2369 416.372C68.2661 414.209 82.345 416.372 96.1273 424.088C125.892 440.751 169.587 471.131 169.587 471.131C169.587 471.131 145.08 480.528 128.536 482.365C100.512 485.477 73.5778 493.157 49.9366 478.16C37.1001 470.017 28.3643 458.606 29.8696 443.748C31.5023 427.632 40.9525 419.566 57.2369 416.372Z" stroke="white" stroke-width="5"/>
<path d="M57.2369 416.372C68.2661 414.209 82.345 416.372 96.1273 424.088C125.892 440.751 169.587 471.131 169.587 471.131C169.587 471.131 145.08 480.528 128.536 482.365C100.512 485.477 73.5778 493.157 49.9366 478.16C37.1001 470.017 28.3643 458.606 29.8696 443.748C31.5023 427.632 40.9525 419.566 57.2369 416.372Z" stroke="black" stroke-opacity="0.2" stroke-width="5"/>
<path d="M48.4297 424.096C61.8714 437.973 71.1087 443.832 94.1484 448.81" stroke="#D7D3D3" stroke-opacity="0.6" stroke-width="5" stroke-linecap="round"/>
<path d="M31.145 440.947C53.4493 463.449 66.3168 471.03 94.725 473.774" stroke="#D7D3D3" stroke-opacity="0.6" stroke-width="5" stroke-linecap="round"/>
<path d="M562.822 369.941C546.009 394.906 541.712 410.922 542.657 442.963" stroke="#CCCCCC" stroke-opacity="0.6" stroke-width="5" stroke-linecap="round"/>
</svg>
