<svg width="600" height="600" viewBox="0 0 600 600" fill="none" xmlns="http://www.w3.org/2000/svg">
<path d="M311.444 566.21C302.554 566.21 288.082 568.606 288.082 568.606L265.918 571.601C265.918 571.601 254.537 573.997 244.354 575.794C234.17 577.591 232.972 576.992 220.992 578.789C212.613 580.046 208.413 579.987 199.428 580.586C187.933 581.353 178.899 580.256 168.279 575.794C159.476 572.096 154.53 569.429 148.511 562.017C145.015 557.712 143.834 554.338 143.12 548.839C142.476 543.879 145.516 536.259 145.516 536.259C145.516 536.259 139.786 529.334 137.13 524.279C134.239 518.776 132.429 515.225 130.541 509.303C128.989 504.436 128.804 501.79 128.145 496.724C127.571 492.317 128.145 485.343 128.145 485.343C128.145 485.343 117.119 483.479 110.174 481.749C98.6893 478.887 92.3364 476.742 81.4213 472.164C71.7736 468.119 65.7177 466.352 56.8616 460.783C47.8302 455.104 41.9393 451.761 35.297 443.412C31.2504 438.325 29.0818 435.342 27.5098 429.035C26.1519 423.588 25.8363 420.018 27.5098 414.659C29.2121 409.207 34.0237 404.077 38.2921 400.282C49.0744 390.698 51.8978 390.18 62.2528 382.911C74.4299 374.363 81.561 370.954 93.4016 361.945C108.522 350.442 131.739 331.995 131.739 331.995C131.739 331.995 119.212 322.298 111.971 315.222C102.117 305.593 96.6529 299.86 89.2085 288.266C83.6687 279.639 81.1322 274.385 77.2282 264.905C72.5784 253.613 70.6404 246.928 68.2429 234.954C65.0198 218.857 64.3613 209.915 64.707 193.502C65.0541 177.024 66.0376 167.08 70.04 151.092C73.8167 136.005 77.3037 127.783 84.4164 113.953C90.7674 101.603 94.9863 94.9063 103.585 84.0017C112.906 72.1811 118.952 66.0551 130.541 56.447C143.428 45.7622 151.559 40.6712 166.482 33.0853C183.567 24.4 193.885 20.4243 212.606 16.3129C230.499 12.383 241.015 11.6664 259.329 12.1198C273.688 12.4752 281.812 13.3607 295.869 16.3129C313.244 19.962 322.893 23.2186 338.998 30.6893C351.738 36.5986 358.836 40.3363 370.147 48.6598C383.473 58.4656 390.45 65.0224 400.697 78.0116C408.254 87.59 412.617 92.5758 418.668 103.17C424.53 113.436 427.245 120.2 431.247 131.324C434.589 140.613 435.595 146.149 437.237 155.884C438.878 165.616 439.633 171.173 439.633 181.042C439.633 190.912 437.237 206.201 437.237 206.201L485.757 181.042L514.51 164.27C514.51 164.27 523.477 160.419 529.486 160.676C534.59 160.894 542.065 164.27 542.065 164.27C542.065 164.27 547.79 168.467 550.451 172.057C554.332 177.292 556.441 187.632 556.441 187.632C556.441 187.632 557.95 211.437 556.441 226.568C555.667 234.337 554.97 238.678 553.446 246.335C550.399 261.652 542.065 284.672 542.065 284.672C542.065 284.672 536.381 298.44 531.882 306.836C525.967 317.874 521.966 323.729 514.51 333.792C507.984 342.6 504.242 347.556 496.54 355.356C490.602 361.369 480.366 369.733 480.366 369.733L467.188 378.718C467.188 378.718 473.401 391.59 476.173 400.282C478.224 406.715 481.564 419.451 481.564 419.451C481.564 419.451 483.361 424.123 485.158 436.104C486.955 448.084 486.955 445.089 486.955 455.991C486.955 466.05 485.913 470.52 485.158 480.551C483.95 496.604 480.366 509.902 480.366 509.902L476.173 518.289C476.173 518.289 483.347 524.708 485.158 530.269C486.897 535.607 485.158 544.645 485.158 544.645C485.158 544.645 482.456 549.185 480.366 551.834C476.059 557.295 472.851 559.775 467.188 563.814C462.156 567.403 459.088 569.158 453.41 571.601C446.06 574.764 441.566 575.874 433.643 576.992C425.135 578.193 420.113 578.192 411.76 578.19L410.88 578.19C401.991 578.19 386.92 575.794 386.92 575.794L361.162 571.601L344.989 568.606C344.989 568.606 330.421 566.721 321.627 566.21C317.657 565.979 315.42 566.21 311.444 566.21Z" fill="#D0D3DC"/>
<path d="M128.145 485.343C128.145 485.343 127.571 492.317 128.145 496.724C128.804 501.79 128.989 504.436 130.541 509.303C132.429 515.225 134.239 518.776 137.13 524.279C139.786 529.334 145.516 536.259 145.516 536.259C145.516 536.259 142.476 543.879 143.12 548.838C143.834 554.338 145.015 557.712 148.511 562.017C154.53 569.429 159.476 572.096 168.279 575.794C178.899 580.256 187.933 581.353 199.428 580.586C208.413 579.987 212.613 580.046 220.992 578.789C232.972 576.992 234.17 577.591 244.354 575.794C254.537 573.997 265.918 571.601 265.918 571.601L288.082 568.606C288.082 568.606 302.554 566.21 311.444 566.21C315.42 566.21 317.657 565.979 321.627 566.21C330.421 566.721 344.989 568.606 344.989 568.606L361.162 571.601L386.92 575.794C386.92 575.794 401.991 578.19 410.88 578.19C419.77 578.19 424.841 578.234 433.643 576.992C441.566 575.874 446.06 574.764 453.41 571.601C459.088 569.158 462.156 567.402 467.188 563.814C472.851 559.775 476.059 557.295 480.366 551.834C482.456 549.185 485.158 544.645 485.158 544.645C485.158 544.645 486.897 535.607 485.158 530.269C483.347 524.708 476.173 518.289 476.173 518.289L480.366 509.902C480.366 509.902 483.95 496.604 485.158 480.551C485.913 470.52 486.955 466.05 486.955 455.991C486.955 445.089 486.955 448.084 485.158 436.104C483.361 424.123 481.564 419.451 481.564 419.451C481.564 419.451 478.224 406.715 476.173 400.282C473.401 391.59 467.188 378.718 467.188 378.718M128.145 485.343C128.145 485.343 117.119 483.479 110.174 481.749C98.6893 478.887 92.3364 476.742 81.4213 472.164C71.7736 468.119 65.7177 466.352 56.8616 460.783C47.8302 455.104 41.9393 451.761 35.297 443.412C31.2504 438.325 29.0818 435.342 27.5098 429.035C26.1519 423.588 25.8363 420.018 27.5098 414.659C29.2121 409.207 34.0237 404.077 38.2921 400.282C49.0744 390.698 51.8978 390.18 62.2528 382.911C74.4299 374.363 81.561 370.954 93.4016 361.945C108.522 350.442 131.739 331.995 131.739 331.995M128.145 485.343C128.145 485.343 130.131 473.983 131.739 466.773C133.579 458.522 137.13 445.808 137.13 445.808C139.001 440.895 140.051 438.141 141.922 433.228C143.793 428.316 159.892 404.476 148.511 421.248M131.739 331.995C131.739 331.995 119.212 322.298 111.971 315.222C102.117 305.593 96.6529 299.86 89.2085 288.266C83.6687 279.639 81.1322 274.385 77.2282 264.905C72.5784 253.613 70.6404 246.928 68.2429 234.954C65.0198 218.857 64.3613 209.915 64.707 193.502C65.0541 177.024 66.0376 167.08 70.04 151.092C73.8167 136.005 77.3037 127.783 84.4164 113.953C90.7674 101.603 94.9863 94.9063 103.585 84.0017C112.906 72.1811 118.952 66.0551 130.541 56.447C143.428 45.7622 151.559 40.6712 166.482 33.0853C183.567 24.4 193.885 20.4243 212.606 16.3129C230.499 12.383 241.015 11.6664 259.329 12.1198C273.688 12.4752 281.812 13.3607 295.869 16.3129C313.244 19.962 322.893 23.2186 338.998 30.6893C351.738 36.5986 358.836 40.3363 370.147 48.6598C383.473 58.4656 390.45 65.0224 400.697 78.0116C408.254 87.59 412.617 92.5758 418.668 103.17C424.53 113.436 427.245 120.2 431.247 131.324C434.589 140.613 435.595 146.149 437.237 155.884C438.878 165.616 439.633 171.173 439.633 181.042C439.633 190.912 437.237 206.201 437.237 206.201M131.739 331.995C131.739 331.995 154.658 344.987 168.878 349.965C184.684 355.499 265.319 365.54 208.413 357.752M437.237 206.201L485.757 181.042L514.51 164.27C514.51 164.27 523.477 160.419 529.486 160.676C534.59 160.894 542.065 164.27 542.065 164.27C542.065 164.27 547.79 168.467 550.451 172.057C554.332 177.292 556.441 187.632 556.441 187.632C556.441 187.632 557.95 211.437 556.441 226.568C555.667 234.337 554.97 238.678 553.446 246.335C550.399 261.652 542.065 284.672 542.065 284.672C542.065 284.672 536.381 298.44 531.882 306.836C525.967 317.874 521.966 323.729 514.51 333.792C507.984 342.6 504.242 347.556 496.54 355.356C490.602 361.369 480.366 369.733 480.366 369.733L467.188 378.718M437.237 206.201C437.237 206.201 431.867 231.194 425.856 246.335C419.097 263.358 389.316 311.628 403.692 287.667M467.188 378.718C467.188 378.718 458.425 363.158 452.212 353.559C443.746 340.477 412.677 300.846 428.851 321.212" stroke="#D0D3DC" stroke-width="5"/>
<path d="M128.145 485.343C128.145 485.343 127.571 492.317 128.145 496.724C128.804 501.79 128.989 504.436 130.541 509.303C132.429 515.225 134.239 518.776 137.13 524.279C139.786 529.334 145.516 536.259 145.516 536.259C145.516 536.259 142.476 543.879 143.12 548.838C143.834 554.338 145.015 557.712 148.511 562.017C154.53 569.429 159.476 572.096 168.279 575.794C178.899 580.256 187.933 581.353 199.428 580.586C208.413 579.987 212.613 580.046 220.992 578.789C232.972 576.992 234.17 577.591 244.354 575.794C254.537 573.997 265.918 571.601 265.918 571.601L288.082 568.606C288.082 568.606 302.554 566.21 311.444 566.21C315.42 566.21 317.657 565.979 321.627 566.21C330.421 566.721 344.989 568.606 344.989 568.606L361.162 571.601L386.92 575.794C386.92 575.794 401.991 578.19 410.88 578.19C419.77 578.19 424.841 578.234 433.643 576.992C441.566 575.874 446.06 574.764 453.41 571.601C459.088 569.158 462.156 567.402 467.188 563.814C472.851 559.775 476.059 557.295 480.366 551.834C482.456 549.185 485.158 544.645 485.158 544.645C485.158 544.645 486.897 535.607 485.158 530.269C483.347 524.708 476.173 518.289 476.173 518.289L480.366 509.902C480.366 509.902 483.95 496.604 485.158 480.551C485.913 470.52 486.955 466.05 486.955 455.991C486.955 445.089 486.955 448.084 485.158 436.104C483.361 424.123 481.564 419.451 481.564 419.451C481.564 419.451 478.224 406.715 476.173 400.282C473.401 391.59 467.188 378.718 467.188 378.718M128.145 485.343C128.145 485.343 117.119 483.479 110.174 481.749C98.6893 478.887 92.3364 476.742 81.4213 472.164C71.7736 468.119 65.7177 466.352 56.8616 460.783C47.8302 455.104 41.9393 451.761 35.297 443.412C31.2504 438.325 29.0818 435.342 27.5098 429.035C26.1519 423.588 25.8363 420.018 27.5098 414.659C29.2121 409.207 34.0237 404.077 38.2921 400.282C49.0744 390.698 51.8978 390.18 62.2528 382.911C74.4299 374.363 81.561 370.954 93.4016 361.945C108.522 350.442 131.739 331.995 131.739 331.995M128.145 485.343C128.145 485.343 130.131 473.983 131.739 466.773C133.579 458.522 137.13 445.808 137.13 445.808C139.001 440.895 140.051 438.141 141.922 433.228C143.793 428.316 159.892 404.476 148.511 421.248M131.739 331.995C131.739 331.995 119.212 322.298 111.971 315.222C102.117 305.593 96.6529 299.86 89.2085 288.266C83.6687 279.639 81.1322 274.385 77.2282 264.905C72.5784 253.613 70.6404 246.928 68.2429 234.954C65.0198 218.857 64.3613 209.915 64.707 193.502C65.0541 177.024 66.0376 167.08 70.04 151.092C73.8167 136.005 77.3037 127.783 84.4164 113.953C90.7674 101.603 94.9863 94.9063 103.585 84.0017C112.906 72.1811 118.952 66.0551 130.541 56.447C143.428 45.7622 151.559 40.6712 166.482 33.0853C183.567 24.4 193.885 20.4243 212.606 16.3129C230.499 12.383 241.015 11.6664 259.329 12.1198C273.688 12.4752 281.812 13.3607 295.869 16.3129C313.244 19.962 322.893 23.2186 338.998 30.6893C351.738 36.5986 358.836 40.3363 370.147 48.6598C383.473 58.4656 390.45 65.0224 400.697 78.0116C408.254 87.59 412.617 92.5758 418.668 103.17C424.53 113.436 427.245 120.2 431.247 131.324C434.589 140.613 435.595 146.149 437.237 155.884C438.878 165.616 439.633 171.173 439.633 181.042C439.633 190.912 437.237 206.201 437.237 206.201M131.739 331.995C131.739 331.995 154.658 344.987 168.878 349.965C184.684 355.499 265.319 365.54 208.413 357.752M437.237 206.201L485.757 181.042L514.51 164.27C514.51 164.27 523.477 160.419 529.486 160.676C534.59 160.894 542.065 164.27 542.065 164.27C542.065 164.27 547.79 168.467 550.451 172.057C554.332 177.292 556.441 187.632 556.441 187.632C556.441 187.632 557.95 211.437 556.441 226.568C555.667 234.337 554.97 238.678 553.446 246.335C550.399 261.652 542.065 284.672 542.065 284.672C542.065 284.672 536.381 298.44 531.882 306.836C525.967 317.874 521.966 323.729 514.51 333.792C507.984 342.6 504.242 347.556 496.54 355.356C490.602 361.369 480.366 369.733 480.366 369.733L467.188 378.718M437.237 206.201C437.237 206.201 431.867 231.194 425.856 246.335C419.097 263.358 389.316 311.628 403.692 287.667M467.188 378.718C467.188 378.718 458.425 363.158 452.212 353.559C443.746 340.477 412.677 300.846 428.851 321.212" stroke="black" stroke-opacity="0.2" stroke-width="5"/>
<path d="M292.273 560.355C281.454 561.548 264.119 563.813 264.119 563.813C264.119 563.813 243.528 560.378 234.53 551.178C228.304 544.811 225.545 541.512 221.327 534.276C216.817 526.54 214.882 521.923 212.161 513.031C209.439 504.139 209.264 499.35 208.937 490.371C208.61 481.391 210.546 468.733 210.546 468.733C210.546 468.733 212.719 457.794 215.301 451.177C219.594 440.177 223.497 434.42 231.146 425.424C238.034 417.324 242.596 413.165 251.465 407.301C262.155 400.233 269.202 397.614 281.558 394.216C296.473 390.114 305.542 389.421 320.98 390.381C333.44 391.157 342.181 391.985 353.972 396.089C365.762 400.192 373.058 402.381 383.323 409.267C391.858 414.992 397.931 419.673 404.888 427.237C412.845 435.889 415.557 442.656 419.863 453.594C423.513 462.862 424.408 471.823 425.255 481.748C426.212 492.975 424.926 497.84 422.859 506.907C420.791 515.973 418.609 519.893 413.571 529.667C408.532 539.442 407.124 541.088 401.61 546.887C396.549 552.21 392.217 555.165 385.862 558.85C379.655 562.45 368.72 565.468 368.72 565.468C368.72 565.468 355 562.791 344.387 561.417C333.775 560.043 328.579 559.323 318.63 558.85C308.348 558.361 302.504 559.227 292.273 560.355Z" fill="#E6E7E9"/>
<path d="M249.805 541.531C256.35 547.381 271.969 564.893 271.969 564.893C271.969 564.893 249.84 573.454 239.861 575.196C218.404 578.943 207.258 579.868 191.701 578.071C176.451 576.31 172.639 575.311 161.151 571.482C152.166 568.487 149.478 565.492 146.175 559.502C144.147 555.821 143.779 551.116 144.977 543.927C146.455 535.064 151.991 527.976 155.161 525.358C161.68 519.972 163.877 518.943 171.933 516.372C184.779 512.274 195.762 514.022 207.857 518.004C217.458 521.164 222.126 522.909 231.236 528.353C238.219 532.526 243.26 535.681 249.805 541.531Z" fill="#504B4F"/>
<path d="M249.805 541.531C256.35 547.381 271.969 564.893 271.969 564.893C271.969 564.893 249.84 573.454 239.861 575.196C218.404 578.943 207.258 579.868 191.701 578.071C176.451 576.31 172.639 575.311 161.151 571.482C152.166 568.487 149.478 565.492 146.175 559.502C144.147 555.821 143.779 551.116 144.977 543.927C146.455 535.064 151.991 527.976 155.161 525.358C161.68 519.972 163.877 518.943 171.933 516.372C184.779 512.274 195.762 514.022 207.857 518.004C217.458 521.164 222.126 522.909 231.236 528.353C238.219 532.526 243.26 535.681 249.805 541.531Z" stroke="#D0D3DC" stroke-width="5"/>
<path d="M249.805 541.531C256.35 547.381 271.969 564.893 271.969 564.893C271.969 564.893 249.84 573.454 239.861 575.196C218.404 578.943 207.258 579.868 191.701 578.071C176.451 576.31 172.639 575.311 161.151 571.482C152.166 568.487 149.478 565.492 146.175 559.502C144.147 555.821 143.779 551.116 144.977 543.927C146.455 535.064 151.991 527.976 155.161 525.358C161.68 519.972 163.877 518.943 171.933 516.372C184.779 512.274 195.762 514.022 207.857 518.004C217.458 521.164 222.126 522.909 231.236 528.353C238.219 532.526 243.26 535.681 249.805 541.531Z" stroke="black" stroke-opacity="0.2" stroke-width="5"/>
<path d="M392.202 542.848C386.575 548.813 373.43 566.354 373.43 566.354C373.43 566.354 394.708 572.564 404.134 573.392C424.403 575.173 434.301 575.075 449.875 573.392C464.061 571.859 464.25 571.777 476.641 566.436L476.831 566.354C484.956 562.852 488.904 556.781 491.501 550.943C493.097 547.356 493.188 542.351 491.501 535.755C489.422 527.623 482.165 522.12 479.007 519.934C472.588 515.493 470.435 515.004 462.955 513.303L462.681 513.241C450.399 510.447 440.316 512.948 429.374 517.615C420.689 521.32 416.484 523.315 408.438 529.106C402.27 533.545 397.829 536.883 392.202 542.848Z" fill="#504B4F"/>
<path d="M392.202 542.848C386.575 548.813 373.43 566.354 373.43 566.354C373.43 566.354 394.708 572.564 404.134 573.392C424.403 575.173 434.301 575.075 449.875 573.392C464.061 571.859 464.25 571.777 476.641 566.436L476.831 566.354C484.956 562.852 488.904 556.781 491.501 550.943C493.097 547.356 493.188 542.351 491.501 535.755C489.422 527.623 482.165 522.12 479.007 519.934C472.588 515.493 470.435 515.004 462.955 513.303L462.681 513.241C450.399 510.447 440.316 512.948 429.374 517.615C420.689 521.32 416.484 523.315 408.438 529.106C402.27 533.545 397.829 536.883 392.202 542.848Z" stroke="#D0D3DC" stroke-width="5"/>
<path d="M392.202 542.848C386.575 548.813 373.43 566.354 373.43 566.354C373.43 566.354 394.708 572.564 404.134 573.392C424.403 575.173 434.301 575.075 449.875 573.392C464.061 571.859 464.25 571.777 476.641 566.436L476.831 566.354C484.956 562.852 488.904 556.781 491.501 550.943C493.097 547.356 493.188 542.351 491.501 535.755C489.422 527.623 482.165 522.12 479.007 519.934C472.588 515.493 470.435 515.004 462.955 513.303L462.681 513.241C450.399 510.447 440.316 512.948 429.374 517.615C420.689 521.32 416.484 523.315 408.438 529.106C402.27 533.545 397.829 536.883 392.202 542.848Z" stroke="black" stroke-opacity="0.2" stroke-width="5"/>
<path d="M153.914 328.411C163.703 334.663 169.955 338.163 180.854 342.178C192.235 346.371 198.612 347.115 209.606 350.565C223.384 352.371 229.374 352.961 240.156 353.56C258.099 354.556 260.523 353.56 275.515 352.371C289.276 351.281 297.318 349.184 307.845 345.173C320.424 340.381 326.773 336.908 336.598 331.995C346.423 327.082 359.377 318.827 359.377 318.827C359.377 318.827 371.357 310.44 379.144 303.851C386.932 297.262 391.822 292.715 398.912 282.287C405.913 271.988 408.624 266.132 413.33 254.602C416.769 246.178 417.887 240.249 419.878 231.37L419.961 230.999C422.533 219.526 424.071 212.667 424.071 200.221C424.071 190.864 423.148 186.1 421.675 176.86C420.405 168.894 419.7 164.651 416.883 157.092C413.556 148.167 412.689 145.112 406.699 134.929C400.709 124.745 397.714 119.354 389.927 109.171C382.207 100.749 377.946 95.3935 370.159 87.6063C370.159 87.6063 355.184 75.0268 346.798 70.8338L346.796 70.833C338.411 66.6405 334.817 64.8435 325.233 61.8486C325.233 61.8486 314.614 60.1177 308.46 60.0515C301.844 59.9804 297.512 60.2586 291.089 61.8486C282.023 64.0928 276.76 65.7501 268.925 70.8338C261.015 75.9667 256.405 79.5196 251.554 87.6063C246.213 96.5101 244.928 103.046 243.767 113.364C242.825 121.733 243.405 126.653 244.965 134.929C246.349 142.274 248.51 146.072 251.554 152.899C255.135 160.93 257.496 165.325 262.336 172.667C266.56 179.073 274.317 188.241 274.317 188.241C274.317 188.241 286.484 196.567 291.089 204.414C294.235 209.775 295.563 213.242 296.48 219.39C297.171 224.017 297.61 227.321 297.079 231.969C296.589 236.255 296.082 238.33 294.084 242.153C291.785 246.55 290.197 248.668 286.297 251.737C282.419 254.788 279.077 256.426 274.317 257.727C269.803 258.96 266.968 258.987 262.336 258.326C255.153 257.301 250.621 255.682 244.965 251.138C239.3 246.586 236.579 242.153 234.182 235.563C231.786 228.974 231.187 225.38 230.588 217.593C229.989 209.806 231.187 197.825 231.187 197.825L225.197 176.86C225.197 176.86 221.603 167.875 217.41 160.087C213.217 152.3 211.306 150.595 206.628 144.513C201.949 138.431 195.751 135.104 188.058 131.335C181.415 128.08 177.401 127.056 170.088 125.943C163.612 124.958 158.577 124.26 152.117 125.344C145.258 126.496 141.628 127.752 135.345 130.736C125.908 135.216 120.935 139.298 113.78 146.909C105.89 155.303 103.203 161.791 99.4038 172.667C95.726 183.196 93.7579 188.975 92.8565 200.092C92.0246 210.351 92.0474 219.781 92.8565 230.042C93.5067 238.288 94.2894 243.615 95.8516 251.737C97.8127 261.933 100.093 264.362 104.196 273.9L104.287 274.113C107.19 280.861 107.836 282.363 113.78 290.673C119.787 299.069 124.368 303.086 131.152 311.039C131.152 311.039 144.49 322.392 153.914 328.411Z" fill="white"/>
<path d="M233.565 231.96C233.866 233.408 234.069 234.247 234.763 235.554C235.621 237.167 236.819 238.163 238.358 239.148C239.982 240.188 241.229 240.168 243.15 240.346C246.213 240.63 250.937 239.148 250.937 239.148L255.13 242.742C257.235 243.912 257.218 244.568 259.323 245.737C261.429 246.907 263.447 247.612 265.912 248.133C268.888 248.762 270.724 248.762 273.7 248.133C276.165 247.612 278.264 246.638 280.289 245.138C282.432 243.551 283.78 241.385 284.482 239.747C285.184 238.109 285.68 237.351 286.279 234.955C286.878 232.559 286.796 231.349 286.878 228.965C286.95 226.848 286.279 223.574 286.279 223.574C286.279 223.574 288.675 221.177 289.873 219.38C291.284 217.265 291.54 216.774 292.269 214.588C292.868 212.791 292.848 210.913 292.269 208.598C291.69 206.284 290.975 205.212 289.274 203.806C288.064 202.807 285.978 201.884 284.482 201.41C282.905 200.91 279.69 200.811 279.69 200.811C279.69 200.811 278.187 198.526 276.695 197.217C274.936 195.674 273.265 194.298 271.304 193.024C269.284 191.711 268.174 191.457 265.912 190.628C263.673 189.806 262.305 189.543 259.922 189.43C257.574 189.317 256.239 189.576 253.932 190.029C251.535 190.499 250.122 190.724 247.942 191.826C245.561 193.029 244.345 194.045 242.551 196.019C240.364 198.423 239.539 200.179 238.358 203.207C237.153 206.293 236.938 208.223 236.573 211.486L236.561 211.593C236.144 215.313 236.561 221.177 236.561 221.177C236.561 221.177 234.723 223.569 234.164 225.371C233.403 227.828 233.042 229.44 233.565 231.96Z" fill="black" stroke="#504B4F"/>
<path d="M240.926 223.618C239.884 227.209 238.767 232.663 238.767 232.663C238.767 232.663 246.78 234.637 252.268 234.037C257.005 233.52 260.694 233.185 265.099 231.374C269.639 229.507 271.231 228.683 275.137 225.717C278.228 223.371 279.622 221.881 282.15 218.942C284.706 215.971 286.705 209.834 286.705 209.834C286.705 209.834 282.435 208.102 278.212 205.862C275.031 204.175 273.763 201.331 270.707 199.014C268.583 197.405 266.505 195.363 261.721 194.222C258.632 193.485 254.493 193.901 251.249 195.184C248.004 196.468 245.453 198.369 243.751 202.009C242.049 205.649 241.451 208.566 241.355 213.391C241.258 218.215 242.075 219.664 240.926 223.618Z" fill="#FFF176"/>
<ellipse cx="324.365" cy="169.799" rx="19.1685" ry="25.7454" transform="rotate(-19.6141 324.365 169.799)" fill="black" stroke="#504B4F"/>
<ellipse cx="184.275" cy="230.529" rx="19.1685" ry="25.7454" transform="rotate(-19.6141 184.275 230.529)" fill="black" stroke="#504B4F"/>
<ellipse cx="185.109" cy="218.661" rx="5.39115" ry="5.39115" fill="white" stroke="#504B4F"/>
<ellipse cx="325.276" cy="157.562" rx="5.39115" ry="5.39115" fill="white" stroke="#504B4F"/>
<ellipse cx="363.509" cy="200.504" rx="29.4675" ry="13.237" transform="rotate(-24.4697 363.509 200.504)" fill="#FACFE3"/>
<ellipse cx="181.279" cy="277.445" rx="29.4675" ry="13.237" transform="rotate(-19.0374 181.279 277.445)" fill="#FACFE3"/>
</svg>
